<svg width="52" height="52" viewBox="0 0 52 52" fill="none" xmlns="http://www.w3.org/2000/svg">
<path d="M13.5 18.5C13.5 19.8975 15.5481 20.7801 19.6442 22.5451L21.3063 23.2613C23.6095 24.2538 24.7612 24.75 26 24.75M13.5 18.5C13.5 17.1025 15.5481 16.2199 19.6442 14.4549L21.3063 13.7387C23.6095 12.7462 24.7612 12.25 26 12.25C27.2388 12.25 28.3905 12.7462 30.6937 13.7387L32.3558 14.4549C36.4519 16.2199 38.5 17.1025 38.5 18.5M13.5 18.5V33.5C13.5 34.8975 15.5481 35.7801 19.6442 37.5451L21.3063 38.2613C23.6095 39.2538 24.7612 39.75 26 39.75M26 24.75C27.2388 24.75 28.3905 24.2538 30.6937 23.2613L32.3558 22.5451C36.4519 20.7801 38.5 19.8975 38.5 18.5M26 24.75V39.75M38.5 18.5V33.5C38.5 34.8975 36.4519 35.7801 32.3558 37.5451L30.6937 38.2613C28.3905 39.2538 27.2388 39.75 26 39.75" stroke="#FCB635" stroke-width="4" stroke-linejoin="round"/>
<path d="M18.8607 2.25C12.2181 2.40188 8.33823 3.0364 5.68731 5.68731C3.0364 8.33823 2.40188 12.2181 2.25 18.8607M33.1393 2.25C39.7819 2.40188 43.6618 3.0364 46.3127 5.68731C48.9636 8.33823 49.5981 12.2181 49.75 18.8607M33.1393 49.75C39.7819 49.5981 43.6618 48.9636 46.3127 46.3127C48.9636 43.6618 49.5981 39.7819 49.75 33.1393M18.8607 49.75C12.2181 49.5981 8.33823 48.9636 5.68731 46.3127C3.0364 43.6618 2.40188 39.7819 2.25 33.1393" stroke="white" stroke-width="4" stroke-linecap="round" stroke-linejoin="round"/>
</svg>
