<svg width="80" height="20" viewBox="0 0 80 20" fill="none" xmlns="http://www.w3.org/2000/svg">
<path d="M52.243 11.9083C52.2428 12.2729 52.2909 12.6355 52.3856 12.9842C52.3909 13.0089 52.3976 13.0332 52.4055 13.057C52.6337 13.882 53.0913 14.6035 53.7112 15.1158C54.3312 15.6281 55.081 15.9043 55.851 15.9041V20C54.0748 20 52.802 20.0696 50.8661 18.7848C48.6556 17.3193 47.4135 14.6394 47.4135 11.8563C47.4135 8.98758 48.8025 6.11169 51.1577 4.72694C52.8647 3.72218 54.1639 3.71498 55.851 3.71498V7.80842C54.8941 7.80864 53.9765 8.23517 53.2999 8.99425C52.6233 9.75332 52.2431 10.7828 52.243 11.8563V11.9083Z" fill="#69C9D0"/>
<path d="M59.4879 11.9083C59.4884 12.2729 59.4403 12.6355 59.3452 12.9842C59.3402 13.009 59.3336 13.0334 59.3253 13.057C59.0973 13.8822 58.6398 14.6038 58.0198 15.1161C57.3998 15.6284 56.6498 15.9046 55.8798 15.9041V20C57.6567 20 58.9288 20.0696 60.8647 18.7848C63.0752 17.3193 64.3181 14.6394 64.3181 11.8563C64.3181 8.98758 62.9283 6.11169 60.5738 4.72694C58.8668 3.72218 57.5669 3.71498 55.8798 3.71498V7.80842C56.8368 7.80842 57.7546 8.23487 58.4313 8.99396C59.1081 9.75306 59.4884 10.7826 59.4886 11.8563L59.4879 11.9083Z" fill="#EE1D52"/>
<path d="M0 0H13.3633L12.1283 4.12544H8.63433V19.912H4.32965V4.12544H0V0ZM35.4172 0V4.12544H39.7469V19.912H44.0487V4.12544H47.5427L48.7805 0H35.4172ZM16.2704 4.70142C16.6821 4.70142 17.0845 4.56447 17.4268 4.30788C17.769 4.0513 18.0358 3.6866 18.1933 3.25992C18.3509 2.83323 18.3921 2.36372 18.3118 1.91075C18.2315 1.45779 18.0332 1.04171 17.7422 0.715136C17.4511 0.388565 17.0802 0.166167 16.6764 0.0760665C16.2727 -0.0140343 15.8542 0.0322105 15.4739 0.20895C15.0935 0.385689 14.7685 0.684986 14.5398 1.06899C14.3111 1.453 14.189 1.90447 14.189 2.36631C14.189 2.98562 14.4083 3.57957 14.7986 4.01748C15.189 4.4554 15.7184 4.70142 16.2704 4.70142ZM14.1854 19.912H18.4045V6.35176H14.1854V19.912ZM33.5804 4.58463H28.6475L24.3956 9.35965V0.0151996H20.205L20.1907 19.912H24.4234V14.7274L25.7418 13.3891L29.849 19.912H34.3733L28.4236 10.3724L33.5804 4.58463ZM74.0489 10.3724L79.2078 4.58463H74.2749L70.023 9.35965V0.0151996H65.8317L65.8181 19.912H70.0508V14.7274L71.3721 13.3891L75.48 19.912H80L74.0489 10.3724ZM63.2034 11.8556C63.2034 16.3522 59.9105 19.9976 55.8483 19.9976C51.786 19.9976 48.4939 16.3522 48.4939 11.8556C48.4939 7.35892 51.7867 3.71346 55.8483 3.71346C59.9098 3.71346 63.2048 7.35972 63.2048 11.8556H63.2034ZM59.4563 11.8556C59.4563 11.055 59.2447 10.2724 58.8482 9.60669C58.4518 8.94102 57.8883 8.4222 57.229 8.11583C56.5697 7.80946 55.8443 7.7293 55.1444 7.88548C54.4445 8.04167 53.8016 8.42719 53.297 8.99329C52.7924 9.55939 52.4488 10.2806 52.3096 11.0659C52.1703 11.8511 52.2418 12.6649 52.5149 13.4046C52.788 14.1442 53.2504 14.7764 53.8437 15.2212C54.4371 15.666 55.1347 15.9034 55.8483 15.9034C56.3222 15.9037 56.7916 15.7992 57.2296 15.5959C57.6675 15.3927 58.0655 15.0945 58.4007 14.7186C58.7359 14.3427 59.0018 13.8963 59.1831 13.4051C59.3645 12.9138 59.4578 12.3873 59.4577 11.8556H59.4563Z" fill="white"/>
</svg>
