<svg width="24" height="27" viewBox="0 0 24 27" fill="none" xmlns="http://www.w3.org/2000/svg">
<path fill-rule="evenodd" clip-rule="evenodd" d="M20.104 23.4988L14.8515 15.9988C14.7141 15.7882 14.5358 15.6075 14.3271 15.4672C14.1185 15.327 13.8837 15.2302 13.6369 15.1825C13.3901 15.1348 13.1362 15.1372 12.8903 15.1896C12.6444 15.2421 12.4116 15.3434 12.2057 15.4876C11.9998 15.6318 11.8249 15.816 11.6916 16.0291C11.5583 16.2423 11.4692 16.48 11.4296 16.7283C11.3901 16.9766 11.4008 17.2302 11.4613 17.4743C11.5217 17.7183 11.6306 17.9477 11.7815 18.1488L17.0315 25.6488C17.1727 25.8505 17.3522 26.0225 17.5598 26.1548C17.7674 26.2872 17.9991 26.3774 18.2416 26.4202C18.4841 26.463 18.7326 26.4577 18.973 26.4045C19.2134 26.3512 19.441 26.2512 19.6427 26.11C19.8445 25.9688 20.0165 25.7893 20.1488 25.5817C20.2812 25.3741 20.3713 25.1424 20.4142 24.8999C20.457 24.6574 20.4517 24.4089 20.3984 24.1685C20.3452 23.9281 20.2452 23.7005 20.104 23.4988Z" fill="#FCB635"/>
<path fill-rule="evenodd" clip-rule="evenodd" d="M21.6285 9.78537L5.45351 0.452865C4.89071 0.130126 4.24766 -0.0257468 3.59955 0.0034674C2.95143 0.0326816 2.32502 0.245776 1.79354 0.617841C1.26205 0.989906 0.847458 1.50557 0.59821 2.10456C0.348962 2.70354 0.27536 3.3611 0.38601 4.00037L3.62351 22.3929C3.73814 23.0456 4.04032 23.6508 4.49317 24.1346C4.94602 24.6184 5.52994 24.9599 6.17363 25.1173C6.81733 25.2748 7.49294 25.2415 8.118 25.0214C8.74306 24.8013 9.29051 24.4039 9.69351 23.8779L14.0785 18.1629L20.9485 15.9979C21.58 15.7982 22.1398 15.4192 22.5598 14.9071C22.9798 14.3949 23.2417 13.7717 23.3138 13.1133C23.3859 12.4549 23.2649 11.7898 22.9657 11.1989C22.6665 10.608 22.2019 10.1169 21.6285 9.78537ZM19.091 12.6504L12.386 14.7654C12.0191 14.8796 11.6968 15.105 11.4635 15.4104L7.18351 20.9904L4.20351 4.06037L19.091 12.6504Z" fill="#FCB635"/>
</svg>
