<svg width="24" height="24" viewBox="0 0 24 24" fill="none" xmlns="http://www.w3.org/2000/svg">
<path d="M23.2785 11.4156C21.4257 11.0272 19.9776 9.57908 19.5893 7.72635C19.5529 7.55304 19.4581 7.3975 19.3206 7.28586C19.1832 7.17423 19.0115 7.11329 18.8344 7.11328C18.6573 7.11328 18.4856 7.1742 18.3482 7.28583C18.2107 7.39746 18.1158 7.55299 18.0795 7.7263C17.6911 9.57908 16.243 11.0272 14.3902 11.4156C14.2169 11.4519 14.0614 11.5468 13.9498 11.6843C13.8383 11.8217 13.7773 11.9934 13.7773 12.1704C13.7773 12.3475 13.8383 12.5191 13.9498 12.6566C14.0614 12.794 14.2169 12.8889 14.3902 12.9253C16.2429 13.3137 17.691 14.7618 18.0794 16.6146C18.1157 16.7879 18.2106 16.9434 18.3481 17.0551C18.4855 17.1667 18.6572 17.2276 18.8343 17.2276C19.0114 17.2276 19.183 17.1667 19.3205 17.0551C19.458 16.9434 19.5528 16.7879 19.5892 16.6146C19.9776 14.7618 21.4257 13.3137 23.2785 12.9254C23.4518 12.8891 23.6073 12.7942 23.7189 12.6568C23.8306 12.5193 23.8915 12.3476 23.8915 12.1705C23.8915 11.9935 23.8306 11.8218 23.719 11.6843C23.6073 11.5468 23.4518 11.452 23.2785 11.4156Z" fill="white"/>
<path d="M13.7088 6.40614C10.7995 5.79625 8.52555 3.5223 7.91575 0.612953C7.8794 0.439654 7.78452 0.284142 7.64705 0.172527C7.50959 0.0609133 7.33791 -5.49721e-06 7.16084 3.72062e-10C6.98376 5.49795e-06 6.81209 0.0609349 6.67463 0.172558C6.53717 0.28418 6.4423 0.439699 6.40596 0.613C5.79611 3.5223 3.52216 5.7962 0.612864 6.406C0.439589 6.44238 0.284102 6.53725 0.172506 6.67471C0.0609106 6.81216 0 6.98383 0 7.16088C0 7.33793 0.0609106 7.50959 0.172506 7.64705C0.284102 7.7845 0.439589 7.87938 0.612864 7.91575C3.52211 8.52564 5.79597 10.7996 6.40582 13.7088C6.44215 13.8822 6.53701 14.0377 6.67447 14.1493C6.81193 14.261 6.98361 14.3219 7.16069 14.3219C7.33777 14.3219 7.50946 14.261 7.64692 14.1493C7.78438 14.0377 7.87924 13.8822 7.91557 13.7088C8.52546 10.7996 10.7995 8.52564 13.7088 7.91589C13.8821 7.87957 14.0376 7.78471 14.1492 7.64726C14.2609 7.5098 14.3218 7.33812 14.3218 7.16104C14.3218 6.98396 14.2609 6.81227 14.1493 6.67481C14.0376 6.53734 13.8821 6.44248 13.7088 6.40614ZM12.4338 19.1477C11.0631 18.8604 9.99171 17.789 9.70432 16.4182C9.66799 16.2449 9.57314 16.0893 9.43568 15.9777C9.29822 15.8661 9.12654 15.8051 8.94946 15.8051C8.77238 15.8051 8.60069 15.866 8.46323 15.9777C8.32577 16.0893 8.2309 16.2448 8.19457 16.4181C7.90718 17.7889 6.83575 18.8603 5.46504 19.1476C5.29176 19.184 5.13627 19.2789 5.02468 19.4163C4.91308 19.5538 4.85217 19.7254 4.85217 19.9025C4.85217 20.0795 4.91308 20.2512 5.02468 20.3887C5.13627 20.5261 5.29176 20.621 5.46504 20.6574C6.83571 20.9447 7.90713 22.0161 8.19447 23.3869C8.2308 23.5602 8.32566 23.7157 8.46312 23.8274C8.60058 23.939 8.77227 23.9999 8.94935 23.9999C9.12643 23.9999 9.29811 23.939 9.43557 23.8274C9.57303 23.7157 9.66789 23.5602 9.70422 23.3869C9.99161 22.0161 11.063 20.9448 12.4338 20.6574C12.6071 20.621 12.7626 20.5262 12.8742 20.3887C12.9858 20.2513 13.0467 20.0796 13.0467 19.9025C13.0467 19.7255 12.9858 19.5538 12.8742 19.4164C12.7626 19.2789 12.6071 19.184 12.4338 19.1477Z" fill="url(#paint0_linear_9005_13206)"/>
<defs>
<linearGradient id="paint0_linear_9005_13206" x1="0" y1="12" x2="14.3218" y2="12" gradientUnits="userSpaceOnUse">
<stop stop-color="#F7F0AC"/>
<stop offset="0.5" stop-color="#ACF7F0"/>
<stop offset="1" stop-color="#F0ACF7"/>
</linearGradient>
</defs>
</svg>
