<svg width="24" height="24" viewBox="0 0 24 24" fill="none" xmlns="http://www.w3.org/2000/svg">
<path d="M12 24C18.6274 24 24 18.6274 24 12C24 5.37258 18.6274 0 12 0C5.37258 0 0 5.37258 0 12C0 18.6274 5.37258 24 12 24Z" fill="#F0F0F0"/>
<path d="M2.48062 4.69416C1.53802 5.92055 0.82725 7.33406 0.413391 8.86964H6.65611L2.48062 4.69416ZM23.5866 8.86964C23.1727 7.33411 22.4619 5.92059 21.5194 4.6942L17.344 8.86964H23.5866ZM0.413391 15.1305C0.827297 16.666 1.53806 18.0795 2.48062 19.3059L6.65597 15.1305H0.413391ZM19.3058 2.48067C18.0795 1.53806 16.666 0.827297 15.1304 0.413391V6.65606L19.3058 2.48067ZM4.69416 21.5193C5.92055 22.4619 7.33406 23.1727 8.86959 23.5866V17.344L4.69416 21.5193ZM8.86955 0.413391C7.33401 0.827297 5.9205 1.53806 4.69416 2.48062L8.86955 6.65601V0.413391ZM15.1305 23.5866C16.666 23.1727 18.0795 22.4619 19.3058 21.5194L15.1305 17.344V23.5866ZM17.344 15.1305L21.5194 19.3059C22.4619 18.0796 23.1727 16.666 23.5866 15.1305H17.344Z" fill="#0052B4"/>
<path d="M23.8984 10.4348H13.5652V0.101578C13.0462 0.0339565 12.5234 2.60722e-05 12 0C11.4694 0 10.9471 0.034875 10.4348 0.101578V10.4348H0.101578C0.0339565 10.9538 2.60722e-05 11.4766 0 12C0 12.5306 0.034875 13.0529 0.101578 13.5652H10.4348V23.8984C11.4738 24.0339 12.5261 24.0339 13.5652 23.8984V13.5652H23.8984C23.966 13.0462 24 12.5234 24 12C24 11.4695 23.9651 10.9471 23.8984 10.4348Z" fill="#D80027"/>
<path d="M15.1305 15.1305L20.4853 20.4853C20.7314 20.2388 20.9668 19.9818 21.1906 19.7149L16.6062 15.1305H15.1305V15.1305ZM8.86955 15.1305H8.86945L3.51469 20.4853C3.76115 20.7314 4.01819 20.9668 4.28508 21.1906L8.86955 16.6061V15.1305ZM8.86955 8.86964V8.86955L3.51473 3.51469C3.26857 3.76115 3.03322 4.01819 2.80936 4.28508L7.39387 8.86959H8.86955V8.86964ZM15.1305 8.86964L20.4853 3.51473C20.2389 3.26857 19.9818 3.03324 19.7149 2.80941L15.1305 7.39392V8.86964Z" fill="#D80027"/>
</svg>
