<svg width="38" height="38" viewBox="0 0 38 38" fill="none" xmlns="http://www.w3.org/2000/svg">
<path d="M25.7188 32.4399C23.8639 30.585 23.8639 27.5758 25.7188 25.7192C22.0074 29.4307 15.9906 29.4307 12.2791 25.7192C14.134 27.5741 14.134 30.5833 12.2791 32.4399C10.4241 34.2948 7.41492 34.2948 5.55834 32.4399C12.9697 39.8512 25.0283 39.8512 32.4396 32.4399C30.583 34.2948 27.5738 34.2948 25.7188 32.4399Z" fill="#FBBC04"/>
<path d="M32.4397 5.55848C25.0284 -1.85283 12.9698 -1.85283 5.55848 5.55848C-1.85283 12.9698 -1.85283 25.0284 5.55848 32.4397C3.70357 30.5848 3.70357 27.5756 5.55848 25.719C7.41339 23.8641 10.4226 23.8641 12.2792 25.719C8.5677 22.0075 8.5677 15.9907 12.2792 12.2792C15.9907 8.56771 22.0075 8.56771 25.719 12.2792C27.5739 14.1341 30.5831 14.1341 32.4397 12.2792C34.2946 10.4226 34.2946 7.41507 32.4397 5.55848Z" fill="#4184F3"/>
<path d="M8.91798 33.8315C11.5426 33.8315 13.6704 31.7038 13.6704 29.0791C13.6704 26.4544 11.5426 24.3267 8.91798 24.3267C6.29331 24.3267 4.1656 26.4544 4.1656 29.0791C4.1656 31.7038 6.29331 33.8315 8.91798 33.8315Z" fill="#34A853"/>
<path d="M32.4394 5.55757C34.2943 7.41248 34.2943 10.4217 32.4394 12.2783C30.5845 14.1332 27.5753 14.1332 25.7187 12.2783C29.4302 15.9898 29.4302 22.0066 25.7187 25.718C23.8638 27.573 23.8638 30.5822 25.7187 32.4388C27.5736 34.2937 30.5828 34.2937 32.4394 32.4388C39.849 25.0275 39.849 12.9689 32.4394 5.55757Z" fill="#EA4335"/>
</svg>
