<svg width="44" height="16" viewBox="0 0 44 16" fill="none" xmlns="http://www.w3.org/2000/svg">
<path d="M6.80398 7.77415H8.69618V10.5933C8.10578 10.7946 7.36032 10.9049 6.5854 10.9049C3.44486 10.9049 1.59904 8.05208 1.59904 5.26591C1.59904 2.53327 3.26861 0.616482 5.59788 0.616482C7.07181 0.616482 7.92944 1.14616 8.69672 1.88399V2.80378L10.1354 1.27765C9.22542 0.624575 7.90775 0.00390625 6.02436 0.00390625C1.88984 0.00390625 0 3.1416 0 5.7202C0 9.39057 2.52019 11.6016 5.68723 11.6016C7.22285 11.6016 8.58632 11.353 10.1613 10.8881V7.97543C10.1613 7.82649 10.223 7.72429 10.3152 7.63456L10.8122 7.10736H7.43727L6.80398 7.77415Z" fill="url(#paint0_linear_9005_12548)"/>
<path d="M15.282 3.94141C12.9022 3.94141 11.4277 5.78604 11.4277 7.74402C11.4277 9.43405 12.6156 11.4406 15.0223 11.4406C17.3375 11.4406 18.758 9.59234 18.758 7.60008C18.758 5.7443 17.3698 3.94209 15.282 3.94209V3.94141ZM14.8872 4.47921C16.565 4.47921 17.3122 6.798 17.3122 8.45188C17.3122 10.9115 15.5727 10.9601 15.3648 10.9601C14.5688 10.9601 14.0124 10.4498 13.596 9.78046C13.2294 9.16359 12.8711 8.01754 12.8711 6.89771C12.8711 5.78225 13.2153 5.2376 13.757 4.8369C14.1999 4.53654 14.6146 4.47921 14.8866 4.47921H14.8872Z" fill="url(#paint1_linear_9005_12548)"/>
<path d="M30.8366 3.94141C28.7581 3.94141 27.6337 5.33731 27.6337 6.89584C27.6337 8.08235 28.435 9.42091 30.0881 9.42091H30.5063C30.5063 9.42091 30.3924 9.71442 30.3918 9.99796C30.3918 10.4162 30.5334 10.651 30.8341 11.0125C27.9897 11.1963 26.8465 12.4134 26.8465 13.7214C26.8465 14.8668 27.8805 15.9941 30.0534 15.9941C32.6259 15.9941 33.9582 14.4791 33.9582 12.9923C33.9582 11.9442 33.466 11.3696 32.2194 10.3788C31.8528 10.0765 31.7817 9.88405 31.7817 9.65784C31.7817 9.33379 31.9644 9.11935 32.0314 9.0384C32.1494 8.90629 32.3539 8.75549 32.4303 8.6832C32.8491 8.30681 33.4407 7.74976 33.4407 6.63797C33.4407 5.87521 33.1416 5.21903 32.4602 4.60458H33.2921L33.9171 3.94154H30.8366V3.94141ZM30.2633 4.43744C30.6404 4.43744 30.9552 4.57892 31.2877 4.87243C31.6566 5.22514 32.2459 6.17297 32.2459 7.34577C32.2459 8.61142 31.3189 8.95789 30.8172 8.95789C30.5717 8.95789 30.2774 8.88499 30.0283 8.70427C29.4749 8.32358 28.9256 7.31024 28.9256 6.10441C28.9256 5.01636 29.5365 4.43744 30.2633 4.43744ZM31.0863 11.4929C31.2448 11.4929 31.3589 11.5067 31.3589 11.5067C31.3589 11.5067 31.7331 11.7902 31.9945 12.0021C32.6031 12.5124 32.9825 12.9025 32.9825 13.5974C32.9825 14.5527 32.1471 15.3018 30.7942 15.3018C29.3092 15.3018 28.1742 14.5683 28.1742 13.3706C28.1742 12.3785 28.952 11.5247 31.0863 11.4929Z" fill="url(#paint2_linear_9005_12548)"/>
<path d="M34.3685 11.2241H37.2218L37.6565 10.763L36.8381 10.6545C36.6179 10.6259 36.4869 10.424 36.4869 10.2283V1.08584C36.4869 0.905748 36.5656 0.813518 36.6231 0.754878L37.1378 0.208984H34.7046L34.0713 0.880758H35.0171V10.351C35.0171 10.4856 34.9771 10.5772 34.8914 10.6713L34.3685 11.2241Z" fill="url(#paint3_linear_9005_12548)"/>
<path d="M41.0862 3.94141C39.493 3.94141 37.8005 5.22949 37.8005 7.54206C37.8005 9.45199 39.0148 11.4406 41.2835 11.4406C41.8493 11.4406 42.3151 11.3634 42.7516 11.1509C43.2198 10.9222 43.6704 10.5508 43.9993 10.084C43.3784 10.4162 42.872 10.6343 42.1993 10.6343C40.921 10.6343 39.6885 9.6559 39.2573 7.85744L43.7731 5.92126C43.5123 4.93479 42.7768 3.94141 41.0867 3.94141H41.0862ZM40.7912 4.47047C41.646 4.47047 42.264 5.21641 42.264 5.80031C42.264 5.98913 42.1524 6.08884 41.9314 6.18107L39.1557 7.37193C39.1557 7.37193 39.0806 7.00116 39.0806 6.60046C39.0806 4.91979 40.2261 4.47047 40.7912 4.47047Z" fill="url(#paint4_linear_9005_12548)"/>
<path d="M23.3561 3.94141C20.9763 3.94141 19.5018 5.78604 19.5018 7.74402C19.5018 9.43405 20.6897 11.4406 23.0965 11.4406C25.4116 11.4406 26.8321 9.59234 26.8321 7.60008C26.8321 5.7443 25.4439 3.94209 23.3561 3.94209V3.94141ZM22.9613 4.47921C24.6391 4.47921 25.3863 6.798 25.3863 8.45188C25.3863 10.9115 23.6469 10.9601 23.4389 10.9601C22.6429 10.9601 22.0866 10.4498 21.6701 9.78046C21.3036 9.16359 20.9452 8.01754 20.9452 6.89771C20.9452 5.78225 21.2894 5.2376 21.8311 4.8369C22.274 4.53654 22.6888 4.47921 22.9607 4.47921H22.9613Z" fill="url(#paint5_linear_9005_12548)"/>
<defs>
<linearGradient id="paint0_linear_9005_12548" x1="5.37922" y1="-0.0289237" x2="5.37922" y2="11.601" gradientUnits="userSpaceOnUse">
<stop stop-color="#196EEF"/>
<stop offset="0.5" stop-color="#186DEE"/>
<stop offset="1" stop-color="#1065E7"/>
</linearGradient>
<linearGradient id="paint1_linear_9005_12548" x1="15.0662" y1="3.92364" x2="15.0662" y2="11.4437" gradientUnits="userSpaceOnUse">
<stop stop-color="#DE5744"/>
<stop offset="0.5" stop-color="#DB4632"/>
<stop offset="1" stop-color="#D13D29"/>
</linearGradient>
<linearGradient id="paint2_linear_9005_12548" x1="30.3762" y1="3.92427" x2="30.3762" y2="15.9987" gradientUnits="userSpaceOnUse">
<stop stop-color="#1A6FEF"/>
<stop offset="0.25" stop-color="#1E72EF"/>
<stop offset="0.5" stop-color="#166BEC"/>
<stop offset="0.75" stop-color="#1267E9"/>
<stop offset="1" stop-color="#1063E5" stop-opacity="0.87"/>
</linearGradient>
<linearGradient id="paint3_linear_9005_12548" x1="35.8379" y1="0.183057" x2="35.8379" y2="11.2347" gradientUnits="userSpaceOnUse">
<stop stop-color="#0AA561"/>
<stop offset="0.5" stop-color="#009B58"/>
<stop offset="1" stop-color="#00914B"/>
</linearGradient>
<linearGradient id="paint4_linear_9005_12548" x1="40.8741" y1="3.92364" x2="40.8741" y2="11.423" gradientUnits="userSpaceOnUse">
<stop stop-color="#DE5644"/>
<stop offset="0.5" stop-color="#DA4531"/>
<stop offset="1" stop-color="#CE3A28"/>
</linearGradient>
<linearGradient id="paint5_linear_9005_12548" x1="23.1405" y1="3.93997" x2="23.1405" y2="11.4288" gradientUnits="userSpaceOnUse">
<stop stop-color="#FFC01A"/>
<stop offset="0.5" stop-color="#FFBA03"/>
<stop offset="1" stop-color="#FFB300"/>
</linearGradient>
</defs>
</svg>
