<svg width="50" height="44" viewBox="0 0 50 44" fill="none" xmlns="http://www.w3.org/2000/svg">
<path d="M43.7378 25.8719C43.2554 25.8708 42.792 25.6838 42.444 25.3498C42.0959 25.0158 41.89 24.5605 41.869 24.0785C41.848 23.5966 42.0135 23.1251 42.3312 22.7621C42.6489 22.3991 43.0942 22.1725 43.5747 22.1294H43.5766C43.6049 21.8836 43.6815 21.6458 43.8022 21.4297C43.9228 21.2137 44.085 21.0236 44.2794 20.8705C44.4738 20.7175 44.6966 20.6044 44.935 20.5378C45.1733 20.4713 45.4224 20.4526 45.668 20.4828C45.9136 20.5129 46.1508 20.5915 46.366 20.7137C46.5811 20.836 46.7699 20.9997 46.9214 21.1953C47.073 21.3909 47.1843 21.6146 47.249 21.8534C47.3137 22.0922 47.3305 22.3415 47.2985 22.5869C47.1899 23.4377 46.7945 24.2261 46.1775 24.822C45.5605 25.4179 44.7588 25.7856 43.9047 25.8644C43.8485 25.87 43.7922 25.8719 43.7378 25.8719Z" fill="white"/>
<path d="M13.2819 28.5405C12.7978 28.5417 12.332 28.3556 11.982 28.0212C11.632 27.6867 11.4249 27.2299 11.4041 26.7462C11.3832 26.2626 11.5503 25.7896 11.8702 25.4263C12.1902 25.063 12.6383 24.8375 13.1207 24.7971L43.5735 22.1327C43.8189 22.1103 44.0663 22.1368 44.3015 22.2104C44.5367 22.2841 44.7549 22.4036 44.9437 22.5621C45.1325 22.7205 45.288 22.9147 45.4014 23.1336C45.5147 23.3524 45.5836 23.5915 45.6041 23.8371C45.6256 24.0824 45.5986 24.3295 45.5246 24.5644C45.4505 24.7993 45.331 25.0172 45.1727 25.2059C45.0145 25.3945 44.8206 25.5502 44.6022 25.6639C44.3837 25.7776 44.1451 25.8472 43.8997 25.8687L13.4469 28.533C13.3921 28.5379 13.337 28.5404 13.2819 28.5405Z" fill="white"/>
<path d="M45.4364 24.2367C45.1706 24.2371 44.9078 24.181 44.6653 24.0721C44.4229 23.9632 44.2064 23.804 44.0301 23.6051C43.8539 23.4061 43.722 23.172 43.6431 22.9182C43.5642 22.6644 43.5402 22.3968 43.5726 22.133L45.8479 3.66141C45.9087 3.16786 46.1631 2.71868 46.5551 2.41267C46.947 2.10666 47.4445 1.9689 47.9381 2.0297C48.4316 2.09049 48.8808 2.34485 49.1868 2.73683C49.4928 3.12881 49.6306 3.6263 49.5698 4.11985L47.2945 22.5914C47.2385 23.045 47.0188 23.4625 46.6766 23.7655C46.3344 24.0685 45.8934 24.2361 45.4364 24.2367Z" fill="white"/>
<path d="M8.28974 9.21568C7.80564 9.21686 7.33984 9.03076 6.98983 8.69632C6.63982 8.36189 6.43273 7.90503 6.41189 7.42138C6.39106 6.93773 6.5581 6.46476 6.87806 6.10146C7.19801 5.73816 7.64608 5.51269 8.12849 5.47224L47.5485 2.02318C47.7939 2.00105 48.0412 2.02765 48.2763 2.10144C48.5113 2.17522 48.7295 2.29475 48.9182 2.45314C49.1069 2.61153 49.2625 2.80566 49.3759 3.02437C49.4893 3.24308 49.5584 3.48206 49.5791 3.72756C49.6006 3.97286 49.5736 4.22 49.4996 4.45487C49.4256 4.68973 49.306 4.9077 49.1477 5.09636C48.9895 5.28501 48.7956 5.44064 48.5772 5.55435C48.3588 5.66807 48.1201 5.73765 47.8748 5.75912L8.45474 9.20818C8.39987 9.213 8.34482 9.2155 8.28974 9.21568Z" fill="white"/>
<path d="M7.80062 5.55031C7.34692 5.54955 6.90888 5.3843 6.56772 5.08521C6.22656 4.78611 6.00543 4.37346 5.94531 3.92375V3.92188C5.44803 3.92188 4.97112 3.72433 4.61949 3.3727C4.26786 3.02107 4.07031 2.54416 4.07031 2.04688C4.07031 1.54959 4.26786 1.07268 4.61949 0.72105C4.97112 0.369419 5.44803 0.171875 5.94531 0.171875C7.81656 0.171875 9.41406 1.57063 9.6625 3.42594C9.69793 3.69112 9.67623 3.96082 9.59885 4.21693C9.52147 4.47304 9.39021 4.70963 9.21387 4.91084C9.03753 5.11204 8.82019 5.2732 8.57644 5.38349C8.33269 5.49378 8.06817 5.55066 7.80062 5.55031Z" fill="white"/>
<path d="M5.94437 3.92188H2.71094C2.21366 3.92188 1.73674 3.72433 1.38511 3.3727C1.03348 3.02107 0.835938 2.54416 0.835938 2.04688C0.835938 1.54959 1.03348 1.07268 1.38511 0.72105C1.73674 0.369419 2.21366 0.171875 2.71094 0.171875H5.94437C6.44165 0.171875 6.91857 0.369419 7.2702 0.72105C7.62183 1.07268 7.81937 1.54959 7.81937 2.04688C7.81937 2.54416 7.62183 3.02107 7.2702 3.3727C6.91857 3.72433 6.44165 3.92188 5.94437 3.92188Z" fill="white"/>
<path d="M10.4218 25.1927C9.49741 25.1927 8.69116 24.5083 8.56648 23.5652L5.94616 3.91991C5.8804 3.42698 6.01314 2.92811 6.31519 2.53305C6.61724 2.138 7.06386 1.87911 7.55679 1.81334C7.80086 1.78078 8.04896 1.79661 8.28692 1.85993C8.52487 1.92324 8.74803 2.03281 8.94364 2.18237C9.3387 2.48442 9.59758 2.93104 9.66335 3.42397L12.2827 23.0702C12.318 23.3352 12.2962 23.6047 12.2188 23.8606C12.1414 24.1164 12.0102 24.3528 11.834 24.5538C11.6577 24.7548 11.4406 24.9158 11.197 25.026C10.9534 25.1362 10.6891 25.193 10.4218 25.1927ZM18.8537 43.2949C15.2968 43.2949 12.2912 40.2893 12.2912 36.7324C12.2912 33.1755 15.2968 30.1699 18.8537 30.1699C22.4105 30.1699 25.4162 33.1755 25.4162 36.7324C25.4162 40.2893 22.4105 43.2949 18.8537 43.2949ZM18.8537 33.9199C17.3555 33.9199 16.0412 35.2343 16.0412 36.7324C16.0412 38.2305 17.3555 39.5449 18.8537 39.5449C20.3518 39.5449 21.6662 38.2305 21.6662 36.7324C21.6662 35.2343 20.3508 33.9199 18.8537 33.9199ZM36.6662 43.2949C33.1093 43.2949 30.1037 40.2893 30.1037 36.7324C30.1037 33.1755 33.1093 30.1699 36.6662 30.1699C40.223 30.1699 43.2286 33.1755 43.2286 36.7324C43.2286 40.2893 40.223 43.2949 36.6662 43.2949ZM36.6662 33.9199C35.168 33.9199 33.8537 35.2343 33.8537 36.7324C33.8537 38.2305 35.168 39.5449 36.6662 39.5449C38.1643 39.5449 39.4787 38.2305 39.4787 36.7324C39.4787 35.2343 38.1633 33.9199 36.6662 33.9199Z" fill="white"/>
<path d="M14.1322 28.4571C12.7698 28.4571 11.454 27.9618 10.4298 27.0635C9.4056 26.1653 8.74293 24.9252 8.56528 23.5746C8.53069 23.3295 8.54496 23.08 8.60727 22.8405C8.66958 22.6009 8.7787 22.3761 8.92833 22.1789C9.07796 21.9818 9.26515 21.8162 9.47909 21.6918C9.69303 21.5673 9.92949 21.4865 10.1748 21.4538C10.4202 21.4212 10.6696 21.4375 10.9086 21.5018C11.1476 21.566 11.3715 21.6769 11.5675 21.8282C11.7634 21.9794 11.9275 22.1679 12.0502 22.3828C12.1729 22.5978 12.2518 22.8349 12.2825 23.0805C12.3493 23.5573 12.5958 23.9906 12.9715 24.2918C13.3472 24.5929 13.8238 24.7391 14.3037 24.7005C14.5493 24.6773 14.7971 24.7032 15.0326 24.7766C15.2682 24.85 15.4868 24.9694 15.6758 25.128C15.8648 25.2866 16.0204 25.4811 16.1336 25.7003C16.2468 25.9195 16.3154 26.159 16.3353 26.4049C16.3787 26.9001 16.2237 27.3924 15.9042 27.7734C15.5848 28.1543 15.1271 28.3928 14.6318 28.4364C14.4656 28.4498 14.2989 28.4567 14.1322 28.4571Z" fill="white"/>
</svg>
