<svg width="42" height="10" viewBox="0 0 42 10" fill="none" xmlns="http://www.w3.org/2000/svg">
<path fill-rule="evenodd" clip-rule="evenodd" d="M37.5838 5.03573C33.0803 8.27934 26.5372 10.0012 20.9112 10.0012C13.0266 10.0012 5.92221 7.15809 0.556296 2.43284C0.131951 2.05909 0.515231 1.55186 1.02171 1.84552C6.82565 5.12917 13.9848 7.11805 21.3903 7.11805C26.3866 7.11805 31.8757 6.10358 36.9268 4.02127C37.6796 3.68757 38.323 4.5018 37.5838 5.03573Z" fill="#FF9900"/>
<path fill-rule="evenodd" clip-rule="evenodd" d="M39.4577 2.9528C38.8828 2.232 35.6523 2.60575 34.1876 2.77928C33.7496 2.83267 33.6811 2.45892 34.0781 2.17861C36.6515 0.416651 40.8813 0.923881 41.3741 1.5112C41.8669 2.11187 41.2372 6.23645 38.828 8.21198C38.4584 8.51899 38.1025 8.35881 38.2668 7.95836C38.8143 6.6369 40.0326 3.66026 39.4577 2.9528Z" fill="#FF9900"/>
</svg>
