<svg width="34" height="47" viewBox="0 0 34 47" fill="none" xmlns="http://www.w3.org/2000/svg">
<path d="M34 17.8173C34 8.34562 26.3738 0.639654 16.9999 0.639654C7.62606 0.639654 0 8.34562 0 17.8173C0 23.6259 2.93495 29.0548 7.72023 32.212V37.6237C7.72023 42.7938 11.883 47 16.9997 47C22.1165 47 26.2792 42.7937 26.2792 37.6237V34.5841L26.2791 32.2122C31.0649 29.0549 34 23.6261 34 17.8173ZM23.0022 37.6238C23.0022 40.968 20.3096 43.6887 16.9999 43.6887C13.6903 43.6887 10.9977 40.9679 10.9977 37.6238V36.2397H23.0022V37.6238ZM23.8246 29.8501C23.5746 29.9952 23.367 30.2043 23.2226 30.4564C23.0782 30.7085 23.0022 30.9946 23.0022 31.2859V32.9284H18.6384V24.3665C20.7661 23.6671 22.3088 21.6451 22.3088 19.2648C22.3088 18.3504 21.5751 17.6091 20.6702 17.6091C19.7653 17.6091 19.0316 18.3504 19.0316 19.2648C19.0316 20.3967 18.1202 21.3178 16.9999 21.3178C15.8797 21.3178 14.9682 20.3969 14.9682 19.2648C14.9682 18.3504 14.2345 17.6091 13.3296 17.6091C12.4247 17.6091 11.691 18.3504 11.691 19.2648C11.691 21.6449 13.2336 23.6671 15.3613 24.3665V32.9284H10.9979V31.2858C10.9979 30.6929 10.6843 30.1454 10.1755 29.8501C5.92056 27.3801 3.27743 22.7694 3.27743 17.8173C3.27743 10.1715 9.43342 3.95112 17.0003 3.95112C24.5671 3.95112 30.7231 10.1714 30.7231 17.8173C30.7229 22.7695 28.0796 27.3803 23.8246 29.8501Z" fill="white"/>
</svg>
