<svg width="226" height="46" viewBox="0 0 226 46" fill="none" xmlns="http://www.w3.org/2000/svg">
<path d="M7.26951 37.0761C7.26951 37.788 7.14298 38.3927 6.88609 38.8979C6.62921 39.4031 6.26108 39.7897 5.78181 40.0614C5.30255 40.3332 4.73512 40.471 4.07948 40.471C3.18996 40.471 2.49602 40.2183 2.00525 39.717C1.51064 39.2118 1.26519 38.4654 1.26519 37.4665V32.6326H0V37.5928C0 38.4922 0.164785 39.2424 0.490687 39.8318C0.816589 40.425 1.27672 40.869 1.87101 41.1637C2.4653 41.4622 3.15926 41.6077 3.95292 41.6077C4.78493 41.6077 5.50965 41.4163 6.13462 41.0298C6.60622 40.7389 6.98194 40.3638 7.26567 39.9007V40.9838C7.26567 42.1435 7.00878 43.0008 6.49884 43.552C5.9889 44.1031 5.19141 44.3787 4.11402 44.3787C3.43921 44.3787 2.80266 44.2639 2.20837 44.0304C1.61408 43.8007 1.11568 43.4869 0.713097 43.0965L0.0728261 44.0572C0.536757 44.5203 1.13102 44.8762 1.86334 45.125C2.59182 45.3738 3.36249 45.5001 4.16766 45.5001C5.60546 45.5001 6.69052 45.125 7.42667 44.371C8.16283 43.617 8.53095 42.4344 8.53095 40.8231V32.6287H7.26567V37.0761H7.26951Z" fill="white"/>
<path d="M25.4631 33.1456C24.7462 32.7437 23.9218 32.5408 22.9978 32.5408C22.0815 32.5408 21.2686 32.7437 20.5593 33.1456C19.8461 33.5474 19.2825 34.1062 18.8684 34.8181C18.4543 35.53 18.2434 36.3529 18.2434 37.2906C18.2434 38.2168 18.4505 39.0359 18.8684 39.7516C19.2825 40.4673 19.8499 41.0299 20.5669 41.4394C21.2839 41.8489 22.0968 42.0518 22.9978 42.0518C23.9103 42.0518 24.7308 41.8489 25.4555 41.4394C26.1801 41.0299 26.7475 40.4673 27.1578 39.7516C27.568 39.0359 27.7713 38.213 27.7713 37.2906C27.7713 36.3529 27.5642 35.53 27.1578 34.8181C26.7437 34.1062 26.1801 33.5474 25.4631 33.1456ZM26.0344 39.2004C25.7315 39.7516 25.3174 40.1764 24.796 40.4788C24.2746 40.7811 23.6726 40.9304 22.9978 40.9304C22.346 40.9304 21.7555 40.7811 21.2341 40.4788C20.7126 40.1764 20.2947 39.7516 19.988 39.2004C19.6812 38.6493 19.5241 38.014 19.5241 37.2906C19.5241 36.5557 19.6774 35.9166 19.988 35.3693C20.2985 34.8258 20.7126 34.4009 21.2341 34.0986C21.7555 33.7962 22.3498 33.6469 23.0169 33.6469C23.6802 33.6469 24.2746 33.7962 24.796 34.0986C25.3174 34.4009 25.7315 34.8258 26.0344 35.3693C26.3373 35.9127 26.4868 36.5557 26.4868 37.2906C26.4868 38.0101 26.3373 38.6493 26.0344 39.2004Z" fill="white"/>
<path d="M44.6527 37.5182C44.6527 38.2301 44.5262 38.8386 44.2693 39.3477C44.0124 39.8567 43.6443 40.2471 43.165 40.5112C42.6858 40.7791 42.1183 40.913 41.4627 40.913C40.5732 40.913 39.8792 40.6605 39.3885 40.1591C38.8939 39.6539 38.6484 38.9037 38.6484 37.9086V32.6307H37.3832V38.054C37.3832 38.942 37.548 39.6845 37.8739 40.2777C38.1998 40.871 38.6599 41.3149 39.2542 41.6096C39.8485 41.9043 40.5425 42.0536 41.3361 42.0536C42.1681 42.0536 42.8929 41.8622 43.5178 41.4757C44.0201 41.1657 44.4111 40.7523 44.7025 40.2433V41.9656H45.9142V32.6345H44.6489V37.5182H44.6527Z" fill="white"/>
<path d="M57.7766 34.4543V32.6286H56.565V41.9597H57.8302V37.1947C57.8302 36.0924 58.1101 35.2427 58.6661 34.6418C59.2258 34.0448 59.9965 33.7424 60.9819 33.7424C61.0279 33.7424 61.0778 33.7462 61.1238 33.75C61.1698 33.7577 61.2196 33.7577 61.2656 33.7577V32.5291C60.3531 32.5291 59.5863 32.7167 58.969 33.0879C58.436 33.4247 58.045 33.8802 57.7766 34.4543Z" fill="white"/>
<path d="M83.8886 32.6287H82.6224V41.9598H83.8886V32.6287Z" fill="white"/>
<path d="M83.2622 29.0584C83.0245 29.0584 82.8214 29.1388 82.6566 29.2995C82.4917 29.4603 82.4072 29.6631 82.4072 29.9119C82.4072 30.1492 82.4917 30.3521 82.6566 30.5166C82.8214 30.6812 83.0245 30.7654 83.2622 30.7654C83.4999 30.7654 83.6993 30.6812 83.868 30.5166C84.0329 30.3521 84.1172 30.1492 84.1172 29.9119C84.1172 29.6631 84.0329 29.4603 83.868 29.2995C83.6993 29.1388 83.4999 29.0584 83.2622 29.0584Z" fill="white"/>
<path d="M97.3104 40.9671C96.789 40.9671 96.3903 40.8178 96.118 40.5231C95.8458 40.2284 95.7079 39.8074 95.7079 39.2601V33.6798H98.5411V32.6311H95.7079V30.5682H94.4425V39.3328C94.4425 40.1978 94.6801 40.8676 95.1556 41.3422C95.631 41.8167 96.3058 42.0541 97.1838 42.0541C97.5404 42.0541 97.897 42.0005 98.2536 41.8933C98.6102 41.7861 98.9055 41.6216 99.1432 41.3957L98.6984 40.4887C98.3342 40.8063 97.8702 40.9671 97.3104 40.9671Z" fill="white"/>
<path d="M126.618 32.3273C125.993 32.0556 125.245 31.9178 124.364 31.9178H120.464V41.9607H121.745V38.8491H124.364C125.242 38.8491 125.993 38.7113 126.618 38.4396C127.243 38.1678 127.726 37.7698 128.071 37.2493C128.416 36.7288 128.589 36.1049 128.589 35.3815C128.589 34.6467 128.416 34.0228 128.071 33.5061C127.722 32.9971 127.239 32.6029 126.618 32.3273ZM126.538 37.1536C126.028 37.5746 125.284 37.7851 124.31 37.7851H121.745V32.9856H124.31C125.284 32.9856 126.024 33.1923 126.538 33.6095C127.047 34.0228 127.304 34.6161 127.304 35.3854C127.3 36.1432 127.047 36.7364 126.538 37.1536Z" fill="white"/>
<path d="M141.744 32.5408C141.008 32.5408 140.306 32.6518 139.643 32.87C138.98 33.0882 138.409 33.402 137.933 33.8039L138.504 34.7454C138.884 34.4124 139.348 34.1483 139.892 33.9455C140.437 33.7426 141.016 33.6431 141.622 33.6431C142.5 33.6431 143.163 33.8575 143.608 34.2823C144.052 34.7071 144.275 35.3195 144.275 36.1118V36.682H141.299C140.41 36.682 139.701 36.8045 139.172 37.0456C138.642 37.2906 138.263 37.6083 138.033 38.0063C137.803 38.4043 137.684 38.8445 137.684 39.3306C137.684 39.8626 137.822 40.3333 138.094 40.7429C138.366 41.1524 138.761 41.47 139.279 41.7035C139.796 41.9332 140.402 42.0518 141.104 42.0518C141.994 42.0518 142.733 41.8681 143.32 41.5007C143.749 41.2328 144.083 40.896 144.325 40.4941V41.9638H145.536V36.1692C145.536 34.9483 145.207 34.0373 144.547 33.4403C143.891 32.8394 142.956 32.5408 141.744 32.5408ZM144.275 39.1545C144.037 39.7707 143.661 40.2415 143.144 40.5668C142.626 40.8921 142.013 41.0567 141.299 41.0567C140.552 41.0567 139.969 40.8959 139.555 40.5783C139.141 40.2568 138.93 39.8319 138.93 39.2999C138.93 38.8254 139.106 38.4273 139.455 38.1096C139.804 37.7882 140.433 37.6312 141.334 37.6312H144.271V39.1545H144.275Z" fill="white"/>
<path d="M157.311 34.4543V32.6286H156.099V41.9597H157.364V37.1947C157.364 36.0924 157.644 35.2427 158.2 34.6418C158.76 34.0448 159.531 33.7424 160.516 33.7424C160.562 33.7424 160.612 33.7462 160.658 33.75C160.704 33.7577 160.754 33.7577 160.8 33.7577V32.5291C159.887 32.5291 159.12 32.7167 158.503 33.0879C157.97 33.4247 157.579 33.8802 157.311 34.4543Z" fill="white"/>
<path d="M173 40.9671C172.479 40.9671 172.08 40.8178 171.808 40.5231C171.535 40.2284 171.397 39.8074 171.397 39.2601V33.6798H174.231V32.6311H171.397V30.5682H170.132V39.3328C170.132 40.1978 170.37 40.8676 170.845 41.3422C171.321 41.8167 171.995 42.0541 172.873 42.0541C173.23 42.0541 173.587 42.0005 173.943 41.8933C174.3 41.7861 174.595 41.6216 174.833 41.3957L174.388 40.4887C174.02 40.8063 173.56 40.9671 173 40.9671Z" fill="white"/>
<path d="M191.031 32.9772C190.456 32.6863 189.789 32.5408 189.03 32.5408C188.129 32.5408 187.351 32.7322 186.695 33.1188C186.166 33.4288 185.76 33.8421 185.464 34.3435V32.6289H184.253V41.96H185.518V37.0533C185.518 36.3414 185.652 35.7329 185.917 35.2315C186.185 34.7263 186.565 34.3435 187.056 34.0756C187.546 33.8077 188.125 33.6737 188.792 33.6737C189.682 33.6737 190.376 33.9264 190.867 34.4277C191.357 34.9329 191.607 35.6754 191.607 36.6591V41.9561H192.872V36.5328C192.872 35.6334 192.707 34.887 192.381 34.2938C192.059 33.7082 191.607 33.268 191.031 32.9772Z" fill="white"/>
<path d="M210.943 34.665C210.544 33.9952 210.015 33.4747 209.359 33.0996C208.7 32.7246 207.948 32.5408 207.105 32.5408C206.204 32.5408 205.402 32.7437 204.708 33.1532C204.014 33.5628 203.466 34.1216 203.071 34.8334C202.673 35.5453 202.473 36.3605 202.473 37.2868C202.473 38.213 202.68 39.032 203.098 39.7477C203.512 40.4635 204.091 41.0261 204.835 41.4356C205.579 41.8451 206.434 42.048 207.408 42.048C208.144 42.048 208.823 41.9178 209.448 41.6576C210.073 41.3973 210.59 41.0184 211.004 40.5209L210.291 39.7018C209.946 40.1152 209.528 40.4252 209.037 40.628C208.543 40.8309 208.006 40.9304 207.427 40.9304C206.691 40.9304 206.043 40.7773 205.487 40.4673C204.927 40.1611 204.494 39.7286 204.179 39.1698C204.061 38.9631 203.972 38.7335 203.9 38.4962L211.599 36.9997C211.556 36.1156 211.338 35.3348 210.943 34.665ZM203.723 37.5929C203.712 37.4628 203.7 37.3327 203.7 37.1987C203.7 36.4868 203.842 35.863 204.13 35.3233C204.417 34.7837 204.816 34.3665 205.33 34.068C205.847 33.7733 206.438 33.624 207.101 33.624C207.741 33.624 208.305 33.7733 208.792 34.068C209.279 34.3627 209.662 34.7569 209.942 35.2506C210.13 35.5798 210.249 35.9319 210.318 36.307L203.723 37.5929Z" fill="white"/>
<path d="M223.702 33.0994C223.169 33.4209 222.775 33.8802 222.51 34.4543V32.6286H221.298V41.9597H222.564V37.1947C222.564 36.0924 222.844 35.2427 223.4 34.6418C223.959 34.0448 224.73 33.7424 225.715 33.7424C225.761 33.7424 225.811 33.7462 225.857 33.75C225.903 33.7577 225.953 33.7577 225.999 33.7577V32.5291C225.083 32.5406 224.32 32.7281 223.702 33.0994Z" fill="white"/>
<path d="M11.3986 14.6681H11.2146L5.99248 0.748045H0.00350952V21.8406H4.08692V7.15502H4.24025L9.70773 21.8406H12.7176L18.185 7.15502H18.3384V21.8406H22.5444V0.748045H16.5862L11.3986 14.6681Z" fill="white"/>
<path d="M27.6151 21.8406H42.0468V18.2849H31.9745V12.9802H40.6052V9.42464H31.9745V4.30365H42.0468V0.748047H27.6151V21.8406Z" fill="white"/>
<path d="M44.38 4.42995H50.4916V21.8406H54.851V4.42995H60.9626V0.748047H44.38V4.42995Z" fill="white"/>
<path d="M79.527 12.0004C79.9488 11.3039 80.2172 10.5499 80.3399 9.73082C80.4626 8.91177 80.5239 8.1463 80.5239 7.43058C80.5239 6.40868 80.4472 5.48629 80.2939 4.65576C80.1405 3.82905 79.849 3.12483 79.4196 2.53924C78.9901 1.95749 78.3615 1.5135 77.5295 1.20731C76.7013 0.901122 75.6009 0.748047 74.2282 0.748047H64.1253V21.8406H68.4847V14.117H73.0282C73.1586 14.117 73.2812 14.1131 73.3963 14.1093L76.314 21.8444H80.9188L77.541 13.5352C78.4458 13.2061 79.1053 12.6932 79.527 12.0004ZM76.0725 8.98065C76.0111 9.3787 75.8578 9.69638 75.6124 9.92985C75.367 10.1671 74.9989 10.3355 74.5081 10.4389C74.0173 10.5422 73.3425 10.592 72.4798 10.592H68.4885V4.27685H72.5105C73.3694 4.27685 74.0519 4.32662 74.5542 4.42995C75.0564 4.53329 75.4206 4.69786 75.643 4.91984C75.8692 5.14566 76.0111 5.46334 76.0725 5.86904C76.1338 6.27857 76.1645 6.79907 76.1645 7.43058C76.1645 8.06592 76.1338 8.58261 76.0725 8.98065Z" fill="white"/>
<path d="M101.486 3.79534C101.187 2.96863 100.723 2.31416 100.09 1.83191C99.4535 1.35349 98.5793 1.00903 97.4636 0.806183C96.3478 0.603334 94.9293 0.5 93.2116 0.5C91.4939 0.5 90.0753 0.603334 88.9596 0.806183C87.8438 1.00903 86.9696 1.35349 86.3332 1.83191C85.6967 2.31416 85.2366 2.96481 84.9528 3.79534C84.6653 4.62205 84.4812 5.6516 84.4007 6.87635C84.3202 8.10493 84.2781 9.57465 84.2781 11.2931C84.2781 13.0078 84.3202 14.4813 84.4007 15.706C84.4812 16.9308 84.6653 17.9604 84.9528 18.7871C85.2404 19.6138 85.7005 20.2682 86.3332 20.7505C86.9696 21.2327 87.8438 21.5734 88.9596 21.7762C90.0753 21.9791 91.4939 22.0824 93.2116 22.0824C94.9293 22.0824 96.3478 21.9791 97.4636 21.7762C98.5793 21.5734 99.4535 21.2289 100.09 20.7505C100.723 20.2682 101.19 19.6176 101.486 18.7871C101.781 17.9604 101.973 16.9308 102.053 15.706C102.134 14.4813 102.176 13.0078 102.176 11.2931C102.176 9.57465 102.134 8.10493 102.053 6.87635C101.973 5.6516 101.781 4.62588 101.486 3.79534ZM97.7551 14.7875C97.7129 15.6869 97.6169 16.3911 97.4636 16.904C97.3102 17.413 97.0687 17.7805 96.7428 18.0063C96.4169 18.2321 95.9683 18.3737 95.4085 18.435C94.8449 18.4962 94.1126 18.5268 93.2116 18.5268C92.3297 18.5268 91.6089 18.4962 91.0453 18.435C90.4817 18.3737 90.0369 18.2321 89.711 18.0063C89.3851 17.7805 89.1436 17.413 88.9903 16.904C88.8369 16.395 88.741 15.6869 88.6988 14.7875C88.6566 13.8881 88.6374 12.7246 88.6374 11.2931C88.6374 9.8617 88.6566 8.69818 88.6988 7.79876C88.741 6.89933 88.8369 6.19509 88.9903 5.68605C89.1436 5.17702 89.3851 4.80576 89.711 4.57994C90.0369 4.35413 90.4855 4.21252 91.0453 4.15128C91.6089 4.09004 92.3297 4.05943 93.2116 4.05943C94.1126 4.05943 94.8449 4.09004 95.4085 4.15128C95.9721 4.21252 96.4169 4.35413 96.7428 4.57994C97.0687 4.80576 97.3102 5.17319 97.4636 5.68605C97.6169 6.19509 97.7129 6.90316 97.7551 7.79876C97.7972 8.69818 97.8165 9.86553 97.8165 11.2931C97.8165 12.7246 97.7934 13.8881 97.7551 14.7875Z" fill="white"/>
<path d="M128.769 12.717C128.689 12.3381 128.573 12.0051 128.432 11.7219C128.186 11.1707 127.868 10.742 127.481 10.4359C127.094 10.1297 126.653 9.90388 126.162 9.76226C125.671 9.62065 125.138 9.51729 124.563 9.45606L119.836 8.90492C119.18 8.82454 118.701 8.72121 118.39 8.59873C118.083 8.47626 117.888 8.25428 117.807 7.93661C117.723 7.61894 117.685 7.15583 117.685 6.54345C117.685 6.05355 117.719 5.64404 117.792 5.31489C117.865 4.98956 118.072 4.72164 118.421 4.51879C118.727 4.35422 119.165 4.2394 119.724 4.16668C120.288 4.09396 121.051 4.0595 122.013 4.0595C122.669 4.0595 123.363 4.07481 124.103 4.10543C124.839 4.13605 125.548 4.18197 126.223 4.24321C126.898 4.30445 127.492 4.37717 128.006 4.45754V1.08565C127.492 0.963172 126.86 0.859838 126.1 0.779464C125.341 0.69909 124.536 0.63019 123.674 0.580435C122.815 0.530679 121.975 0.503906 121.154 0.503906C120.027 0.503906 118.984 0.568955 118.022 0.702912C117.06 0.83687 116.224 1.11627 115.518 1.54493C114.813 1.9736 114.265 2.59746 113.877 3.41651C113.49 4.23174 113.294 5.33785 113.294 6.72718C113.294 7.60747 113.36 8.39207 113.494 9.08865C113.628 9.7814 113.87 10.3861 114.215 10.8951C114.564 11.4042 115.039 11.8137 115.641 12.1199C116.243 12.4261 117.017 12.6404 117.961 12.7629L122.688 13.3485C123.118 13.3868 123.47 13.4518 123.746 13.5322C124.022 13.6126 124.222 13.7427 124.345 13.9149C124.467 14.0872 124.555 14.3283 124.605 14.6345C124.655 14.9407 124.682 15.331 124.682 15.798C124.682 16.1463 124.67 16.4563 124.651 16.7319C124.632 17.0074 124.578 17.2447 124.498 17.4361C124.417 17.6313 124.264 17.8112 124.038 17.9719C123.75 18.1556 123.321 18.2934 122.75 18.3853C122.178 18.4771 121.369 18.523 120.322 18.523C119.809 18.523 119.195 18.5077 118.478 18.4771C117.761 18.4465 117.01 18.4006 116.22 18.3393C115.43 18.2781 114.659 18.2169 113.9 18.1556V21.6194C114.636 21.6998 115.445 21.7801 116.327 21.849C117.209 21.9217 118.114 21.9753 119.046 22.0174C119.977 22.0557 120.832 22.0787 121.611 22.0787C122.47 22.0787 123.279 22.0404 124.038 21.9715C124.797 21.9026 125.487 21.7419 126.112 21.4969C126.737 21.252 127.262 20.896 127.692 20.4253C128.121 19.9545 128.455 19.323 128.688 18.5269C128.922 17.727 129.041 16.7357 129.041 15.553C129.041 14.9828 129.014 14.4584 128.965 13.9915C128.919 13.5207 128.854 13.0959 128.769 12.717Z" fill="white"/>
<path d="M149.823 3.79534C149.524 2.96863 149.06 2.31416 148.427 1.83191C147.791 1.35349 146.917 1.00903 145.801 0.806183C144.685 0.603334 143.266 0.5 141.549 0.5C139.831 0.5 138.412 0.603334 137.297 0.806183C136.181 1.00903 135.307 1.35349 134.67 1.83191C134.034 2.31416 133.574 2.96481 133.29 3.79534C133.002 4.62205 132.818 5.6516 132.738 6.87635C132.657 8.10493 132.615 9.57465 132.615 11.2931C132.615 13.0078 132.657 14.4813 132.738 15.706C132.818 16.9308 133.002 17.9604 133.29 18.7871C133.578 19.6138 134.038 20.2682 134.67 20.7505C135.303 21.2327 136.181 21.5734 137.297 21.7762C138.412 21.9791 139.831 22.0824 141.549 22.0824C143.266 22.0824 144.685 21.9791 145.801 21.7762C146.917 21.5734 147.791 21.2289 148.427 20.7505C149.06 20.2682 149.528 19.6176 149.823 18.7871C150.118 17.9604 150.31 16.9308 150.39 15.706C150.471 14.4813 150.513 13.0078 150.513 11.2931C150.513 9.57465 150.471 8.10493 150.39 6.87635C150.31 5.6516 150.118 4.62588 149.823 3.79534ZM146.092 14.7875C146.05 15.6869 145.954 16.3911 145.801 16.904C145.648 17.413 145.406 17.7805 145.08 18.0063C144.754 18.2321 144.305 18.3737 143.746 18.435C143.182 18.4962 142.45 18.5268 141.549 18.5268C140.667 18.5268 139.946 18.4962 139.382 18.435C138.819 18.3737 138.374 18.2321 138.048 18.0063C137.722 17.7805 137.481 17.413 137.327 16.904C137.174 16.395 137.078 15.6869 137.036 14.7875C136.994 13.8881 136.975 12.7246 136.975 11.2931C136.975 9.8617 136.994 8.69818 137.036 7.79876C137.078 6.89933 137.174 6.19509 137.327 5.68605C137.481 5.17702 137.722 4.80576 138.048 4.57994C138.374 4.35413 138.823 4.21252 139.382 4.15128C139.946 4.09004 140.667 4.05943 141.549 4.05943C142.45 4.05943 143.182 4.09004 143.746 4.15128C144.309 4.21252 144.754 4.35413 145.08 4.57994C145.406 4.80576 145.648 5.17319 145.801 5.68605C145.954 6.19509 146.05 6.90316 146.092 7.79876C146.134 8.69818 146.154 9.86553 146.154 11.2931C146.154 12.7246 146.134 13.8881 146.092 14.7875Z" fill="white"/>
<path d="M159.297 0.748047H154.937V21.8406H168.142V18.1625H159.297V0.748047Z" fill="white"/>
<path d="M177.999 17.2133H177.846L172.685 0.748047H168.203L174.959 21.8406H180.733L187.489 0.748047H183.098L177.999 17.2133Z" fill="white"/>
<path d="M190.561 21.8406H204.992V18.2849H194.92V12.9802H203.551V9.42464H194.92V4.30365H204.992V0.748047H190.561V21.8406Z" fill="white"/>
<path d="M222.622 13.5314C223.523 13.2061 224.183 12.6932 224.604 12.0004C225.026 11.3039 225.295 10.5499 225.417 9.73082C225.54 8.91177 225.601 8.1463 225.601 7.43058C225.601 6.40868 225.525 5.48629 225.371 4.65576C225.218 3.82905 224.927 3.12483 224.497 2.53924C224.068 1.95749 223.439 1.5135 222.607 1.20731C221.779 0.901122 220.678 0.748047 219.306 0.748047H209.203V21.8406H213.562V14.117H218.106C218.236 14.117 218.359 14.1131 218.474 14.1093L221.395 21.8444H226L222.622 13.5314ZM221.15 8.98065C221.089 9.3787 220.935 9.69638 220.69 9.92985C220.444 10.1671 220.076 10.3355 219.586 10.4389C219.095 10.5422 218.42 10.592 217.557 10.592H213.566V4.27685H217.588C218.447 4.27685 219.129 4.32662 219.632 4.42995C220.134 4.53329 220.498 4.69786 220.72 4.91984C220.947 5.14566 221.089 5.46334 221.15 5.86904C221.211 6.27857 221.242 6.79907 221.242 7.43058C221.242 8.06592 221.211 8.58261 221.15 8.98065Z" fill="white"/>
</svg>
