<svg width="50" height="25" viewBox="0 0 50 25" fill="none" xmlns="http://www.w3.org/2000/svg">
<path fill-rule="evenodd" clip-rule="evenodd" d="M8.33031 10.8106C8.82759 10.8106 9.3045 11.0081 9.65614 11.3598C10.0078 11.7114 10.2053 12.1883 10.2053 12.6856C10.2053 13.1829 10.0078 13.6598 9.65614 14.0114C9.3045 14.3631 8.82759 14.5606 8.33031 14.5606H2.71094C2.21366 14.5606 1.73674 14.3631 1.38511 14.0114C1.03348 13.6598 0.835937 13.1829 0.835938 12.6856C0.835937 12.1883 1.03348 11.7114 1.38511 11.3598C1.73674 11.0081 2.21366 10.8106 2.71094 10.8106H8.33031ZM42.0672 14.5606C41.5699 14.5606 41.093 14.3631 40.7414 14.0114C40.3897 13.6598 40.1922 13.1829 40.1922 12.6856C40.1922 12.1883 40.3897 11.7114 40.7414 11.3598C41.093 11.0081 41.5699 10.8106 42.0672 10.8106H47.6903C48.1876 10.8106 48.6645 11.0081 49.0161 11.3598C49.3678 11.7114 49.5653 12.1883 49.5653 12.6856C49.5653 13.1829 49.3678 13.6598 49.0161 14.0114C48.6645 14.3631 48.1876 14.5606 47.6903 14.5606H42.0672ZM8.89281 3.56184C9.10604 3.68495 9.29294 3.84886 9.44283 4.04421C9.59272 4.23955 9.70266 4.4625 9.76639 4.70034C9.83011 4.93817 9.84637 5.18623 9.81423 5.43035C9.78208 5.67446 9.70218 5.90986 9.57906 6.12309C9.45595 6.33632 9.29204 6.52322 9.09669 6.67311C8.90135 6.823 8.6784 6.93294 8.44056 6.99667C8.20273 7.06039 7.95467 7.07665 7.71056 7.04451C7.46644 7.01236 7.23104 6.93245 7.01781 6.80934L2.15219 3.99871C1.93895 3.8756 1.75206 3.71169 1.60217 3.51635C1.45228 3.321 1.34233 3.09805 1.27861 2.86022C1.21489 2.62238 1.19863 2.37433 1.23077 2.13021C1.26291 1.88609 1.34282 1.6507 1.46594 1.43746C1.58905 1.22423 1.75296 1.03733 1.9483 0.887444C2.14365 0.737556 2.3666 0.62761 2.60444 0.563886C2.84227 0.500162 3.09033 0.483907 3.33444 0.516048C3.57856 0.54819 3.81395 0.628099 4.02719 0.751213L8.89281 3.56184ZM43.3834 6.80934C42.9528 7.05798 42.441 7.12536 41.9607 6.99667C41.4803 6.86797 41.0708 6.55374 40.8222 6.12309C40.5735 5.69245 40.5062 5.18067 40.6349 4.70034C40.7635 4.22001 41.0778 3.81048 41.5084 3.56184L46.3778 0.751213C46.8084 0.502573 47.3202 0.435189 47.8006 0.563886C48.2809 0.692583 48.6904 1.00682 48.9391 1.43746C49.1877 1.86811 49.2551 2.37989 49.1264 2.86022C48.9977 3.34054 48.6834 3.75007 48.2528 3.99871L43.3834 6.80934ZM7.01969 18.5618C7.44983 18.3132 7.96114 18.2456 8.44111 18.374C8.92109 18.5023 9.33042 18.8161 9.57906 19.2462C9.8277 19.6764 9.89528 20.1877 9.76694 20.6676C9.63859 21.1476 9.32483 21.557 8.89469 21.8056L4.02344 24.6181C3.59302 24.8628 3.08327 24.9274 2.60544 24.7976C2.12761 24.6679 1.72049 24.3544 1.47292 23.9257C1.22535 23.4969 1.15744 22.9876 1.28399 22.5089C1.41055 22.0302 1.7213 21.621 2.14844 21.3706L7.01969 18.5618ZM41.5084 21.8056C41.1003 21.5462 40.8082 21.1391 40.6932 20.6693C40.5781 20.1996 40.649 19.7036 40.891 19.2849C41.133 18.8662 41.5275 18.5572 41.9919 18.4225C42.4564 18.2878 42.9549 18.3377 43.3834 18.5618L48.2528 21.3725C48.6674 21.6289 48.9657 22.0368 49.0847 22.5096C49.2036 22.9823 49.1337 23.4828 48.8899 23.9049C48.646 24.327 48.2474 24.6376 47.7784 24.7707C47.3095 24.9039 46.8071 24.8491 46.3778 24.6181L41.5084 21.8056Z" fill="#FCB635"/>
</svg>
