<svg width="30" height="28" viewBox="0 0 30 28" fill="none" xmlns="http://www.w3.org/2000/svg">
<path d="M12.113 18.7772C12.2362 18.8864 12.4216 18.8886 12.5474 18.7794C15.2916 16.3991 17.7928 13.9018 20.7771 11.3822C21.0345 11.1647 21.1879 10.8609 21.2094 10.5256C21.2751 9.48407 20.0346 8.80199 19.1916 9.49941C16.6386 11.6079 14.5157 13.5205 12.5356 15.4974C12.1464 15.1086 11.626 14.5528 10.9838 13.8391C10.4867 13.2877 9.59074 13.1921 8.988 13.7878C8.73329 14.037 8.58495 14.3751 8.57408 14.7313C8.56321 15.0874 8.69066 15.434 8.9297 15.6982C10.129 17.022 10.8817 17.6822 12.113 18.7772Z" fill="#FCB635"/>
<path d="M5.6693 24.6943C9.87445 27.9622 16.2368 28.2191 20.6427 25.2273C24.4283 22.6568 26.649 17.7139 26.2475 13.1322C26.0082 6.32145 21.5825 2.08123 14.304 1.74983C12.1631 1.64813 10.0827 2.17767 8.24859 3.25515C5.18448 4.69734 2.65078 7.30337 1.50755 10.4994C-0.286208 15.5142 1.46371 21.4263 5.6693 24.6943ZM4.20738 8.62589C6.26415 4.778 9.93319 2.20616 14.2738 2.40649C21.4725 2.73438 25.6009 6.85756 25.6009 13.7191C25.6009 19.957 20.5265 25.0318 14.2887 25.0318C5.69385 25.0318 0.377463 15.7913 4.20738 8.62589Z" fill="#FCB635"/>
<path d="M23.3987 0.882744C22.9936 1.84878 22.7211 2.8652 22.5886 3.90433C22.5775 3.99089 22.6013 4.07829 22.6547 4.1473C22.7081 4.21631 22.7867 4.26129 22.8733 4.27233C22.9599 4.28338 23.0472 4.25959 23.1163 4.20619C23.1853 4.1528 23.2303 4.07418 23.2413 3.98762C23.3661 3.00731 23.6229 2.0484 24.0049 1.13699C24.0226 1.09701 24.0322 1.0539 24.0331 1.01018C24.0339 0.966452 24.026 0.922999 24.0099 0.882359C23.9937 0.841719 23.9696 0.804709 23.939 0.773496C23.9084 0.742284 23.8718 0.717495 23.8315 0.700582C23.7912 0.68367 23.7479 0.674972 23.7041 0.675C23.6604 0.675028 23.6171 0.683779 23.5768 0.700743C23.5365 0.717707 23.5 0.742541 23.4694 0.773793C23.4388 0.805044 23.4148 0.842084 23.3987 0.882744ZM27.5289 3.04077C27.5025 3.00654 27.4696 2.97786 27.4322 2.95637C27.3947 2.93488 27.3533 2.92101 27.3105 2.91555C27.2676 2.91009 27.2241 2.91316 27.1825 2.92457C27.1408 2.93598 27.1018 2.9555 27.0677 2.98203L24.8615 4.69031C24.8256 4.71607 24.7952 4.7488 24.7722 4.78656C24.7493 4.82431 24.7341 4.86631 24.7278 4.91004C24.7214 4.95377 24.7239 4.99834 24.7351 5.04108C24.7464 5.08382 24.7661 5.12385 24.7932 5.15879C24.8203 5.19373 24.8541 5.22285 24.8927 5.24441C24.9312 5.26598 24.9738 5.27954 25.0177 5.2843C25.0616 5.28906 25.1061 5.28491 25.1484 5.2721C25.1907 5.2593 25.23 5.23809 25.2639 5.20976L27.4701 3.50192C27.539 3.44855 27.584 3.36999 27.595 3.28351C27.606 3.19703 27.5822 3.10972 27.5289 3.04077ZM29.1749 6.86455C29.1616 6.82344 29.1403 6.78536 29.1122 6.75251C29.0841 6.71965 29.0498 6.69267 29.0113 6.67312C28.9728 6.65357 28.9307 6.64182 28.8876 6.63857C28.8445 6.63531 28.8012 6.6406 28.7602 6.65414C28.0203 6.89524 27.2531 7.01228 26.4698 6.99387C26.2988 7 26.1384 7.13414 26.1344 7.31606C26.1336 7.35924 26.1412 7.40216 26.1569 7.44238C26.1727 7.48261 26.1962 7.51934 26.2261 7.55048C26.256 7.58162 26.2918 7.60656 26.3313 7.62388C26.3709 7.64119 26.4135 7.65055 26.4566 7.6514C27.3074 7.66863 28.155 7.54268 28.964 7.2788C29.0468 7.25172 29.1155 7.19288 29.1549 7.11521C29.1944 7.03754 29.2019 6.94739 29.1749 6.86455Z" fill="#FCB635"/>
</svg>
