<svg width="19" height="8" viewBox="0 0 19 8" fill="none" xmlns="http://www.w3.org/2000/svg">
<path d="M9.33502 0C8.43009 0 7.69641 0.741349 7.69641 1.65573V4.56239C7.69641 5.47677 8.43009 6.21812 9.33502 6.21812C10.2399 6.21812 10.9736 5.47677 10.9736 4.56239V1.65573C10.9736 0.741349 10.2401 0 9.33502 0ZM4.72574 4.9871L3.70867 2.26802C3.3887 1.4127 2.44275 0.981429 1.5966 1.30463C0.750125 1.62795 0.323208 2.58346 0.643179 3.43877L1.66014 6.15786C1.90802 6.82045 2.53129 7.22864 3.19321 7.22864C3.39109 7.22853 3.5873 7.19214 3.77232 7.12124C4.61879 6.79792 5.04571 5.84242 4.72574 4.9871ZM17.0734 1.30463C16.2269 0.98121 15.2813 1.41281 14.9614 2.26813L13.9443 4.98721C13.6244 5.84242 14.0514 6.79792 14.8978 7.12124C15.0886 7.19408 15.2844 7.22864 15.4768 7.22864C16.1389 7.22864 16.7621 6.82045 17.0099 6.15786L18.027 3.43877C18.3469 2.58335 17.92 1.62795 17.0734 1.30463Z" fill="#FCB635"/>
</svg>
