<svg width="52" height="52" viewBox="0 0 52 52" fill="none" xmlns="http://www.w3.org/2000/svg">
<path d="M39.8071 43.8761H12.1837C5.46555 43.8761 0 38.4105 0 31.6924V15.0363C0 8.31702 5.46657 2.85045 12.1858 2.85045H21.7314C24.4261 2.95768 24.4241 6.80607 21.7314 6.9124H12.1858C7.70633 6.9124 4.06195 10.5568 4.06195 15.0363V31.6923C4.06195 36.1707 7.70541 39.8141 12.1837 39.8141H39.8071C44.2866 39.8141 47.931 36.1697 47.931 31.6902V15.0362C47.931 13.4796 47.5422 12.0194 46.8064 10.8133C46.2223 9.85568 46.525 8.60592 47.4827 8.02181C48.4402 7.43771 49.6899 7.74032 50.2741 8.69803C51.3986 10.5414 51.9929 12.7331 51.9929 15.0362V31.6902C51.9929 38.4095 46.5264 43.8761 39.8071 43.8761ZM37.7761 49.969C37.7761 48.8473 36.8669 47.9381 35.7451 47.9381H16.2478C13.5531 48.0453 13.5551 51.8937 16.2478 52H35.7451C36.8669 52 37.7761 51.0907 37.7761 49.969ZM34.0247 19.2161C34.0247 19.2161 41.6809 10.4558 41.6922 10.4421C42.7785 9.13093 43.2892 7.47518 43.1302 5.77982C42.9711 4.08457 42.1615 2.55271 40.8503 1.46634C39.5391 0.380074 37.8833 -0.130614 36.1881 0.0285126C34.4928 0.187538 32.9609 0.997185 31.881 2.30077L24.4389 11.1942C23.719 12.0544 23.8328 13.3352 24.6931 14.0551C25.5533 14.775 26.8342 14.6612 27.554 13.8009L35.0026 4.8998C35.1958 4.66531 35.4336 4.47146 35.7022 4.32947C35.9708 4.18748 36.2649 4.10017 36.5675 4.07259C37.1833 4.01521 37.7833 4.20023 38.2589 4.59434C39.2258 5.36236 39.3765 6.89137 38.5787 7.83324L30.9663 16.5431C29.8161 17.8474 30.7764 19.9222 32.4948 19.9106C33.0604 19.9106 33.6233 19.6755 34.0247 19.2161Z" fill="white"/>
<path d="M40.8204 35.7452H31.5795C30.4578 35.7452 29.5485 34.836 29.5485 33.7142C29.5485 32.5925 30.4578 31.6833 31.5795 31.6833H40.8204C41.9421 31.6833 42.8514 32.5925 42.8514 33.7142C42.8514 34.836 41.9421 35.7452 40.8204 35.7452ZM22.9396 33.2906C26.612 31.1961 28.6346 28.1713 28.6346 24.7732C28.6346 22.8393 27.9664 20.9588 26.7531 19.4782C25.3504 17.7663 23.3684 16.7081 21.1725 16.4985C18.9809 16.2889 16.8381 16.9514 15.1412 18.3633C12.8318 20.2847 12.0511 22.5948 11.2963 24.8288C10.8464 26.1602 10.3811 27.537 9.56604 29.0082C8.82788 30.3405 8.85703 31.8725 9.64586 33.2114C10.5564 34.7568 12.3323 35.7555 14.1704 35.7555C16.8719 35.7556 20.314 34.788 22.9396 33.2906ZM20.7866 20.5422C21.8966 20.6481 22.8998 21.1847 23.6112 22.0529C24.2401 22.8204 24.5726 23.7611 24.5726 24.7733C24.5726 27.1785 22.5903 28.8138 20.9274 29.7622C18.5878 31.0964 15.8478 31.6936 14.1704 31.6936C13.713 31.6936 13.3009 31.4134 13.1455 31.1495C13.0826 31.0427 13.094 31.0221 13.119 30.9769C14.1119 29.185 14.6604 27.5616 15.1444 26.1294C15.8225 24.1228 16.3124 22.6731 17.7391 21.486C18.4938 20.858 19.4214 20.5231 20.3867 20.5231C20.5194 20.5231 20.6527 20.5294 20.7866 20.5422Z" fill="#FCB635"/>
</svg>
