<svg width="52" height="52" viewBox="0 0 52 52" fill="none" xmlns="http://www.w3.org/2000/svg">
<path fill-rule="evenodd" clip-rule="evenodd" d="M30.5011 15.002C31.3547 15.001 32.2001 15.1685 32.989 15.4947C33.7778 15.821 34.4945 16.2996 35.0982 16.9032C35.7018 17.5068 36.1804 18.2236 36.5066 19.0124C36.8329 19.8012 37.0003 20.6467 36.9994 21.5003C36.9994 21.9644 37.1838 22.4096 37.512 22.7377C37.8402 23.0659 38.2853 23.2503 38.7494 23.2503C39.2135 23.2503 39.6587 23.0659 39.9869 22.7377C40.315 22.4096 40.4994 21.9644 40.4994 21.5003C40.5016 20.1867 40.2444 18.8856 39.7427 17.6716C39.241 16.4575 38.5046 15.3545 37.5758 14.4256C36.6469 13.4968 35.5439 12.7604 34.3298 12.2587C33.1158 11.757 31.8147 11.4998 30.5011 11.502C30.037 11.502 29.5918 11.6863 29.2636 12.0145C28.9355 12.3427 28.7511 12.7878 28.7511 13.252C28.7511 13.7161 28.9355 14.1612 29.2636 14.4894C29.5918 14.8176 30.037 15.002 30.5011 15.002Z" fill="#FCB635"/>
<path fill-rule="evenodd" clip-rule="evenodd" d="M28.1677 36.695C22.9344 33.4721 18.5288 29.0681 15.3041 23.836L19.4924 18.8053C19.9413 18.2654 20.2433 17.6187 20.3692 16.9279C20.4951 16.2371 20.4407 15.5256 20.2111 14.862C19.0817 11.5626 18.4471 8.2563 18.3864 4.94764C18.3729 3.87421 17.937 2.84933 17.1731 2.09506C16.4092 1.34079 15.3789 0.917884 14.3054 0.917969H5.13308C4.08864 0.91759 3.08375 1.31745 2.3251 2.0353C1.56645 2.75316 1.11171 3.73443 1.05441 4.7773L0.916748 7.33464C0.916748 31.48 20.5214 51.0846 44.6667 51.0846L47.2241 50.947C48.267 50.8897 49.2482 50.4349 49.9661 49.6763C50.6839 48.9176 51.0838 47.9127 51.0834 46.8683C51.0834 44.381 51.0834 40.3513 51.0694 37.7706C51.0682 37.2315 50.96 36.6979 50.7508 36.201C50.5417 35.7041 50.2359 35.2536 49.8512 34.8759C49.4665 34.4981 49.0106 34.2006 48.5099 34.0006C48.0093 33.8005 47.4738 33.702 46.9347 33.7106C43.6984 33.7363 40.4621 33.118 37.2281 31.8766C36.5495 31.6144 35.8132 31.5382 35.0953 31.6559C34.3774 31.7737 33.704 32.0811 33.1448 32.5463L28.1677 36.695ZM26.7117 39.908L26.7164 39.9126C27.2354 40.2237 27.8383 40.3657 28.4416 40.3188C29.0449 40.272 29.6186 40.0387 30.0834 39.6513L35.3824 35.239C35.4627 35.1723 35.5593 35.1283 35.6622 35.1115C35.7652 35.0946 35.8708 35.1056 35.9681 35.1433L35.9751 35.1456C39.6361 36.5503 43.2994 37.2386 46.9627 37.2106H46.9884C47.0641 37.2091 47.1394 37.2225 47.2098 37.2501C47.2803 37.2777 47.3446 37.319 47.3991 37.3716C47.5077 37.4798 47.569 37.6267 47.5694 37.78V37.7893C47.5834 40.3653 47.5834 44.3856 47.5834 46.8683C47.5837 47.0175 47.5267 47.1611 47.4243 47.2696C47.3218 47.3782 47.1817 47.4433 47.0327 47.4516L44.6201 47.5846C22.4534 47.559 4.45875 29.576 4.41675 7.41164L4.54975 4.96864C4.5581 4.81966 4.62323 4.67954 4.73174 4.57712C4.84024 4.47469 4.98387 4.41773 5.13308 4.41797H14.3031C14.457 4.41796 14.6047 4.47878 14.7139 4.58717C14.8232 4.69556 14.8852 4.84274 14.8864 4.99664V5.01297C14.9541 8.6763 15.6494 12.3373 16.9001 16.0006L16.9024 16.0076C16.9355 16.1018 16.9434 16.2031 16.9254 16.3013C16.9074 16.3995 16.8641 16.4913 16.7997 16.5676L16.7974 16.57C15.5771 18.0423 13.3581 20.7046 12.3477 21.9156C11.9598 22.3806 11.7262 22.9548 11.6794 23.5586C11.6325 24.1624 11.7748 24.7657 12.0864 25.285L12.0911 25.292C15.6982 31.2846 20.718 36.3027 26.7117 39.908Z" fill="white"/>
<path fill-rule="evenodd" clip-rule="evenodd" d="M30.7584 6.5002C32.6959 6.49226 34.6156 6.86936 36.4061 7.60959C38.1966 8.34982 39.8222 9.43844 41.1884 10.8122C42.5622 12.1784 43.6508 13.804 44.391 15.5945C45.1313 17.385 45.5084 19.3047 45.5004 21.2422C45.4983 21.7063 45.6806 22.1523 46.0072 22.482C46.3339 22.8118 46.7781 22.9982 47.2423 23.0004C47.7064 23.0025 48.1524 22.8202 48.4821 22.4936C48.8118 22.1669 48.9983 21.7227 49.0004 21.2585C49.0118 18.8586 48.5456 16.4804 47.6291 14.2623C46.7126 12.0443 45.3639 10.0307 43.6618 8.33887C41.9699 6.63669 39.9563 5.28807 37.7383 4.37153C35.5202 3.45499 33.142 2.98883 30.7421 3.0002C30.278 3.00237 29.8337 3.18882 29.5071 3.51854C29.1804 3.84826 28.9981 4.29424 29.0003 4.75837C29.0024 5.2225 29.1889 5.66676 29.5186 5.99341C29.8483 6.32007 30.2943 6.50237 30.7584 6.5002Z" fill="#FCB635"/>
</svg>
