<svg width="52" height="52" viewBox="0 0 52 52" fill="none" xmlns="http://www.w3.org/2000/svg">
<path fill-rule="evenodd" clip-rule="evenodd" d="M17.1456 8.32066C16.6912 8.73344 16.2096 9.90461 16.8208 12.3445L16.824 12.3605C17.576 15.4868 19.8447 19.6003 23.3582 23.549C26.9021 27.5041 30.718 30.216 33.7163 31.2928L33.7339 31.2992L33.7515 31.3056C35.8826 32.1184 37.0682 31.928 37.6106 31.6L37.7914 31.44C38.057 31.2032 38.3306 30.7456 38.3898 29.8384C38.449 28.9201 38.2714 27.6945 37.7754 26.2129C36.7882 23.2578 34.6651 19.6627 31.5772 16.2164C28.4861 12.7685 25.155 10.255 22.3342 8.93664C20.9199 8.27746 19.7231 7.96067 18.8047 7.91267C17.904 7.86787 17.416 8.08386 17.1456 8.32066ZM24.0254 5.31274C27.4445 6.9095 31.1932 9.79581 34.5563 13.5477C37.921 17.3012 40.3705 21.3603 41.5689 24.9442C42.1673 26.7329 42.4856 28.4977 42.3817 30.096C42.2985 31.392 41.9257 32.6703 41.1193 33.7119V33.8543L40.4553 34.4495C38.2826 36.4014 35.1211 36.1054 32.3435 35.0511C28.5213 33.6719 24.187 30.4672 20.3759 26.2161L20.3727 26.2113C16.584 21.9523 13.8929 17.2692 12.9377 13.3061C12.2177 10.4214 12.3217 7.27589 14.4769 5.34154L14.4849 5.33354C15.7632 4.19757 17.3968 3.83758 19.0079 3.91918C20.6063 3.99918 22.3198 4.51756 24.0254 5.31274Z" fill="white"/>
<path fill-rule="evenodd" clip-rule="evenodd" d="M24.5763 36.0631C25.0825 35.9048 25.6309 35.9542 26.1007 36.2002C26.5706 36.4462 26.9235 36.8688 27.0818 37.3751L28.4945 41.8773C29.5985 45.3812 27.629 49.1731 24.1219 50.2803L19.6148 51.693C16.1109 52.797 12.319 50.8275 11.2134 47.3204L9.79907 42.8101C9.71469 42.558 9.68143 42.2916 9.70121 42.0265C9.721 41.7614 9.79344 41.5029 9.9143 41.2661C10.0352 41.0293 10.202 40.819 10.4051 40.6475C10.6082 40.4759 10.8435 40.3466 11.0971 40.2671C11.3508 40.1875 11.6178 40.1593 11.8824 40.1841C12.1471 40.209 12.4042 40.2863 12.6386 40.4117C12.8731 40.537 13.0802 40.7079 13.2478 40.9142C13.4154 41.1205 13.5403 41.3582 13.615 41.6133L15.0277 46.1172C15.25 46.7949 15.7288 47.3586 16.3616 47.6876C16.9944 48.0165 17.7309 48.0846 18.4132 47.8772L22.9187 46.4644C23.596 46.2421 24.1595 45.7636 24.4884 45.1312C24.8173 44.4987 24.8856 43.7627 24.6787 43.0805L23.2659 38.5702C23.1075 38.0644 23.1564 37.5164 23.4018 37.0466C23.6472 36.5768 24.069 36.2237 24.5747 36.0647L24.5763 36.0631ZM49.1132 3.05764C49.3 3.24231 49.4486 3.46197 49.5505 3.70408C49.6524 3.94619 49.7057 4.20601 49.7071 4.46869C49.7086 4.73137 49.6583 4.99177 49.5592 5.23502C49.46 5.47827 49.3139 5.6996 49.1292 5.88636L46.782 8.25909C46.5973 8.44588 46.3777 8.59446 46.1356 8.69636C45.8935 8.79825 45.6337 8.85146 45.371 8.85294C44.8405 8.85594 44.3305 8.64808 43.9533 8.27509C43.5761 7.9021 43.3625 7.39454 43.3595 6.86405C43.3565 6.33356 43.5643 5.82361 43.9373 5.44638L46.2844 3.07364C46.4691 2.88682 46.6888 2.73821 46.9309 2.6363C47.173 2.53438 47.4328 2.48116 47.6955 2.47967C47.9582 2.47819 48.2186 2.52847 48.4618 2.62764C48.7051 2.72681 48.9264 2.87292 49.1132 3.05764ZM36.4287 0.179328C36.6679 0.288106 36.8833 0.44294 37.0625 0.634983C37.2418 0.827026 37.3815 1.05251 37.4737 1.29857C37.5658 1.54462 37.6085 1.8064 37.5994 2.06898C37.5903 2.33155 37.5296 2.58976 37.4207 2.82885L36.3263 5.22878C36.2197 5.47124 36.0661 5.6901 35.8742 5.87268C35.6823 6.05526 35.4561 6.19792 35.2087 6.29237C34.9613 6.38682 34.6975 6.43118 34.4328 6.42288C34.1681 6.41458 33.9077 6.35379 33.6666 6.24403C33.4256 6.13426 33.2088 5.97772 33.0287 5.78348C32.8487 5.58924 32.709 5.36118 32.6178 5.11252C32.5266 4.86387 32.4857 4.59958 32.4975 4.335C32.5093 4.07041 32.5735 3.8108 32.6864 3.57123L33.7808 1.1713C34.0005 0.688712 34.4028 0.313122 34.8994 0.127106C35.3959 -0.0589103 35.946 -0.0401266 36.4287 0.179328ZM51.7627 15.4557C51.8867 15.6872 51.9638 15.9409 51.9897 16.2023C52.0156 16.4636 51.9898 16.7275 51.9138 16.9789C51.8377 17.2303 51.7129 17.4642 51.5464 17.6674C51.3799 17.8705 51.1751 18.0388 50.9435 18.1628L48.7036 19.3628C48.236 19.6131 47.688 19.6675 47.1804 19.5138C46.6727 19.3602 46.2468 19.0112 45.9965 18.5436C45.7461 18.076 45.6918 17.5281 45.8454 17.0204C45.999 16.5127 46.348 16.0868 46.8156 15.8365L49.0556 14.6365C49.2871 14.5125 49.5408 14.4354 49.8022 14.4095C50.0635 14.3836 50.3274 14.4094 50.5788 14.4854C50.8302 14.5615 51.0641 14.6863 51.2672 14.8528C51.4704 15.0193 51.6387 15.2241 51.7627 15.4557Z" fill="#FCB635"/>
<path fill-rule="evenodd" clip-rule="evenodd" d="M15.7766 6.28166C16.7846 6.73285 17.2374 7.91361 16.7862 8.92318L4.28093 36.9496L4.27933 36.9528C3.23936 39.2727 5.4473 41.799 7.93522 41.0263L7.93842 41.0247L37.2112 31.7737C37.4616 31.6946 37.7252 31.6656 37.9869 31.6884C38.2485 31.7111 38.5031 31.7852 38.7362 31.9064C38.9692 32.0275 39.1761 32.1934 39.345 32.3945C39.514 32.5956 39.6416 32.828 39.7207 33.0785C39.7998 33.3289 39.8288 33.5925 39.8061 33.8542C39.7833 34.1158 39.7092 34.3705 39.5881 34.6035C39.4669 34.8365 39.301 35.0434 39.0999 35.2123C38.8988 35.3813 38.6664 35.5089 38.416 35.588L9.13679 44.8406L9.12879 44.8438C3.40735 46.6261 -1.8469 40.8375 0.628234 35.3176L13.1335 7.29283C13.2405 7.05299 13.3938 6.83657 13.5844 6.65595C13.7751 6.47533 13.9995 6.33404 14.2448 6.24014C14.4901 6.14624 14.7515 6.10158 15.014 6.10871C15.2766 6.11583 15.5368 6.1746 15.7766 6.28166Z" fill="white"/>
</svg>
