<svg width="22" height="16" viewBox="0 0 22 16" fill="none" xmlns="http://www.w3.org/2000/svg">
<path d="M9.52734 5.96484V9.91324L12.9942 7.93904L9.52734 5.96484Z" fill="white"/>
<path d="M21.5456 2.75705C21.2484 1.63801 20.3722 0.75698 19.2594 0.457703C17.6095 0.0129336 11.6717 0 11 0C10.3283 0 4.39055 0.0128906 2.74098 0.457531C1.62779 0.757023 0.751609 1.63801 0.454523 2.75653C0.00519923 4.44391 0 7.79668 0 7.93848C0 8.08027 0.00519923 11.433 0.454352 13.1199C0.751609 14.2389 1.62779 15.12 2.74059 15.4192C4.39055 15.864 10.3283 15.877 11 15.877C11.6717 15.877 17.6095 15.8641 19.259 15.4194C20.3722 15.1199 21.2484 14.2389 21.5455 13.1204C21.9948 11.433 22 8.08027 22 7.93848C22 7.79668 21.9948 4.44391 21.5456 2.75705ZM8.23642 12.1302V3.7467L15.5975 7.93869L8.23642 12.1302Z" fill="white"/>
</svg>
