<svg width="22" height="22" viewBox="0 0 22 22" fill="none" xmlns="http://www.w3.org/2000/svg">
<path d="M17.3957 4.07031C17.1012 4.07031 16.8616 4.30995 16.8616 4.60441C16.8616 4.89888 17.1012 5.13852 17.3957 5.13852C17.6902 5.13852 17.9298 4.89892 17.9298 4.60441C17.9298 4.30991 17.6902 4.07031 17.3957 4.07031ZM11.0006 6.26451C8.38974 6.26451 6.26562 8.38863 6.26562 10.9995C6.26562 13.6104 8.38974 15.7345 11.0006 15.7345C13.6115 15.7345 15.7356 13.6104 15.7356 10.9995C15.7356 8.38867 13.6115 6.26451 11.0006 6.26451Z" fill="white"/>
<path d="M15.969 0H6.03096C2.70548 0 0 2.70548 0 6.03101V15.969C0 19.2946 2.70548 22 6.03096 22H15.969C19.2946 22 22 19.2945 22 15.969V6.03101C22 2.70548 19.2946 0 15.969 0ZM11 17.0342C7.67271 17.0342 4.96586 14.3273 4.96586 11C4.96586 7.67271 7.67276 4.9659 11 4.9659C14.3272 4.9659 17.0342 7.67276 17.0342 11C17.0342 14.3272 14.3272 17.0342 11 17.0342ZM17.3951 6.43827C16.3842 6.43827 15.5618 5.61584 15.5618 4.60496C15.5618 3.59408 16.3842 2.77161 17.3951 2.77161C18.406 2.77161 19.2284 3.59404 19.2284 4.60492C19.2284 5.6158 18.406 6.43827 17.3951 6.43827Z" fill="white"/>
</svg>
