<svg width="20" height="9" viewBox="0 0 20 9" fill="none" xmlns="http://www.w3.org/2000/svg">
<path d="M10.189 0.328125C9.20935 0.328125 8.41505 1.12242 8.41505 2.10211V5.21637C8.41505 6.19605 9.20935 6.99035 10.189 6.99035C11.1687 6.99035 11.963 6.19605 11.963 5.21637V2.10211C11.963 1.12242 11.1688 0.328125 10.189 0.328125ZM5.19896 5.6714L4.09787 2.75812C3.75146 1.84172 2.72736 1.37965 1.81131 1.72594C0.8949 2.07234 0.432712 3.09609 0.779118 4.0125L1.88009 6.92578C2.14845 7.6357 2.82322 8.07304 3.53982 8.07304C3.75405 8.07293 3.96647 8.03394 4.16677 7.95797C5.08318 7.61156 5.54537 6.58781 5.19896 5.6714ZM18.5668 1.72594C17.6503 1.37941 16.6266 1.84184 16.2802 2.75824L15.1791 5.67152C14.8328 6.58781 15.295 7.61156 16.2114 7.95797C16.4179 8.03601 16.6299 8.07304 16.8383 8.07304C17.555 8.07304 18.2297 7.6357 18.498 6.92578L19.5991 4.0125C19.9455 3.09598 19.4833 2.07234 18.5668 1.72594Z" fill="#FCB635"/>
</svg>
