<svg width="53" height="38" viewBox="0 0 53 38" fill="none" xmlns="http://www.w3.org/2000/svg">
<path fill-rule="evenodd" clip-rule="evenodd" d="M52.3355 22.6787C52.3355 23.1414 52.1517 23.5851 51.8246 23.9123C51.4974 24.2394 51.0537 24.4232 50.591 24.4232C50.1283 24.4232 49.6846 24.2394 49.3574 23.9123C49.0303 23.5851 48.8465 23.1414 48.8465 22.6787V8.72259C48.8465 7.33456 48.2951 6.00339 47.3136 5.02191C46.3321 4.04042 45.001 3.48903 43.6129 3.48903H8.72259C7.33456 3.48903 6.00339 4.04042 5.02191 5.02191C4.04043 6.00339 3.48903 7.33456 3.48903 8.72259V28.4938C3.48903 29.8818 4.04043 31.213 5.02191 32.1945C6.00339 33.1759 7.33456 33.7273 8.72259 33.7273H16.8637C17.3263 33.7273 17.7701 33.9111 18.0972 34.2383C18.4244 34.5655 18.6082 35.0092 18.6082 35.4718C18.6082 35.9345 18.4244 36.3782 18.0972 36.7054C17.7701 37.0326 17.3263 37.2164 16.8637 37.2164H8.72259C6.40921 37.2164 4.19059 36.2974 2.55479 34.6616C0.918984 33.0258 0 30.8072 0 28.4938V8.72259C0 6.40921 0.918984 4.19059 2.55479 2.55479C4.19059 0.918984 6.40921 0 8.72259 0H43.6129C45.9263 0 48.1449 0.918984 49.7807 2.55479C51.4165 4.19059 52.3355 6.40921 52.3355 8.72259V22.6787Z" fill="white"/>
<path fill-rule="evenodd" clip-rule="evenodd" d="M33.6213 21.0674L24.159 27.0895C23.7191 27.3676 23.2127 27.5227 22.6925 27.5387C22.1723 27.5547 21.6573 27.431 21.2011 27.1805C20.7449 26.93 20.3642 26.5617 20.0985 26.1142C19.8329 25.6666 19.6921 25.156 19.6908 24.6355V12.5914C19.6906 12.0703 19.8305 11.5588 20.0958 11.1103C20.361 10.6618 20.7419 10.2929 21.1987 10.0421C21.6554 9.79124 22.1711 9.66776 22.6919 9.68454C23.2127 9.70132 23.7194 9.85774 24.159 10.1374L33.6213 16.1595C34.0339 16.4224 34.3735 16.7851 34.6088 17.214C34.844 17.6429 34.9674 18.1243 34.9674 18.6135C34.9674 19.1027 34.844 19.584 34.6088 20.0129C34.3735 20.4418 34.0339 20.8045 33.6213 21.0674ZM23.1798 13.6497V23.5772L30.9789 18.6135L23.1798 13.6497Z" fill="white"/>
</svg>
