<svg width="20" height="20" viewBox="0 0 20 20" fill="none" xmlns="http://www.w3.org/2000/svg">
<path d="M19.2336 3.72836C18.4662 2.67238 17.1223 1.71926 15.4494 1.04465C13.7855 0.373714 11.8537 0.00269912 10.0096 4.28762e-05C8.1653 -0.0045665 6.23104 0.362621 4.5648 1.02836C2.88902 1.69793 1.54187 2.64692 0.771673 3.70039C0.0319081 4.71223 -0.181295 5.80281 0.155072 6.85426C0.373275 7.53637 1.0098 7.99531 1.73937 7.99637L4.23745 7.99871H4.23995C4.73808 7.99867 5.20608 7.78062 5.52413 7.40019C5.83882 7.02383 5.96917 6.53195 5.88179 6.05062C5.87922 6.03648 5.87614 6.02244 5.87257 6.00851L5.74112 5.4975C6.46901 5.1502 8.11823 4.47918 10.0019 4.48984C11.8841 4.49949 13.5322 5.17012 14.261 5.51758L14.1274 6.0257C14.1237 6.04006 14.1204 6.05455 14.1177 6.06914C14.029 6.55019 14.1579 7.04242 14.4715 7.41969C14.789 7.80172 15.2574 8.02117 15.7568 8.02191L18.2549 8.02426H18.2574C18.9855 8.02422 19.6222 7.56738 19.8421 6.88672C20.1816 5.83551 19.9712 4.74336 19.2336 3.72836ZM18.7062 6.51976C18.6471 6.70289 18.4626 6.83062 18.2569 6.83062H18.2562L15.7581 6.82828C15.6142 6.82808 15.4798 6.76555 15.3894 6.65668C15.3402 6.5975 15.2634 6.47441 15.2885 6.30324L15.5371 5.35781C15.5702 5.23174 15.5611 5.0983 15.5113 4.97786C15.4614 4.85741 15.3735 4.7566 15.261 4.69082C15.1646 4.63449 12.8676 3.31082 10.008 3.2961C9.99206 3.29602 9.97663 3.29598 9.96077 3.29598C7.11948 3.29598 4.83886 4.61387 4.74265 4.67027C4.63079 4.73586 4.54334 4.8361 4.49353 4.95581C4.44371 5.07553 4.43425 5.20821 4.46655 5.33379L4.71015 6.28074C4.73503 6.45226 4.6578 6.57535 4.60839 6.63449C4.5178 6.74285 4.38351 6.80496 4.2396 6.80496H4.2389L1.74077 6.80262C1.53519 6.8023 1.35062 6.67394 1.29195 6.49043C1.07351 5.80758 1.22265 5.10582 1.73523 4.40473C3.09683 2.54238 6.56558 1.19352 9.98921 1.19352H10.0079C13.4349 1.19844 16.9089 2.55957 18.2681 4.42996C18.7794 5.13375 18.9269 5.83684 18.7062 6.51976Z" fill="white"/>
<path d="M15.6471 10.5749L13.7841 8.61883C13.7284 8.56031 13.6613 8.51372 13.5871 8.48188C13.5128 8.45005 13.4328 8.43363 13.352 8.43363H12.1481V7.62023C12.1481 7.29062 11.8809 7.02344 11.5513 7.02344C11.2217 7.02344 10.9545 7.29062 10.9545 7.62023V8.43363H9.04347V7.62023C9.04347 7.29062 8.77628 7.02344 8.44667 7.02344C8.11706 7.02344 7.84988 7.29062 7.84988 7.62023V8.43363H6.64601C6.56519 8.43364 6.48522 8.45005 6.41093 8.48189C6.33665 8.51372 6.26961 8.56031 6.21386 8.61883L4.35097 10.5749C2.89035 12.1086 2.08594 14.1196 2.08594 16.2375V18.6926C2.08594 19.0223 2.35312 19.2894 2.68273 19.2894H17.3152C17.6448 19.2894 17.912 19.0223 17.912 18.6926V16.2375C17.9121 14.1195 17.1077 12.1086 15.6471 10.5749ZM3.27953 18.0959V16.2375C3.27953 14.4274 3.96699 12.7088 5.21535 11.398L6.90183 9.62715H13.0962L14.7827 11.398C16.031 12.7087 16.7184 14.4274 16.7184 16.2375V18.0959H3.27953Z" fill="white"/>
<path d="M9.9984 10.8594C8.27613 10.8594 6.875 12.2605 6.875 13.9828C6.875 15.705 8.27617 17.1062 9.9984 17.1062C11.7206 17.1062 13.1218 15.705 13.1218 13.9828C13.1218 12.2605 11.7207 10.8594 9.9984 10.8594ZM9.9984 15.9126C8.93426 15.9126 8.06859 15.0469 8.06859 13.9827C8.06859 12.9186 8.9343 12.0529 9.9984 12.0529C11.0625 12.0529 11.9282 12.9186 11.9282 13.9827C11.9282 15.0469 11.0625 15.9126 9.9984 15.9126Z" fill="white"/>
</svg>
