<svg width="22" height="19" viewBox="0 0 22 19" fill="none" xmlns="http://www.w3.org/2000/svg">
<path d="M10.083 15.416C10.6797 15.416 11.1658 15.9024 11.166 16.499C11.166 17.0959 10.6798 17.583 10.083 17.583C9.48617 17.583 9 17.0959 9 16.499C9.00022 15.9024 9.48631 15.416 10.083 15.416ZM16.499 15.416C17.0957 15.416 17.5828 15.9024 17.583 16.499C17.583 17.0959 17.0959 17.583 16.499 17.583C15.9024 17.5828 15.416 17.0957 15.416 16.499C15.4162 15.9025 15.9025 15.4162 16.499 15.416ZM0.916992 0.75H3.09961C3.96411 0.75 4.71674 1.31811 4.94336 2.10449L4.94434 2.10938L5.46582 3.87891L5.625 4.41699H20.2051C20.5415 4.41699 20.8594 4.5776 21.0527 4.83984L21.0547 4.84375C21.1476 4.96838 21.2103 5.11334 21.2363 5.2666C21.2623 5.41958 21.2515 5.57655 21.2051 5.72461L19.3203 11.709C19.1907 12.0872 18.945 12.4149 18.6191 12.6465C18.2933 12.878 17.9027 13.002 17.5029 13H9.25488C8.39009 12.9998 7.6375 12.4307 7.41113 11.6445L7.41016 11.6396L4.62305 2.19727C4.42195 1.50971 3.77867 1.08301 3.09961 1.08301H0.916992C0.872798 1.08301 0.830079 1.06543 0.798828 1.03418C0.767744 1.00303 0.750094 0.960996 0.75 0.916992C0.75 0.872798 0.767578 0.830078 0.798828 0.798828C0.830079 0.767578 0.872798 0.75 0.916992 0.75ZM20.2061 6.25H20.2158V4.75H20.2061V6.25Z" stroke="white" stroke-width="1.5"/>
</svg>
