<svg width="58" height="58" viewBox="0 0 58 58" fill="none" xmlns="http://www.w3.org/2000/svg">
<path d="M25.2974 0.884966C18.8232 0.890589 12.6156 3.46396 8.0364 8.04055C3.45715 12.6171 0.880174 18.8232 0.870793 25.2974C0.880174 31.7715 3.45715 37.9776 8.0364 42.5542C12.6156 47.1308 18.8232 49.7042 25.2974 49.7098C31.3491 49.7098 36.8835 47.4776 41.1566 43.814L43.2825 45.9541L41.9574 47.2792C41.7827 47.4536 41.6442 47.6607 41.5497 47.8887C41.4552 48.1167 41.4065 48.3611 41.4065 48.6079C41.4065 48.8547 41.4552 49.0991 41.5497 49.3271C41.6442 49.555 41.7827 49.7622 41.9574 49.9366L47.591 55.5702C48.145 56.1445 48.8119 56.5978 49.5498 56.9015C50.2877 57.2052 51.0805 57.3527 51.8782 57.3347C53.2981 57.2605 54.6384 56.6561 55.634 55.6411C56.6458 54.649 57.2499 53.3144 57.3276 51.8995C57.3475 51.1011 57.2016 50.3072 56.8991 49.5681C56.5967 48.8289 56.1441 48.1606 55.5702 47.6052L49.9295 41.9645C49.7531 41.7874 49.5432 41.6473 49.312 41.5523C49.0808 41.4574 48.833 41.4096 48.5831 41.4117C48.0905 41.4169 47.6197 41.6154 47.2721 41.9645L45.9399 43.2967L43.814 41.1708C47.62 36.7584 49.7126 31.1245 49.7098 25.2974C49.7098 11.8334 38.7614 0.884966 25.2974 0.884966ZM25.2974 4.62655C28.012 4.62375 30.7006 5.15661 33.2089 6.1946C35.7173 7.23259 37.9962 8.75531 39.9151 10.6755C41.834 12.5957 43.3552 14.8757 44.3914 17.3848C45.4277 19.8938 45.9587 22.5827 45.9541 25.2974C45.9587 28.012 45.4274 30.7008 44.3905 33.2095C43.3536 35.7183 41.8316 37.9976 39.9118 39.9168C37.9919 41.836 35.7121 43.3572 33.203 44.3932C30.6939 45.4292 28.0049 45.9597 25.2903 45.9541C22.5757 45.9578 19.8869 45.4258 17.3782 44.3887C14.8695 43.3516 12.5901 41.8297 10.6705 39.9101C8.75095 37.9906 7.22901 35.7111 6.19189 33.2024C5.15476 30.6937 4.62282 28.005 4.62655 25.2903C4.62562 22.5758 5.1597 19.8878 6.19827 17.3799C7.23683 14.872 8.75951 12.5933 10.6793 10.6742C12.599 8.75515 14.8782 7.23326 17.3864 6.19555C19.8947 5.15785 22.5829 4.62469 25.2974 4.62655ZM48.5973 45.947L52.9128 50.2625C53.4939 50.8436 53.5931 51.283 53.579 51.7152C53.5395 52.1974 53.3253 52.6484 52.9766 52.9837C52.6403 53.3298 52.1893 53.5414 51.7082 53.579C51.2759 53.6002 50.8295 53.4939 50.2484 52.9128L45.9399 48.6043L48.5973 45.947Z" fill="white"/>
</svg>
