<svg width="19" height="19" viewBox="0 0 19 19" fill="none" xmlns="http://www.w3.org/2000/svg">
<path d="M15.1738 15.1738C15.4667 14.8809 15.9415 14.8809 16.2344 15.1738L17.8955 16.835C18.1884 17.1279 18.1884 17.6026 17.8955 17.8955C17.6026 18.1884 17.1279 18.1884 16.835 17.8955L15.1738 16.2344C14.8809 15.9415 14.8809 15.4667 15.1738 15.1738ZM8.64258 0C13.4154 0.000188636 17.2842 3.86972 17.2842 8.64258C17.284 13.4153 13.4153 17.284 8.64258 17.2842C3.86972 17.2842 0.000188632 13.4154 0 8.64258C0 3.86961 3.86961 0 8.64258 0ZM8.64258 1.5C4.69803 1.5 1.5 4.69803 1.5 8.64258C1.50019 12.587 4.69815 15.7842 8.64258 15.7842C12.5868 15.784 15.784 12.5868 15.7842 8.64258C15.7842 4.69815 12.587 1.50019 8.64258 1.5Z" fill="#70757F"/>
</svg>
