<svg width="15" height="15" viewBox="0 0 15 15" fill="none" xmlns="http://www.w3.org/2000/svg">
<path fill-rule="evenodd" clip-rule="evenodd" d="M8.03226 14.9809C6.57883 14.9809 5.30708 14.6827 4.21701 14.0864C3.12694 13.49 2.23506 12.6413 1.64047 11.6092C1.01286 10.5541 0.699047 9.34605 0.699047 7.98512C0.699047 6.6089 1.0046 5.39323 1.6157 4.33813C2.21028 3.28303 3.04435 2.44965 4.11791 1.838C5.19146 1.24163 6.42193 0.943452 7.8093 0.943452C9.18015 0.943452 10.3611 1.24928 11.352 1.86093C12.3595 2.4573 13.1275 3.29832 13.656 4.38401C14.2011 5.46969 14.4736 6.74652 14.4736 8.21449V9.01728H3.82062C4.01882 10.103 4.49778 10.9593 5.25753 11.5862C6.01728 12.2132 6.98348 12.5266 8.15614 12.5266C9.08105 12.5266 9.88208 12.4043 10.5592 12.1597C11.2364 11.8997 11.8723 11.5098 12.4669 10.9899L14.1268 12.8707C12.4751 14.2775 10.4436 14.9809 8.03226 14.9809ZM10.3363 4.31519C9.67563 3.70354 8.80853 3.39771 7.73497 3.39771C6.71096 3.39771 5.84386 3.71119 5.13366 4.33813C4.43998 4.96508 4.0023 5.81375 3.82062 6.88414H11.4511C11.352 5.79845 10.9804 4.94214 10.3363 4.31519Z" fill="white"/>
</svg>
