<svg width="10" height="17" viewBox="0 0 10 17" fill="none" xmlns="http://www.w3.org/2000/svg">
<path d="M4.48785 8.90827C4.48836 9.27289 4.44029 9.63554 4.34524 9.98423C4.34023 10.009 4.33355 10.0334 4.32528 10.057C4.09728 10.8822 3.63978 11.6038 3.01978 12.1161C2.39978 12.6284 1.64984 12.9046 0.87981 12.9041V17C2.65673 17 3.92882 17.0696 5.86475 15.7848C8.07521 14.3193 9.31806 11.6394 9.31806 8.85627C9.31806 5.98758 7.92832 3.11169 5.57383 1.72694C3.86679 0.722178 2.56689 0.714978 0.87981 0.714978V4.80842C1.83679 4.80842 2.75458 5.23487 3.43133 5.99396C4.10809 6.75306 4.48837 7.78264 4.48856 8.85627L4.48785 8.90827Z" fill="#EE1D52"/>
</svg>
