<svg width="81" height="16" viewBox="0 0 81 16" fill="none" xmlns="http://www.w3.org/2000/svg">
<path d="M8.46573 10.2627L7.79739 12.1941H7.74169C7.6303 11.7586 7.42608 11.0959 7.09191 10.3006L3.50882 1.11716H0V15.7538H2.32065V6.72189C2.32065 6.15385 2.32065 5.51006 2.30208 4.71479C2.28352 4.31716 2.24639 4.0142 2.22782 3.78698H2.28352C2.39491 4.35503 2.52487 4.7716 2.61769 5.03669L6.92482 15.716H8.55856L12.8286 4.94201C12.9214 4.69586 13.0142 4.20355 13.107 3.78698H13.1627C13.107 4.86627 13.0699 5.83195 13.0513 6.41894V15.697H15.5205V1.07929H12.1416L8.46573 10.2627ZM17.8597 5.2071H20.2732V15.697H17.8597V5.2071ZM19.085 0.776331C18.6766 0.776331 18.3424 0.927811 18.0639 1.1929C17.7855 1.45799 17.6369 1.79882 17.6369 2.21538C17.6369 2.61302 17.7855 2.95385 18.0639 3.21893C18.3424 3.48402 18.6766 3.61657 19.085 3.61657C19.4935 3.61657 19.8462 3.46509 20.1061 3.21893C20.3846 2.95385 20.5331 2.61302 20.5331 2.21538C20.5331 1.81775 20.3846 1.47692 20.1061 1.1929C19.8648 0.927811 19.512 0.776331 19.085 0.776331ZM28.8318 5.11243C28.3862 5.01775 27.9221 4.96095 27.4765 4.96095C26.3812 4.96095 25.3786 5.2071 24.5432 5.69941C23.7078 6.19172 23.0394 6.87337 22.6124 7.72544C22.1669 8.59645 21.9441 9.6 21.9441 10.755C21.9441 11.7586 22.1669 12.6485 22.5939 13.4627C23.0209 14.258 23.6149 14.9018 24.4132 15.3373C25.1744 15.7728 26.0655 16 27.0681 16C28.2191 16 29.2031 15.7538 29.9828 15.2994L30.0014 15.2805V13.0083L29.9085 13.084C29.5558 13.3491 29.1474 13.5763 28.7389 13.7089C28.3119 13.8604 27.9221 13.9361 27.5879 13.9361C26.6225 13.9361 25.8613 13.6521 25.3229 13.0272C24.766 12.4213 24.4875 11.5882 24.4875 10.5467C24.4875 9.46746 24.766 8.61538 25.3415 7.99053C25.917 7.36568 26.6782 7.04379 27.6065 7.04379C28.3862 7.04379 29.1845 7.30888 29.9085 7.83905L30.0014 7.91479V5.51006L29.9828 5.49112C29.6672 5.35858 29.3145 5.2071 28.8318 5.11243ZM36.7962 5.03669C36.2021 5.03669 35.6452 5.22604 35.1625 5.62367C34.7541 5.9645 34.4756 6.4568 34.2342 7.04379H34.2157V5.2071H31.8022V15.697H34.2157V10.3385C34.2157 9.42959 34.4013 8.67219 34.8098 8.12308C35.2182 7.55503 35.738 7.27101 36.3692 7.27101C36.592 7.27101 36.8148 7.32781 37.0933 7.36568C37.3532 7.44142 37.5388 7.51716 37.6688 7.61183L37.7616 7.68757V5.22604L37.7059 5.2071C37.5388 5.09349 37.2047 5.03669 36.7962 5.03669ZM43.3683 4.97988C41.6789 4.97988 40.3236 5.49112 39.3768 6.49468C38.4114 7.49823 37.9473 8.88047 37.9473 10.6225C37.9473 12.2509 38.43 13.5763 39.3582 14.542C40.2865 15.4888 41.5489 15.9811 43.127 15.9811C44.7793 15.9811 46.0974 15.4698 47.0442 14.4473C48.0096 13.4249 48.4738 12.0615 48.4738 10.3763C48.4738 8.71006 48.0282 7.38462 47.1185 6.41894C46.2459 5.45325 44.9649 4.97988 43.3683 4.97988ZM45.2991 13.0462C44.8535 13.6331 44.1481 13.9172 43.2755 13.9172C42.4029 13.9172 41.6975 13.6331 41.1962 13.0083C40.6949 12.4213 40.4536 11.5692 40.4536 10.4899C40.4536 9.37278 40.7135 8.52071 41.1962 7.91479C41.6975 7.30888 42.3844 7.00592 43.2569 7.00592C44.1109 7.00592 44.7793 7.28994 45.262 7.87692C45.7447 8.46391 46.0046 9.31598 46.0046 10.4331C45.9674 11.5692 45.7632 12.4592 45.2991 13.0462ZM53.8577 9.56213C53.0965 9.24024 52.6138 8.99408 52.391 8.7858C52.2054 8.59645 52.1125 8.33136 52.1125 7.99053C52.1125 7.70651 52.2239 7.42248 52.5024 7.23314C52.7809 7.04379 53.0965 6.94911 53.5606 6.94911C53.9691 6.94911 54.3961 7.02485 54.8045 7.13846C55.2129 7.25207 55.5842 7.42249 55.8813 7.6497L55.9741 7.72544V5.41538L55.9184 5.39645C55.6399 5.28284 55.2686 5.16923 54.8231 5.07456C54.3775 4.99882 53.9691 4.96095 53.6349 4.96095C52.4838 4.96095 51.537 5.24497 50.7944 5.86982C50.0518 6.4568 49.6991 7.25207 49.6991 8.17988C49.6991 8.67219 49.7733 9.10769 49.9404 9.46746C50.1075 9.82722 50.3488 10.168 50.683 10.4521C51.0172 10.7172 51.4999 11.0201 52.1682 11.3041C52.7252 11.5503 53.1522 11.7396 53.4121 11.8911C53.672 12.0426 53.8391 12.213 53.9691 12.3456C54.0619 12.497 54.1176 12.6864 54.1176 12.9325C54.1176 13.6331 53.5978 13.974 52.5395 13.974C52.1311 13.974 51.7041 13.8982 51.2028 13.7278C50.7016 13.5574 50.2374 13.3112 49.8476 13.0272L49.7548 12.9515V15.3562L49.8104 15.3751C50.1632 15.5456 50.5902 15.6592 51.11 15.7917C51.6298 15.8864 52.094 15.9621 52.5024 15.9621C53.7463 15.9621 54.7674 15.6781 55.4914 15.0533C56.234 14.4473 56.6239 13.671 56.6239 12.6675C56.6239 11.9669 56.4382 11.342 56.0298 10.8686C55.4914 10.4142 54.8231 9.94083 53.8577 9.56213ZM62.9917 4.97988C61.3023 4.97988 59.947 5.49112 59.0002 6.49468C58.0534 7.49823 57.5707 8.88047 57.5707 10.6225C57.5707 12.2509 58.0534 13.5763 58.9817 14.542C59.9099 15.4888 61.1724 15.9811 62.7504 15.9811C64.4027 15.9811 65.7208 15.4698 66.6677 14.4473C67.633 13.4249 68.0972 12.0615 68.0972 10.3763C68.0972 8.71006 67.6516 7.38462 66.7419 6.41894C65.8693 5.45325 64.5884 4.97988 62.9917 4.97988ZM64.904 13.0462C64.4584 13.6331 63.7529 13.9172 62.8804 13.9172C61.9892 13.9172 61.3023 13.6331 60.8011 13.0083C60.2998 12.4213 60.0584 11.5692 60.0584 10.4899C60.0584 9.37278 60.3184 8.52071 60.8011 7.91479C61.3023 7.30888 61.9892 7.00592 62.8618 7.00592C63.6972 7.00592 64.3841 7.28994 64.8668 7.87692C65.3495 8.46391 65.6094 9.31598 65.6094 10.4331C65.6094 11.5692 65.3681 12.4592 64.904 13.0462ZM81 7.23314V5.2071H78.5679V2.10178L78.4937 2.12071L76.1916 2.8213L76.1359 2.84024V5.2071H72.4971V3.88166C72.4971 3.27574 72.6456 2.80237 72.9056 2.49941C73.1655 2.19645 73.5554 2.04497 74.038 2.04497C74.3722 2.04497 74.725 2.12071 75.1148 2.29112L75.2077 2.34793V0.208284L75.152 0.189349C74.8178 0.0757396 74.3722 0 73.7967 0C73.0726 0 72.4414 0.170414 71.8659 0.454438C71.2904 0.776331 70.8634 1.21183 70.5478 1.79882C70.2322 2.36686 70.0651 3.01065 70.0651 3.74911V5.2071H68.3757V7.2142H70.0651V15.697H72.4971V7.23314H76.1359V12.6296C76.1359 14.845 77.157 15.9621 79.1992 15.9621C79.5333 15.9621 79.8861 15.9053 80.2203 15.8485C80.573 15.7728 80.8329 15.6781 80.9814 15.6024L81 15.5834V13.5574L80.9072 13.6331C80.7587 13.7278 80.6287 13.8036 80.4059 13.8604C80.2203 13.9172 80.0532 13.9361 79.9232 13.9361C79.4405 13.9361 79.1063 13.8225 78.865 13.5385C78.6422 13.2734 78.5308 12.8379 78.5308 12.1941V7.23314H81Z" fill="white"/>
</svg>
