<svg width="20" height="20" viewBox="0 0 20 20" fill="none" xmlns="http://www.w3.org/2000/svg">
<path d="M9.53343 19.0669C14.7898 19.0669 19.0669 14.7898 19.0669 9.53343C19.0669 4.27704 14.7898 0 9.53343 0C4.27704 0 0 4.27704 0 9.53343C0 11.2343 0.455871 12.8961 1.32168 14.3634L0.448938 18.9035C0.419252 19.0582 0.432301 19.2181 0.486682 19.366C0.541062 19.5138 0.634717 19.6441 0.757576 19.7427C0.880434 19.8413 1.02785 19.9046 1.18397 19.9257C1.34009 19.9468 1.49901 19.9249 1.64365 19.8625L5.53502 18.1828C6.78673 18.7676 8.15188 19.0694 9.53343 19.0669ZM2.46049 17.6221L3.0871 14.3599C3.12898 14.1419 3.08555 13.916 2.96576 13.729C2.16155 12.4774 1.73378 11.0211 1.73335 9.53343C1.73335 5.23255 5.23255 1.73335 9.53343 1.73335C13.8343 1.73335 17.3335 5.23255 17.3335 9.53343C17.3335 13.8343 13.8343 17.3335 9.53343 17.3335C8.28022 17.3335 7.07684 17.0393 5.95623 16.4595C5.84225 16.4003 5.71654 16.3673 5.58822 16.3628C5.4599 16.3583 5.33219 16.3825 5.21435 16.4335L2.46049 17.6221ZM9.53343 12.1335H5.20005C4.9702 12.1335 4.74975 12.0421 4.58722 11.8796C4.42469 11.7171 4.33338 11.4966 4.33338 11.2668C4.33338 11.0369 4.42469 10.8165 4.58722 10.6539C4.74975 10.4914 4.9702 10.4001 5.20005 10.4001H9.53343C9.76329 10.4001 9.98373 10.4914 10.1463 10.6539C10.3088 10.8165 10.4001 11.0369 10.4001 11.2668C10.4001 11.4966 10.3088 11.7171 10.1463 11.8796C9.98373 12.0421 9.76329 12.1335 9.53343 12.1335ZM4.33338 7.80008C4.33338 7.57022 4.42469 7.34978 4.58722 7.18725C4.74975 7.02471 4.9702 6.9334 5.20005 6.9334H13.8668C14.0967 6.9334 14.3171 7.02471 14.4796 7.18725C14.6422 7.34978 14.7335 7.57022 14.7335 7.80008C14.7335 8.02994 14.6422 8.25038 14.4796 8.41291C14.3171 8.57544 14.0967 8.66676 13.8668 8.66676H5.20005C4.9702 8.66676 4.74975 8.57544 4.58722 8.41291C4.42469 8.25038 4.33338 8.02994 4.33338 7.80008Z" fill="#FCB635"/>
</svg>
