<svg width="15" height="24" viewBox="0 0 15 24" fill="none" xmlns="http://www.w3.org/2000/svg">
<path d="M13.7088 6.40614C10.7995 5.79625 8.52555 3.5223 7.91575 0.612952C7.8794 0.439654 7.78452 0.284141 7.64705 0.172527C7.50959 0.0609132 7.33791 -5.4972e-06 7.16084 3.72061e-10C6.98376 5.49795e-06 6.81209 0.0609349 6.67463 0.172558C6.53717 0.28418 6.4423 0.439698 6.40596 0.612999C5.79611 3.5223 3.52216 5.7962 0.612864 6.406C0.439589 6.44237 0.284102 6.53725 0.172506 6.6747C0.0609106 6.81216 0 6.98382 0 7.16087C0 7.33792 0.0609106 7.50959 0.172506 7.64704C0.284102 7.7845 0.439589 7.87937 0.612864 7.91575C3.52211 8.52564 5.79597 10.7995 6.40582 13.7088C6.44215 13.8822 6.53701 14.0377 6.67447 14.1493C6.81193 14.261 6.98361 14.3219 7.16069 14.3219C7.33777 14.3219 7.50946 14.261 7.64692 14.1493C7.78438 14.0377 7.87924 13.8822 7.91557 13.7088C8.52546 10.7995 10.7995 8.52564 13.7088 7.91589C13.8821 7.87956 14.0376 7.78471 14.1492 7.64725C14.2609 7.5098 14.3218 7.33811 14.3218 7.16103C14.3218 6.98395 14.2609 6.81226 14.1493 6.6748C14.0376 6.53734 13.8821 6.44247 13.7088 6.40614ZM12.4338 19.1477C11.0631 18.8604 9.99171 17.789 9.70432 16.4182C9.66799 16.2449 9.57314 16.0893 9.43568 15.9777C9.29822 15.866 9.12654 15.8051 8.94946 15.8051C8.77238 15.8051 8.60069 15.866 8.46323 15.9777C8.32577 16.0893 8.2309 16.2448 8.19457 16.4181C7.90718 17.7889 6.83575 18.8603 5.46504 19.1476C5.29176 19.184 5.13627 19.2789 5.02468 19.4163C4.91308 19.5538 4.85217 19.7254 4.85217 19.9025C4.85217 20.0795 4.91308 20.2512 5.02468 20.3886C5.13627 20.5261 5.29176 20.621 5.46504 20.6574C6.83571 20.9447 7.90713 22.0161 8.19447 23.3869C8.2308 23.5602 8.32566 23.7157 8.46312 23.8274C8.60058 23.939 8.77227 23.9999 8.94935 23.9999C9.12643 23.9999 9.29811 23.939 9.43557 23.8274C9.57303 23.7157 9.66789 23.5602 9.70422 23.3869C9.99161 22.0161 11.063 20.9447 12.4338 20.6574C12.6071 20.621 12.7626 20.5262 12.8742 20.3887C12.9858 20.2512 13.0467 20.0796 13.0467 19.9025C13.0467 19.7255 12.9858 19.5538 12.8742 19.4164C12.7626 19.2789 12.6071 19.184 12.4338 19.1477Z" fill="url(#paint0_linear_9005_12853)"/>
<defs>
<linearGradient id="paint0_linear_9005_12853" x1="0" y1="12" x2="14.3218" y2="12" gradientUnits="userSpaceOnUse">
<stop stop-color="#F7F0AC"/>
<stop offset="0.5" stop-color="#ACF7F0"/>
<stop offset="1" stop-color="#F0ACF7"/>
</linearGradient>
</defs>
</svg>
