<svg width="22" height="20" viewBox="0 0 22 20" fill="none" xmlns="http://www.w3.org/2000/svg">
<path d="M20.066 4.24947L15.3718 5.81414L12.1594 0.99568C11.6084 0.169467 10.3904 0.166747 9.83776 0.99568L6.62541 5.81414L1.93119 4.24947C0.917747 3.91135 -0.0883018 4.79616 0.121809 5.84658C2.19522 15.8002 1.87504 15.538 2.40499 16.0683C7.14336 20.8064 14.8533 20.8067 19.5919 16.0683C20.1219 15.5383 19.8061 15.7802 21.8751 5.84658C22.0841 4.80216 21.0862 3.90933 20.066 4.24947ZM17.3234 14.378C13.7546 17.6512 8.24233 17.6512 4.67379 14.378L3.32956 7.6568L6.75398 8.79825C7.04432 8.89507 7.35845 8.8937 7.64795 8.79437C7.93744 8.69503 8.18623 8.50324 8.35597 8.24855L10.9986 4.28477L13.6412 8.24869C13.811 8.50336 14.0598 8.69513 14.3493 8.79445C14.6388 8.89377 14.9529 8.89513 15.2432 8.79832L18.6677 7.65687L17.3234 14.378Z" fill="#FCB635"/>
</svg>
