<svg width="14" height="14" viewBox="0 0 14 14" fill="none" xmlns="http://www.w3.org/2000/svg">
<path d="M13.0393 6.22086C10.5689 5.70299 8.63812 3.77211 8.12031 1.3018C8.07188 1.07072 7.9454 0.863334 7.76213 0.714484C7.57885 0.565634 7.34994 0.484382 7.11383 0.484375C6.87773 0.484368 6.64881 0.565605 6.46553 0.714444C6.28224 0.863282 6.15575 1.07066 6.10731 1.30174C5.58943 3.77211 3.65862 5.70293 1.18825 6.22074C0.957213 6.26924 0.749896 6.39574 0.601101 6.57902C0.452307 6.76229 0.371094 6.99117 0.371094 7.22724C0.371094 7.46331 0.452307 7.69219 0.601101 7.87546C0.749896 8.05874 0.957213 8.18524 1.18825 8.23374C3.65856 8.75161 5.58937 10.6824 6.10718 13.1528C6.15562 13.3839 6.2821 13.5913 6.46538 13.7401C6.64866 13.889 6.87758 13.9702 7.11368 13.9702C7.34979 13.9702 7.5787 13.889 7.76198 13.7401C7.94526 13.5913 8.07174 13.3839 8.12018 13.1528C8.63812 10.6824 10.5689 8.75161 13.0392 8.23386C13.2703 8.18543 13.4777 8.05896 13.6266 7.87568C13.7754 7.69241 13.8567 7.4635 13.8567 7.22739C13.8567 6.99128 13.7754 6.76237 13.6266 6.57908C13.4778 6.3958 13.2704 6.26931 13.0393 6.22086Z" fill="#70757F"/>
</svg>
