<svg width="11" height="11" viewBox="0 0 11 11" fill="none" xmlns="http://www.w3.org/2000/svg">
<path d="M10.2795 4.41565C8.4267 4.02724 6.97859 2.57909 6.59023 0.726351C6.55391 0.553037 6.45905 0.397501 6.3216 0.285863C6.18414 0.174226 6.01245 0.113287 5.83537 0.113281C5.65829 0.113276 5.48661 0.174204 5.34914 0.285833C5.21168 0.397462 5.11682 0.552992 5.08048 0.726304C4.69207 2.57909 3.24397 4.02719 1.39118 4.41555C1.21791 4.45193 1.06242 4.54681 0.950826 4.68426C0.83923 4.82172 0.77832 4.99338 0.77832 5.17043C0.77832 5.34748 0.83923 5.51914 0.950826 5.6566C1.06242 5.79405 1.21791 5.88893 1.39118 5.9253C3.24392 6.31371 4.69203 7.76182 5.08039 9.6146C5.11672 9.78791 5.21158 9.94345 5.34904 10.0551C5.4865 10.1667 5.65818 10.2276 5.83526 10.2276C6.01234 10.2276 6.18403 10.1667 6.32149 10.0551C6.45895 9.94345 6.55381 9.78791 6.59014 9.6146C6.97859 7.76182 8.4267 6.31371 10.2794 5.9254C10.4527 5.88907 10.6083 5.79422 10.7199 5.65676C10.8316 5.51931 10.8925 5.34762 10.8925 5.17054C10.8925 4.99346 10.8316 4.82177 10.72 4.68431C10.6083 4.54685 10.4528 4.45198 10.2795 4.41565Z" fill="#70757F"/>
</svg>
