<svg width="14" height="23" viewBox="0 0 14 23" fill="none" xmlns="http://www.w3.org/2000/svg">
<path d="M0 1.55647C0 1.14367 0.163984 0.747773 0.455879 0.455879C0.747773 0.163985 1.14367 0 1.55647 0H11.6241C12.0369 8.69913e-09 12.4328 0.163985 12.7247 0.455879C13.0166 0.747773 13.1806 1.14367 13.1806 1.55647C13.1806 1.96927 13.0166 2.36516 12.7247 2.65706C12.4328 2.94895 12.0369 3.11294 11.6241 3.11294H1.55647C1.14367 3.11294 0.747773 2.94895 0.455879 2.65706C0.163984 2.36516 0 1.96927 0 1.55647ZM1.55647 22.6379C1.14367 22.6379 0.747773 22.4739 0.455879 22.182C0.163984 21.8901 0 21.4942 0 21.0814C0 20.6686 0.163984 20.2727 0.455879 19.9808C0.747773 19.6889 1.14367 19.5249 1.55647 19.5249H9.65069C10.0635 19.5249 10.4594 19.6889 10.7513 19.9808C11.0432 20.2727 11.2072 20.6686 11.2072 21.0814C11.2072 21.4942 11.0432 21.8901 10.7513 22.182C10.4594 22.4739 10.0635 22.6379 9.65069 22.6379H1.55647Z" fill="#FCB635"/>
</svg>
