<svg width="39" height="46" viewBox="0 0 39 46" fill="none" xmlns="http://www.w3.org/2000/svg">
<path d="M38.6735 11.2934V17.7042C38.6735 17.7042 35.8438 17.5852 33.748 17.0132C30.823 16.2132 28.9429 14.9873 28.9429 14.9873C28.9429 14.9873 27.6442 14.1113 27.5392 14.0503V30.9508C27.5392 31.8918 27.2991 34.2418 26.5672 36.2017C25.6116 38.7666 24.1369 40.4496 23.8657 40.7926C23.8657 40.7926 22.0722 43.0685 18.9081 44.6005C16.0569 45.9824 13.5529 45.9474 12.8034 45.9824C12.8034 45.9824 8.47564 46.1664 4.57951 43.4485L4.56007 43.4345C4.14895 43.0068 3.76176 42.5554 3.40037 42.0825C2.15707 40.4546 1.39495 38.5316 1.20345 37.9826C1.20287 37.9804 1.20287 37.9779 1.20345 37.9756C0.894325 37.0207 0.246914 34.7307 0.335374 32.5118C0.49188 28.5959 1.77504 26.194 2.11429 25.591C3.0132 23.9497 4.18214 22.4813 5.56909 21.2511C6.79229 20.1885 8.17943 19.3436 9.67325 18.7512C10.6047 18.353 11.5753 18.0596 12.5681 17.8762C13.2943 17.7426 14.0295 17.6674 14.767 17.6512V24.138C14.767 24.138 11.5649 23.0441 9.00154 24.978C7.20998 26.406 6.25928 27.7989 5.97931 30.2859C5.96765 32.1178 6.40412 34.7077 8.79837 36.4367C9.07703 36.6267 9.35116 36.7953 9.62075 36.9427C10.0393 37.5242 10.5481 38.0309 11.1265 38.4426C13.4654 40.0316 15.4251 40.1426 17.9311 39.1106C19.6041 38.4296 20.8571 36.8747 21.4511 35.1507C21.8175 34.0748 21.8127 32.9908 21.8127 31.8718V0.0136719H27.6452C27.8863 1.48463 28.5531 3.57858 30.3165 5.65252C31.0239 6.4356 31.8206 7.12793 32.6894 7.71447C32.946 7.99946 34.2583 9.40742 35.9429 10.2734C36.812 10.7202 37.7283 11.0625 38.6735 11.2934Z" fill="white"/>
</svg>
