<svg width="113" height="20" viewBox="0 0 113 20" fill="none" xmlns="http://www.w3.org/2000/svg">
<path d="M24.2659 8.34005V18.8613C24.2659 19.0318 24.1957 19.1954 24.0709 19.316C23.9461 19.4366 23.7768 19.5043 23.6003 19.5043H20.1624C19.9859 19.5042 19.8166 19.4365 19.6918 19.3159C19.567 19.1953 19.4969 19.0318 19.4968 18.8613V1.74799C19.4968 1.57745 19.5669 1.41389 19.6917 1.29329C19.8166 1.1727 19.9859 1.10495 20.1624 1.10495H23.3437C23.5203 1.10495 23.6896 1.1727 23.8144 1.29329C23.9392 1.41389 24.0094 1.57745 24.0094 1.74799V4.15799C24.0094 4.15799 25.1466 0.720199 28.5217 0.720199C28.5217 0.720199 31.86 0.330346 33.2174 3.90991C33.2174 3.90991 34.3546 0.720199 37.8031 0.720199C37.8031 0.720199 42.9314 0.425612 42.9314 5.55211L42.9704 8.37549V18.8967C42.9704 19.0673 42.9003 19.2308 42.7755 19.3514C42.6506 19.472 42.4813 19.5398 42.3048 19.5398H38.8666C38.6901 19.5397 38.5209 19.4719 38.3961 19.3513C38.2713 19.2307 38.2011 19.0672 38.201 18.8967L38.1696 7.41858C38.2674 4.81947 36.0909 5.00858 36.0909 5.00858C33.3518 5.05593 33.6154 8.37549 33.6154 8.37549V18.8967C33.6154 19.0673 33.5452 19.2308 33.4204 19.3514C33.2956 19.472 33.1263 19.5398 32.9497 19.5398H29.5119C29.3354 19.5397 29.1661 19.4719 29.0413 19.3513C28.9165 19.2307 28.8463 19.0672 28.8463 18.8967V7.6783C28.8463 7.6783 29.0473 4.98477 26.6014 4.98477C26.6017 4.98477 24.1805 4.6777 24.2659 8.34005ZM112.885 8.30858V18.8295C112.884 19 112.814 19.1636 112.689 19.2841C112.565 19.4047 112.395 19.4725 112.219 19.4726L108.643 19.5395C108.467 19.5394 108.298 19.4716 108.173 19.351C108.048 19.2305 107.978 19.0669 107.978 18.8964V7.6783C107.978 7.6783 108.179 4.98477 105.733 4.98477C105.733 4.98477 103.397 4.87362 103.397 9.09679V18.861C103.397 19.0315 103.327 19.195 103.202 19.3156C103.078 19.4362 102.908 19.504 102.732 19.504H99.2936C99.1171 19.504 98.9479 19.4362 98.823 19.3156C98.6982 19.195 98.6281 19.0315 98.628 18.861V1.74799C98.6281 1.57747 98.6982 1.41395 98.823 1.29337C98.9479 1.1728 99.1171 1.10502 99.2936 1.10495H102.475C102.652 1.10495 102.821 1.1727 102.946 1.29329C103.07 1.41389 103.141 1.57745 103.141 1.74799V4.15799C103.141 4.15799 104.278 0.720199 107.653 0.720199C107.653 0.720199 111.268 0.190282 112.486 3.84328C112.486 3.84299 112.885 4.59661 112.885 8.30858ZM88.0617 0.649316C83.6654 0.649316 80.101 4.22888 80.101 10.2539C80.101 15.5584 82.8524 19.8584 88.0617 19.8584C92.9776 19.8584 96.0225 15.5584 96.0225 10.2539C96.0225 4.3352 92.4584 0.649316 88.0617 0.649316ZM90.8366 10.4665C90.8366 12.7348 90.5431 13.9398 90.5431 13.9398C90.1255 16.3376 88.3238 16.341 88.0582 16.3282C87.7715 16.3393 85.9545 16.3143 85.5786 13.9398C85.5786 13.9398 85.2851 12.7348 85.2851 10.4665V10.0886C85.2851 7.82034 85.5786 6.61534 85.5786 6.61534C85.9545 4.24078 87.7718 4.21583 88.0582 4.22661C88.3238 4.21385 90.1255 4.21697 90.5431 6.61534C90.5431 6.61534 90.8366 7.82034 90.8366 10.0886V10.4665ZM78.1056 4.13418V1.67881C78.1056 1.50829 78.0354 1.34477 77.9106 1.22419C77.7858 1.10362 77.6165 1.03584 77.44 1.03577H66.0763C65.8998 1.03577 65.7305 1.10352 65.6057 1.22411C65.4808 1.3447 65.4107 1.50827 65.4107 1.67881V4.11518C65.4108 4.2857 65.4809 4.44922 65.6058 4.5698C65.7306 4.69038 65.8998 4.75815 66.0763 4.75823H72.0038L64.9878 14.591C64.9878 14.591 64.7113 14.9897 64.7204 15.43V18.4209C64.7204 18.4209 64.6747 19.4465 65.8785 18.8513C65.8785 18.8513 68.0168 17.6032 71.6023 17.6032C71.6023 17.6032 75.1432 17.5607 77.504 18.9588C77.504 18.9588 78.4839 19.3892 78.4839 18.4428V15.8394C78.4839 15.8394 78.5729 15.1504 77.6375 14.7203C77.6375 14.7203 74.9204 13.2789 71.3573 13.5153L78.1056 4.13418ZM16.8434 16.4439L15.7672 14.8612C15.4247 14.2704 15.4494 13.6086 15.4494 13.6086V6.308C15.5961 -0.000533276 8.35675 0.542993 8.35675 0.542993C1.92125 0.542993 0.970661 5.38142 0.970661 5.38142C0.702418 6.35421 1.4825 6.37775 1.4825 6.37775L4.62717 6.68594C4.62717 6.68594 5.16336 6.80446 5.35852 6.18778C5.35852 6.18778 5.77263 4.0769 8.0885 4.0769C10.6083 4.0769 10.5822 6.16623 10.5822 6.16623V7.91533C5.55193 8.07779 3.2208 9.42682 3.2208 9.42682C0.114865 11.128 0.310324 14.5068 0.310324 14.5068C0.310324 20.0118 5.73976 19.7754 5.73976 19.7754C9.21254 19.7754 11.2669 17.3183 11.2669 17.3183C11.8782 18.3583 13.0035 19.3501 13.0035 19.3501C13.5664 19.9398 14.153 19.4448 14.153 19.4448L16.6967 17.3421C17.259 16.9401 16.8434 16.4439 16.8434 16.4439ZM7.43462 16.3758C5.8011 16.3758 5.19388 14.8076 5.46506 13.2664C5.73653 11.7251 7.14642 10.5139 10.5825 10.5493V11.4864C10.7043 15.58 8.79433 16.3758 7.43462 16.3758ZM62.5287 16.4439L61.4528 14.8612C61.1103 14.2704 61.1347 13.6086 61.1347 13.6086V6.308C61.2814 -0.000533276 54.0421 0.542993 54.0421 0.542993C47.6066 0.542993 46.656 5.38142 46.656 5.38142C46.3877 6.35421 47.1678 6.37775 47.1678 6.37775L50.3125 6.68594C50.3125 6.68594 50.8487 6.80446 51.0438 6.18778C51.0438 6.18778 51.458 4.0769 53.7738 4.0769C56.2937 4.0769 56.2675 6.16623 56.2675 6.16623V7.91533C51.2375 8.07779 48.9061 9.42682 48.9061 9.42682C45.8002 11.128 45.9956 14.5068 45.9956 14.5068C45.9956 20.0118 51.4251 19.7754 51.4251 19.7754C54.8979 19.7754 56.9522 17.3183 56.9522 17.3183C57.5639 18.3583 58.6885 19.3501 58.6885 19.3501C59.2514 19.9398 59.8384 19.4448 59.8384 19.4448L62.3817 17.3421C62.9443 16.9401 62.5287 16.4439 62.5287 16.4439ZM53.1199 16.3758C51.4864 16.3758 50.8792 14.8076 51.1504 13.2664C51.4219 11.7251 52.8317 10.5139 56.2675 10.5493V11.4864C56.3896 15.58 54.4799 16.3758 53.1199 16.3758Z" fill="white"/>
</svg>
