<svg width="180" height="44" viewBox="0 0 180 44" fill="none" xmlns="http://www.w3.org/2000/svg">
<path fill-rule="evenodd" clip-rule="evenodd" d="M20.9037 4.94966C18.5594 5.01851 16.2804 5.50049 14.1318 6.53134L16.9317 11.7564C18.169 11.2066 19.602 10.8633 20.9037 10.8633C21.3602 10.8633 21.7506 10.9311 22.2063 10.999C27.5461 11.4121 31.8442 17.2569 31.4548 22.8243C30.9982 28.9425 26.374 32.7934 20.9037 33.0689H19.8611C16.2804 32.2436 13.2848 30.6629 11.5266 27.0874L5.66594 16.3618C4.88327 18.8376 4.62332 21.1757 4.81805 23.7194C5.73116 31.8324 11.5918 38.0185 19.2759 38.9815C19.7968 39.0503 20.3838 39.0503 20.9037 39.0503C29.8261 38.9126 36.9893 31.4183 37.1198 22.0689C36.9893 12.7873 30.2808 5.63722 21.7506 4.94966H20.9037ZM20.9037 44C9.44323 44 0 34.1007 0 22.0689C0 16.1572 2.21289 10.7934 5.86067 6.80676L15.8238 24.9568C16.2794 25.7801 16.9307 26.5375 17.7115 27.1562C18.6246 27.7071 19.6654 28.1182 20.7723 28.1182H20.9028C24.9409 28.2559 27.7399 23.6496 26.373 19.8685C25.5913 17.4625 23.3122 15.8818 20.9037 15.8818C20.5776 15.8818 20.2515 15.8818 19.9263 15.9506C18.1681 16.1572 16.4099 17.7369 15.6282 19.3875L7.74932 4.94966C11.4624 1.74808 16.1095 -0.000488189 20.9037 1.02239e-07C32.4312 1.02239e-07 41.8083 9.9003 41.8083 22.0689C41.8083 34.1007 32.4312 44 20.9037 44ZM74.11 24.6814L70.9197 18.9743C70.7893 19.5252 70.7241 20.075 70.7241 20.6937V36.4388H76.4543V29.0123L74.11 24.6814ZM108.04 23.5118L111.1 29.0812V36.369H111.035V36.4378H104.587V17.2569L108.04 23.5118ZM108.04 20.4882L111.1 25.9867V22.4131C111.1 19.8006 115.268 19.595 115.268 22.4131V36.369H119.11V36.4378H122.431V22.4131C122.431 19.8006 126.6 19.595 126.6 22.4131V36.4378H133.048V22.0689C133.048 14.3001 123.799 12.8571 120.413 17.7369C118.329 14.7132 114.031 14.0935 111.034 15.8818V14.9188H104.978L108.04 20.4882ZM143.987 27.2251L136.954 14.369V36.3699H142.685V35.4758C144.059 36.2018 145.576 36.5784 147.113 36.5755C152.649 36.5755 157.207 31.7636 157.207 25.8509C157.207 20.0081 152.649 15.1952 147.113 15.1952C145.485 15.1952 143.987 15.6083 142.686 16.2949V7.42645H136.954V11.2754L144.118 24.2692C144.639 23.1695 145.811 22.3453 147.113 22.3453C148.938 22.3453 150.435 23.926 150.435 25.8509C150.435 27.7759 148.938 29.3576 147.113 29.3576C145.68 29.3576 144.508 28.5323 143.987 27.2261V27.2251ZM166.91 27.4307L162.223 18.9065C160.659 20.7626 159.748 23.1686 159.748 25.85C159.748 31.7616 164.307 36.5745 169.906 36.5745C175.442 36.5745 180 31.7626 180 25.85C180 20.0072 175.442 15.1942 169.906 15.1942C167.366 15.1942 165.087 16.1562 163.263 17.8068L166.91 24.3381C167.182 23.7428 167.608 23.2403 168.138 22.8878C168.667 22.5353 169.28 22.347 169.906 22.3443C171.73 22.3443 173.228 23.925 173.228 25.85C173.228 27.7749 171.73 29.3566 169.906 29.3566C168.604 29.3566 167.432 28.5992 166.91 27.4307ZM93.0598 30.8694C94.1034 30.4563 94.819 29.4245 95.0147 28.2559H101.657C101.179 30.3857 100.102 32.3131 98.5676 33.7854C97.0334 35.2577 95.1136 36.2063 93.0598 36.5067C92.6694 36.5067 92.2138 36.5745 91.7582 36.5745C86.2236 36.5745 81.6646 31.7626 81.6646 25.85C81.6646 23.5118 82.3802 21.4501 83.5533 19.6629L88.7626 29.0812C89.2844 30.3186 90.3904 31.1429 91.7582 31.1429C92.2138 31.1429 92.6694 31.075 93.0598 30.8694ZM93.0598 23.9938H95.0799C94.9494 22.6885 94.1668 21.6557 93.0598 21.1757C92.6694 20.9691 92.2138 20.9003 91.7582 20.9003C90.0009 20.9003 88.6322 22.2066 88.5018 23.9938H93.0598ZM93.0598 15.2631C92.6694 15.2631 92.2138 15.1942 91.7582 15.1942C89.0235 15.1942 86.4184 16.4316 84.595 18.4245L89.4139 27.2251V26.7431H101.853C101.853 26.3988 101.918 26.1254 101.918 25.85C101.918 20.4882 98.0093 15.9506 93.0598 15.2631ZM74.11 21.6547L71.7005 17.3238C72.3279 16.5302 73.1678 15.9552 74.11 15.6742C74.6318 15.4677 75.2169 15.3988 75.7387 15.3988H80.362V21.037H79.0585C77.5612 21.037 76.4543 22.1357 76.4543 23.7863V25.9188L74.11 21.6547ZM54.1837 27.2251L47.0838 14.369V36.3699H52.8159V35.4758C54.1837 36.1644 55.6811 36.5755 57.2436 36.5755C62.7791 36.5755 67.4033 31.7636 67.4033 25.8509C67.4033 20.0081 62.7791 15.1952 57.2436 15.1952C55.6811 15.1952 54.1837 15.6083 52.8159 16.2949V7.42645H47.0838V11.2754L54.2471 24.2692C54.7689 23.1695 55.9401 22.3453 57.2427 22.3453C59.067 22.3453 60.5643 23.926 60.5643 25.8509C60.5643 27.7759 59.0661 29.3566 57.2427 29.3566C55.8758 29.3566 54.7046 28.5313 54.1837 27.2251Z" fill="#CFD1D4"/>
</svg>
