<svg width="11" height="11" viewBox="0 0 11 11" fill="none" xmlns="http://www.w3.org/2000/svg">
<path d="M10.2785 4.41565C8.42572 4.02724 6.97761 2.57908 6.58925 0.72635C6.55293 0.553037 6.45807 0.397501 6.32061 0.285863C6.18316 0.174226 6.01147 0.113287 5.83439 0.113281C5.65731 0.113276 5.48563 0.174204 5.34816 0.285833C5.2107 0.397461 5.11584 0.552992 5.0795 0.726304C4.6911 2.57908 3.24299 4.02719 1.39021 4.41555C1.21693 4.45193 1.06145 4.5468 0.949849 4.68426C0.838254 4.82171 0.777344 4.99337 0.777344 5.17043C0.777344 5.34748 0.838254 5.51914 0.949849 5.65659C1.06145 5.79405 1.21693 5.88893 1.39021 5.9253C3.24294 6.31371 4.69105 7.76182 5.07941 9.6146C5.11574 9.78791 5.2106 9.94344 5.34806 10.0551C5.48552 10.1667 5.6572 10.2276 5.83428 10.2276C6.01136 10.2276 6.18305 10.1667 6.32051 10.0551C6.45797 9.94344 6.55283 9.78791 6.58916 9.6146C6.97761 7.76182 8.42572 6.31371 10.2785 5.92539C10.4518 5.88907 10.6073 5.79421 10.7189 5.65676C10.8306 5.5193 10.8915 5.34762 10.8915 5.17054C10.8915 4.99346 10.8306 4.82177 10.719 4.68431C10.6073 4.54685 10.4518 4.45198 10.2785 4.41565Z" fill="white"/>
</svg>
