<svg width="80" height="20" viewBox="0 0 80 20" fill="none" xmlns="http://www.w3.org/2000/svg">
<path d="M0 0H13.3633L12.1283 4.12544H8.63433V19.912H4.32965V4.12544H0V0ZM35.4172 0V4.12544H39.7469V19.912H44.0487V4.12544H47.5427L48.7805 0H35.4172ZM16.2704 4.70142C16.6821 4.70142 17.0845 4.56447 17.4268 4.30788C17.769 4.0513 18.0358 3.6866 18.1933 3.25992C18.3509 2.83323 18.3921 2.36372 18.3118 1.91075C18.2315 1.45779 18.0332 1.04171 17.7422 0.715136C17.4511 0.388565 17.0802 0.166167 16.6764 0.0760665C16.2727 -0.0140343 15.8542 0.0322105 15.4739 0.20895C15.0935 0.385689 14.7685 0.684986 14.5398 1.06899C14.3111 1.453 14.189 1.90447 14.189 2.36631C14.189 2.98562 14.4083 3.57957 14.7986 4.01748C15.189 4.4554 15.7184 4.70142 16.2704 4.70142ZM14.1854 19.912H18.4045V6.35176H14.1854V19.912ZM33.5804 4.58463H28.6475L24.3956 9.35965V0.0151996H20.205L20.1907 19.912H24.4234V14.7274L25.7418 13.3891L29.849 19.912H34.3733L28.4236 10.3724L33.5804 4.58463ZM74.0489 10.3724L79.2078 4.58463H74.2749L70.023 9.35965V0.0151996H65.8317L65.8181 19.912H70.0508V14.7274L71.3721 13.3891L75.48 19.912H80L74.0489 10.3724ZM63.2034 11.8556C63.2034 16.3522 59.9105 19.9976 55.8483 19.9976C51.786 19.9976 48.4939 16.3522 48.4939 11.8556C48.4939 7.35892 51.7867 3.71346 55.8483 3.71346C59.9098 3.71346 63.2048 7.35972 63.2048 11.8556H63.2034ZM59.4563 11.8556C59.4563 11.055 59.2447 10.2724 58.8482 9.60669C58.4518 8.94102 57.8883 8.4222 57.229 8.11583C56.5697 7.80946 55.8443 7.7293 55.1444 7.88548C54.4445 8.04167 53.8016 8.42719 53.297 8.99329C52.7924 9.55939 52.4488 10.2806 52.3096 11.0659C52.1703 11.8511 52.2418 12.6649 52.5149 13.4046C52.788 14.1442 53.2504 14.7764 53.8437 15.2212C54.4371 15.666 55.1347 15.9034 55.8483 15.9034C56.3222 15.9037 56.7916 15.7992 57.2296 15.5959C57.6675 15.3927 58.0655 15.0945 58.4007 14.7186C58.7359 14.3427 59.0018 13.8963 59.1831 13.4051C59.3645 12.9138 59.4578 12.3873 59.4577 11.8556H59.4563Z" fill="white"/>
</svg>
