<svg width="20" height="14" viewBox="0 0 20 14" fill="none" xmlns="http://www.w3.org/2000/svg">
<path fill-rule="evenodd" clip-rule="evenodd" d="M17.3208 0.40983C17.4936 0.295451 17.6877 0.216856 17.8914 0.178685C18.0951 0.140513 18.3044 0.143539 18.507 0.187581C18.7095 0.231624 18.9012 0.315792 19.0707 0.435119C19.2402 0.554445 19.384 0.706513 19.4938 0.882347C19.6036 1.05818 19.677 1.25422 19.7097 1.45889C19.7425 1.66357 19.7339 1.87273 19.6845 2.07404C19.6351 2.27534 19.5459 2.46472 19.4222 2.63098C19.2984 2.79725 19.1425 2.93703 18.9639 3.04209L2.40874 13.3891C2.23587 13.5034 2.04185 13.582 1.83811 13.6202C1.63438 13.6584 1.42507 13.6553 1.22252 13.6113C1.01997 13.5673 0.828303 13.4831 0.658816 13.3638C0.48933 13.2444 0.345462 13.0924 0.235704 12.9165C0.125946 12.7407 0.0525202 12.5447 0.0197611 12.34C-0.012998 12.1353 -0.00442773 11.9262 0.0449669 11.7248C0.0943616 11.5235 0.183581 11.3342 0.307357 11.1679C0.431133 11.0016 0.586958 10.8618 0.765639 10.7568L17.3208 0.40983Z" fill="white"/>
</svg>
