<svg width="13" height="21" viewBox="0 0 13 21" fill="none" xmlns="http://www.w3.org/2000/svg">
<path d="M3.5753 11.2606C3.68225 11.0205 3.73752 10.7605 3.73752 10.4977C3.73752 10.2348 3.68225 9.97492 3.5753 9.7348L0.242252 2.25191C-0.674576 0.460958 1.22424 -0.569026 2.38444 0.332052C4.53741 2.00408 9.9923 7.03625 12.4622 9.33252C12.6224 9.4814 12.7502 9.66171 12.8375 9.86218C12.9249 10.0627 12.97 10.279 12.97 10.4977C12.97 10.7164 12.9249 10.9327 12.8375 11.1332C12.7502 11.3336 12.6224 11.5139 12.4622 11.6628C9.9923 13.959 4.53741 18.9912 2.38444 20.6633C1.1955 21.5866 -0.657467 20.5009 0.242252 18.7434L3.5753 11.2606Z" fill="#FCB635"/>
</svg>
