<svg width="17" height="20" viewBox="0 0 17 20" fill="none" xmlns="http://www.w3.org/2000/svg">
<path d="M8.15851 20C6.72261 20 0 13.4732 0 8.15851C0 5.99474 0.859555 3.91959 2.38957 2.38957C3.91959 0.859555 5.99474 0 8.15851 0C10.3223 0 12.3974 0.859555 13.9274 2.38957C15.4575 3.91959 16.317 5.99474 16.317 8.15851C16.317 13.4918 9.59441 20 8.15851 20ZM8.15851 1.38928C6.36481 1.39175 4.64543 2.10602 3.37797 3.37523C2.1105 4.64444 1.3986 6.36481 1.3986 8.15851C1.3986 12.5781 6.90909 17.986 8.15851 18.5734C9.40793 17.986 14.9184 12.5781 14.9184 8.15851C14.9184 6.36481 14.2065 4.64444 12.9391 3.37523C11.6716 2.10602 9.9522 1.39175 8.15851 1.38928Z" fill="white"/>
<path d="M8.15851 12.0748C7.37476 12.0748 6.60861 11.8424 5.95695 11.407C5.30528 10.9716 4.79737 10.3527 4.49745 9.62858C4.19752 8.90449 4.11904 8.10772 4.27194 7.33903C4.42485 6.57035 4.80226 5.86426 5.35645 5.31006C5.91065 4.75587 6.61673 4.37846 7.38542 4.22556C8.15411 4.07266 8.95088 4.15113 9.67497 4.45106C10.3991 4.75099 11.0179 5.2589 11.4534 5.91056C11.8888 6.56222 12.1212 7.32837 12.1212 8.11212C12.1187 9.16234 11.7005 10.1688 10.9578 10.9115C10.2152 11.6541 9.20872 12.0724 8.15851 12.0748ZM8.15851 5.54802C7.65137 5.54802 7.15563 5.6984 6.73397 5.98015C6.3123 6.26189 5.98366 6.66235 5.78958 7.13088C5.59551 7.59941 5.54474 8.11496 5.64367 8.61235C5.74261 9.10974 5.98682 9.56662 6.34541 9.92521C6.70401 10.2838 7.16089 10.528 7.65828 10.627C8.15566 10.7259 8.67122 10.6751 9.13975 10.481C9.60827 10.287 10.0087 9.95832 10.2905 9.53666C10.5722 9.11499 10.7226 8.61925 10.7226 8.11212C10.7226 7.43208 10.4525 6.77989 9.9716 6.29903C9.49074 5.81816 8.83855 5.54802 8.15851 5.54802Z" fill="white"/>
</svg>
