<svg width="30" height="42" viewBox="0 0 30 42" fill="none" xmlns="http://www.w3.org/2000/svg">
<path d="M18.6432 2.01294H12.8106V33.8731C12.8106 34.9921 12.8155 36.073 12.449 37.152C11.8599 38.874 10.6069 40.4289 8.93687 41.1189C6.42985 42.1549 4.47012 42.0399 2.13225 40.4509C1.55379 40.0392 1.04509 39.5325 0.626492 38.9509C2.6183 40.0439 4.40111 40.0249 6.60969 39.1129C8.27002 38.418 9.53373 36.863 10.117 35.14C10.4844 34.0641 10.4796 32.9801 10.4796 31.8621V0H18.5333C18.5333 0 18.4419 0.792978 18.6432 2.01294ZM29.6725 11.5207V13.2926C28.7268 13.0618 27.8103 12.7196 26.9409 12.2727C25.2563 11.4067 23.944 9.99873 23.6873 9.71374C23.9849 9.9149 24.2939 10.0976 24.6128 10.2607C26.6609 11.3127 28.6732 11.6277 29.6725 11.5207Z" fill="#69C9D0"/>
</svg>
