<svg width="56" height="56" viewBox="0 0 56 56" fill="none" xmlns="http://www.w3.org/2000/svg">
<path d="M34.0886 50.658C32.1219 51.1756 30.0969 51.438 28.0632 51.439C24.5101 51.439 21.0142 46.1393 19.3323 38.3777C22.1069 37.2589 25.0715 36.6866 28.0632 36.6921C29.4536 36.844 30.9086 36.5346 30.9967 34.8874C31.0126 33.2102 29.4545 32.8155 28.0632 32.9421C24.8618 32.9386 21.6854 33.5053 18.6826 34.6155C18.3974 32.4224 18.2552 30.2131 18.257 28.0015C18.2545 25.7907 18.3942 23.5821 18.6751 21.3893C21.6817 22.4949 24.8599 23.0608 28.0632 23.0609C31.2654 23.0604 34.4423 22.4945 37.4476 21.3893C37.731 23.5973 37.872 25.8213 37.8695 28.0474C37.8757 28.5447 38.0792 29.0191 38.4352 29.3664C38.7913 29.7136 39.2707 29.9052 39.7679 29.899C40.2652 29.8928 40.7397 29.6893 41.0869 29.3332C41.4341 28.9772 41.6257 28.4978 41.6195 28.0005C41.3795 15.4999 39.0076 23.0055 47.4798 14.8877C50.1053 18.7567 51.5063 23.3258 51.5007 28.0015C51.4999 29.2959 51.3924 30.5881 51.1792 31.8649C51.1387 32.1078 51.1464 32.3563 51.2019 32.5963C51.2574 32.8362 51.3597 33.0628 51.5028 33.2632C51.6459 33.4636 51.8271 33.6339 52.036 33.7643C52.245 33.8946 52.4775 33.9826 52.7204 34.023C55.7204 34.3362 55.0304 29.9262 55.2517 28.0015C55.0182 2.34773 23.1348 -8.80852 6.97888 10.8602C-1.05175 20.299 -1.15394 35.6234 7.0445 45.2327C10.3573 49.2631 14.7572 52.2581 19.7216 53.8623C24.686 55.4664 30.0065 55.6122 35.0514 54.2824C35.532 54.1547 35.9422 53.8414 36.1918 53.4112C36.4414 52.9811 36.5098 52.4694 36.3822 51.9888C36.2545 51.5082 35.9411 51.098 35.511 50.8484C35.0808 50.5988 34.5692 50.5304 34.0886 50.658ZM28.0632 19.3118C25.0686 19.3138 22.1014 18.7419 19.322 17.6271C21.0751 9.60679 24.707 4.56398 28.0632 4.56398C31.4176 4.56398 35.0476 9.59929 36.8007 17.628C34.0225 18.7421 31.0565 19.3136 28.0632 19.3118ZM45.1136 11.9449C43.6766 13.4761 42.04 14.8068 40.2479 15.9012C39.4704 12.3764 38.0693 9.01899 36.1107 5.9871C39.5333 7.2476 42.6156 9.28734 45.1136 11.9449ZM20.0167 5.9871C18.0575 9.01886 16.6558 12.3763 15.8776 15.9012C14.0859 14.8067 12.4496 13.476 11.0129 11.9449C13.5109 9.28734 16.5941 7.2476 20.0167 5.9871ZM8.64669 14.8887C10.544 16.8381 12.7241 18.4907 15.1136 19.7909C14.3031 25.2348 14.3097 30.7692 15.1333 36.2112C12.7392 37.5117 10.5534 39.1635 8.64856 41.1115C6.0496 37.2328 4.66185 32.6693 4.66152 28.0004C4.66118 23.3314 6.04828 18.7677 8.64669 14.8887ZM11.0092 44.0609C12.4511 42.5302 14.0917 41.1996 15.887 40.1046C16.6501 43.6241 18.0411 46.9774 19.9932 50.0037C16.5765 48.7501 13.5003 46.715 11.0101 44.0609H11.0092Z" fill="white"/>
</svg>
