<svg width="28" height="33" viewBox="0 0 28 33" fill="none" xmlns="http://www.w3.org/2000/svg">
<path d="M0.500273 30.7009C0.500273 31.5293 1.17185 32.2009 2.00027 32.2009C2.8287 32.2009 3.50027 31.5293 3.50027 30.7009H2.00027H0.500273ZM3.50027 25.8709C3.50027 25.0425 2.8287 24.3709 2.00027 24.3709C1.17185 24.3709 0.500273 25.0425 0.500273 25.8709H2.00027H3.50027ZM12.4469 30.7009C12.4469 31.5293 13.1185 32.2009 13.9469 32.2009C14.7754 32.2009 15.4469 31.5293 15.4469 30.7009H13.9469H12.4469ZM15.4469 21.0409C15.4469 20.2125 14.7754 19.5409 13.9469 19.5409C13.1185 19.5409 12.4469 20.2125 12.4469 21.0409H13.9469H15.4469ZM24.3936 30.7009C24.3936 31.5293 25.0652 32.2009 25.8936 32.2009C26.722 32.2009 27.3936 31.5293 27.3936 30.7009H25.8936H24.3936ZM27.3936 16.1876C27.3936 15.3592 26.722 14.6876 25.8936 14.6876C25.0652 14.6876 24.3936 15.3592 24.3936 16.1876H25.8936H27.3936ZM27.0352 2.9727C27.5724 2.34207 27.4967 1.39534 26.866 0.858136C26.2354 0.320928 25.2887 0.396665 24.7515 1.0273L25.8933 2L27.0352 2.9727ZM24.82 3.26L25.9597 4.23524L25.9619 4.2327L24.82 3.26ZM1.6371 15.8979C0.833279 16.0983 0.344135 16.9124 0.544562 17.7162C0.744988 18.5201 1.55909 19.0092 2.3629 18.8088L2 17.3533L1.6371 15.8979ZM19.0579 0.5C18.2295 0.5 17.5579 1.17157 17.5579 2C17.5579 2.82843 18.2295 3.5 19.0579 3.5V2V0.5ZM25.8946 2H27.3946C27.3946 1.17157 26.723 0.5 25.8946 0.5V2ZM24.3946 8.81333C24.3946 9.64176 25.0662 10.3133 25.8946 10.3133C26.723 10.3133 27.3946 9.64176 27.3946 8.81333H25.8946H24.3946ZM2.00027 30.7009H3.50027V25.8709H2.00027H0.500273V30.7009H2.00027ZM13.9469 30.7009H15.4469V21.0409H13.9469H12.4469V30.7009H13.9469ZM25.8936 30.7009H27.3936V16.1876H25.8936H24.3936V30.7009H25.8936ZM25.8933 2L24.7515 1.0273L23.6781 2.2873L24.82 3.26L25.9619 4.2327L27.0352 2.9727L25.8933 2ZM24.82 3.26L23.6803 2.28476C17.9338 9.00031 10.2257 13.7564 1.6371 15.8979L2 17.3533L2.3629 18.8088C11.5543 16.5169 19.8062 11.4264 25.9597 4.23524L24.82 3.26ZM19.0579 2V3.5H25.8946V2V0.5H19.0579V2ZM25.8946 2H24.3946V8.81333H25.8946H27.3946V2H25.8946Z" fill="#FCB635"/>
</svg>
