<svg width="20" height="20" viewBox="0 0 20 20" fill="none" xmlns="http://www.w3.org/2000/svg">
<path d="M17.576 14.664C17.576 14.952 17.512 15.248 17.376 15.536C17.24 15.824 17.064 16.096 16.832 16.352C16.44 16.784 16.008 17.096 15.52 17.296C15.04 17.496 14.52 17.6 13.96 17.6C13.144 17.6 12.272 17.408 11.352 17.016C10.432 16.624 9.512 16.096 8.6 15.432C7.68 14.76 6.808 14.016 5.976 13.192C5.152 12.36 4.408 11.488 3.744 10.576C3.088 9.664 2.56 8.752 2.176 7.848C1.792 6.936 1.6 6.064 1.6 5.232C1.6 4.688 1.696 4.168 1.888 3.688C2.08 3.2 2.384 2.752 2.808 2.352C3.32 1.848 3.88 1.6 4.472 1.6C4.696 1.6 4.92 1.648 5.12 1.744C5.328 1.84 5.512 1.984 5.656 2.192L7.512 4.808C7.656 5.008 7.76 5.192 7.832 5.368C7.904 5.536 7.944 5.704 7.944 5.856C7.944 6.048 7.888 6.24 7.776 6.424C7.672 6.608 7.52 6.8 7.328 6.992L6.72 7.624C6.632 7.712 6.592 7.816 6.592 7.944C6.592 8.008 6.6 8.064 6.616 8.128C6.64 8.192 6.664 8.24 6.68 8.288C6.824 8.552 7.072 8.896 7.424 9.312C7.784 9.728 8.168 10.152 8.584 10.576C9.016 11 9.432 11.392 9.856 11.752C10.272 12.104 10.616 12.344 10.888 12.488C10.928 12.504 10.976 12.528 11.032 12.552C11.096 12.576 11.16 12.584 11.232 12.584C11.368 12.584 11.472 12.536 11.56 12.448L12.168 11.848C12.368 11.648 12.56 11.496 12.744 11.4C12.928 11.288 13.112 11.232 13.312 11.232C13.464 11.232 13.624 11.264 13.8 11.336C13.976 11.408 14.16 11.512 14.36 11.648L17.008 13.528C17.216 13.672 17.36 13.84 17.448 14.04C17.528 14.24 17.576 14.44 17.576 14.664Z" stroke="white" stroke-width="1.5" stroke-miterlimit="10"/>
</svg>
