<svg width="154" height="82" viewBox="0 0 154 82" fill="none" xmlns="http://www.w3.org/2000/svg">
<path d="M152.376 64.0904L129.679 24.9323L124.118 15.3555C123.268 13.8913 121.878 12.85 120.281 12.4289C120.373 10.2145 119.845 7.98618 118.674 5.96754C116.512 2.23176 112.632 0 108.299 0H80.3473C76.0947 0 72.1309 2.27335 69.9915 5.93289C67.8244 2.2179 63.9562 0 59.6393 0H31.6872C27.4207 0 23.443 2.28894 21.3106 5.96754L4.61694 34.7743L1.59927 39.9794C-0.533092 43.6615 -0.533092 48.2324 1.59927 51.9145L15.5779 76.0325C17.7416 79.7682 21.6237 82 25.951 82H25.9545C30.2871 82 34.164 79.7648 36.3311 76.029L37.6321 73.7764L50.2837 51.9492L64.238 76.0325C66.4051 79.7682 70.2837 82 74.6146 82C76.7782 82 78.8323 81.4421 80.6151 80.4163C82.3979 79.3922 83.9076 77.8969 84.9912 76.029L86.2956 73.7764L94.3329 59.9076L96.6653 63.938L103.657 76.003C105.784 79.6972 109.76 81.9948 114.041 81.9948H142.003C146.332 81.9948 150.209 79.7665 152.373 76.0342C154.542 72.3001 154.542 67.8366 152.376 64.0904ZM32.169 70.6333L30.8645 72.8858C28.6835 76.6528 23.2256 76.6562 21.0445 72.8893L7.06586 48.7713C6.05359 47.023 6.05011 44.8709 7.06586 43.1226L10.0835 37.9157L26.7772 9.10899C27.7895 7.36413 29.6609 6.2881 31.6837 6.2881H59.6393C64.0014 6.2881 66.7304 10.9942 64.5493 14.7577L32.169 70.6333ZM80.829 70.6333L79.5246 72.8858C77.3435 76.6528 71.8856 76.6562 69.7046 72.8893L55.7259 48.7713C54.7136 47.023 54.7136 44.8709 55.7259 43.1226L58.7436 37.9157L75.4373 9.10899C76.4495 7.36413 78.321 6.2881 80.3473 6.2881H108.299C112.665 6.2881 115.394 10.9942 113.209 14.7577L80.829 70.6333ZM142.003 75.7102H114.042C112.02 75.7102 110.145 74.6341 109.136 72.8823L102.13 60.7965L98.1384 53.9002L118.655 18.5022L124.216 28.079L146.91 67.2336C149.091 71.0006 146.369 75.7102 142.003 75.7102Z" fill="url(#paint0_linear_9005_12090)"/>
<defs>
<linearGradient id="paint0_linear_9005_12090" x1="19.7692" y1="6.48504" x2="138.856" y2="93.9359" gradientUnits="userSpaceOnUse">
<stop stop-color="#339EFF"/>
<stop offset="1" stop-color="#7A5AF8"/>
</linearGradient>
</defs>
</svg>
