<svg width="105" height="56" viewBox="0 0 105 56" fill="none" xmlns="http://www.w3.org/2000/svg">
<path d="M103.894 43.7691L88.4183 17.027L84.627 10.4867C84.0471 9.48677 83.0996 8.77559 82.011 8.48804C82.0738 6.97574 81.7133 5.45398 80.9152 4.0754C79.4412 1.52413 76.7955 0 73.8414 0H54.7832C51.8837 0 49.1811 1.55253 47.7225 4.05173C46.2449 1.51467 43.6075 0 40.6641 0H21.6059C18.6969 0 15.9848 1.56318 14.5309 4.0754L3.14889 23.7483L1.09139 27.303C-0.362495 29.8176 -0.362495 32.9392 1.09139 35.4538L10.6223 51.9246C12.0975 54.4759 14.7444 56 17.6949 56H17.6972C20.6513 56 23.2946 54.4735 24.7722 51.9222L25.6592 50.3839L34.2853 35.4775L43.7996 51.9246C45.2772 54.4759 47.9217 56 50.8745 56C52.3498 56 53.7503 55.619 54.9658 54.9184C56.1813 54.2191 57.2107 53.1979 57.9495 51.9222L58.8389 50.3839L64.3188 40.9125L65.9091 43.665L70.6763 51.9045C72.1267 54.4274 74.8376 55.9965 77.756 55.9965H96.8214C99.773 55.9965 102.416 54.4747 103.892 51.9258C105.37 49.3757 105.37 46.3274 103.894 43.7691ZM21.9344 48.2373L21.045 49.7757C19.5579 52.3482 15.8366 52.3506 14.3495 49.778L4.81861 33.3072C4.12842 32.1133 4.12605 30.6436 4.81861 29.4496L6.8761 25.8937L18.2582 6.22078C18.9483 5.02916 20.2243 4.29431 21.6035 4.29431H40.6641C43.6383 4.29431 45.499 7.50824 44.0119 10.0784L21.9344 48.2373ZM55.1117 48.2373L54.2223 49.7757C52.7352 52.3482 49.0139 52.3506 47.5268 49.778L37.9959 33.3072C37.3057 32.1133 37.3057 30.6436 37.9959 29.4496L40.0534 25.8937L51.4355 6.22078C52.1256 5.02916 53.4017 4.29431 54.7832 4.29431H73.8414C76.818 4.29431 78.6786 7.50824 77.1892 10.0784L55.1117 48.2373ZM96.8214 51.7045H77.7572C76.378 51.7045 75.0997 50.9697 74.4118 49.7733L69.6351 41.5196L66.9135 36.8099L80.9022 12.6356L84.6934 19.1759L100.167 45.9156C101.654 48.4882 99.7979 51.7045 96.8214 51.7045Z" fill="url(#paint0_linear_9005_12839)"/>
<defs>
<linearGradient id="paint0_linear_9005_12839" x1="13.4799" y1="4.42881" x2="94.7682" y2="64.0254" gradientUnits="userSpaceOnUse">
<stop stop-color="#339EFF"/>
<stop offset="1" stop-color="#7A5AF8"/>
</linearGradient>
</defs>
</svg>
