<svg width="22" height="22" viewBox="0 0 22 22" fill="none" xmlns="http://www.w3.org/2000/svg">
<path d="M18.0657 21.6257C13.3707 22.1266 8.63568 22.1266 3.94067 21.6257C3.02895 21.5294 2.17777 21.1235 1.52904 20.4757C0.880309 19.8279 0.473233 18.9773 0.375674 18.0657C-0.125225 13.3707 -0.125225 8.63568 0.375674 3.94067C0.471954 3.02895 0.877836 2.17777 1.52565 1.52904C2.17347 0.880309 3.02408 0.473233 3.93567 0.375674C8.63068 -0.125225 13.3657 -0.125225 18.0607 0.375674C18.9724 0.471954 19.8236 0.877836 20.4723 1.52565C21.121 2.17347 21.5281 3.02408 21.6257 3.93567C22.1266 8.63068 22.1266 13.3657 21.6257 18.0607C21.5294 18.9724 21.1235 19.8236 20.4757 20.4723C19.8279 21.121 18.9773 21.5281 18.0657 21.6257Z" fill="white"/>
<path d="M9.34063 17.875C8.17699 17.875 7.06101 17.4127 6.23819 16.5899C5.41538 15.7671 4.95313 14.6511 4.95312 13.4875C4.95313 12.3239 5.41538 11.2079 6.23819 10.3851C7.06101 9.56225 8.17699 9.1 9.34063 9.1H10.4119V11.2413H9.34063C8.89562 11.2413 8.4606 11.3732 8.09059 11.6204C7.72058 11.8677 7.43219 12.2191 7.2619 12.6302C7.0916 13.0413 7.04704 13.4937 7.13386 13.9302C7.22067 14.3667 7.43497 14.7676 7.74963 15.0822C8.0643 15.3969 8.46521 15.6112 8.90167 15.698C9.33813 15.7848 9.79053 15.7403 10.2017 15.57C10.6128 15.3997 10.9642 15.1113 11.2114 14.7413C11.4587 14.3713 11.5906 13.9363 11.5906 13.4913V4.125H13.7319V5.195C13.7319 5.79174 13.9689 6.36403 14.3909 6.78599C14.8128 7.20795 15.3851 7.445 15.9819 7.445H17.0531V9.5825H15.9744C15.1814 9.58364 14.4032 9.36748 13.7244 8.9575V13.4875C13.7234 14.6502 13.2613 15.765 12.4395 16.5875C11.6177 17.41 10.5033 17.873 9.34063 17.875Z" fill="url(#paint0_linear_9005_12448)"/>
<defs>
<linearGradient id="paint0_linear_9005_12448" x1="6.76066" y1="3.83134" x2="17.8807" y2="6.51252" gradientUnits="userSpaceOnUse">
<stop stop-color="#361A67"/>
<stop offset="0.12" stop-color="#1B1B31"/>
<stop offset="0.609185" stop-color="#251F40"/>
<stop offset="1" stop-color="#412178"/>
</linearGradient>
</defs>
</svg>
