<svg width="42" height="24" viewBox="0 0 42 24" fill="none" xmlns="http://www.w3.org/2000/svg">
<g clip-path="url(#clip0_9005_13061)">
<path d="M11.9717 8.71635C11.9717 9.21023 12.0265 9.61068 12.1223 9.90434C12.2318 10.198 12.3687 10.5184 12.5603 10.8654C12.6288 10.9722 12.6562 11.079 12.6562 11.1724C12.6562 11.3059 12.574 11.4394 12.3961 11.5729L11.5337 12.1335C11.4105 12.2136 11.2873 12.2536 11.1778 12.2536C11.0409 12.2536 10.904 12.1869 10.7671 12.0667C10.5755 11.8665 10.4112 11.6529 10.2744 11.4394C10.1375 11.2125 10.0006 10.9588 9.85001 10.6518C8.7823 11.8799 7.44082 12.4939 5.82557 12.4939C4.67573 12.4939 3.7586 12.1735 3.08786 11.5328C2.41712 10.8921 2.07491 10.0378 2.07491 8.96997C2.07491 7.83537 2.48556 6.91435 3.32057 6.22025C4.15557 5.52614 5.26434 5.17909 6.67426 5.17909C7.13967 5.17909 7.61877 5.21913 8.12525 5.28587C8.63172 5.35261 9.15189 5.4594 9.69943 5.57953V4.60512C9.69943 3.59066 9.48041 2.8832 9.05607 2.46941C8.61804 2.05562 7.87885 1.85539 6.82484 1.85539C6.34574 1.85539 5.85295 1.90879 5.34647 2.02892C4.84 2.14905 4.34721 2.29588 3.86811 2.48276C3.64909 2.5762 3.48483 2.62959 3.38901 2.65628C3.29319 2.68298 3.22475 2.69633 3.16999 2.69633C2.97835 2.69633 2.88253 2.56285 2.88253 2.28254V1.62848C2.88253 1.41491 2.90991 1.25473 2.97835 1.16129C3.0468 1.06785 3.16999 0.974416 3.36163 0.880979C3.84073 0.640712 4.41565 0.440489 5.08639 0.280311C5.75713 0.106785 6.46893 0.0266963 7.2218 0.0266963C8.85074 0.0266963 10.0416 0.387097 10.8082 1.1079C11.5611 1.8287 11.9444 2.92325 11.9444 4.39155V8.71635H11.9717ZM6.41418 10.7453C6.8659 10.7453 7.33131 10.6652 7.8241 10.505C8.31689 10.3448 8.75492 10.0512 9.12451 9.65072C9.34353 9.39711 9.50779 9.1168 9.58992 8.79644C9.67205 8.47609 9.72681 8.08899 9.72681 7.63515V7.07453C9.32984 6.98109 8.9055 6.901 8.46746 6.84761C8.02943 6.79422 7.60508 6.76752 7.18074 6.76752C6.26361 6.76752 5.59287 6.94105 5.14114 7.30145C4.68942 7.66185 4.4704 8.16908 4.4704 8.83649C4.4704 9.46385 4.63467 9.93104 4.97688 10.2514C5.30541 10.5851 5.78451 10.7453 6.41418 10.7453ZM17.4061 12.1869C17.1597 12.1869 16.9954 12.1468 16.8859 12.0534C16.7764 11.9733 16.6806 11.7864 16.5985 11.5328L13.3817 1.21468C13.2995 0.94772 13.2585 0.774194 13.2585 0.680756C13.2585 0.467186 13.368 0.347052 13.587 0.347052H14.9285C15.1885 0.347052 15.3665 0.387097 15.4623 0.480534C15.5718 0.560623 15.654 0.747497 15.7361 1.00111L18.0358 9.8376L20.1712 1.00111C20.2396 0.734149 20.3217 0.560623 20.4313 0.480534C20.5408 0.400445 20.7324 0.347052 20.9788 0.347052H22.0739C22.334 0.347052 22.5119 0.387097 22.6214 0.480534C22.7309 0.560623 22.8268 0.747497 22.8815 1.00111L25.0443 9.94438L27.4124 1.00111C27.4945 0.734149 27.5904 0.560623 27.6862 0.480534C27.7957 0.400445 27.9736 0.347052 28.22 0.347052H29.4931C29.7121 0.347052 29.8353 0.453838 29.8353 0.680756C29.8353 0.747497 29.8216 0.814238 29.8079 0.894327C29.7942 0.974416 29.7668 1.0812 29.7121 1.22803L26.4132 11.5462C26.331 11.8131 26.2352 11.9867 26.1257 12.0667C26.0162 12.1468 25.8382 12.2002 25.6055 12.2002H24.4283C24.1682 12.2002 23.9903 12.1602 23.8808 12.0667C23.7713 11.9733 23.6754 11.7998 23.6207 11.5328L21.499 2.92325L19.3909 11.5195C19.3225 11.7864 19.2404 11.96 19.1308 12.0534C19.0213 12.1468 18.8297 12.1869 18.5833 12.1869H17.4061ZM34.9959 12.5473C34.2841 12.5473 33.5723 12.4672 32.8878 12.307C32.2034 12.1468 31.6696 11.9733 31.3137 11.7731C31.0946 11.6529 30.9441 11.5195 30.8893 11.3993C30.8346 11.2792 30.8072 11.1457 30.8072 11.0256V10.3448C30.8072 10.0645 30.9167 9.93104 31.122 9.93104C31.2041 9.93104 31.2863 9.94438 31.3684 9.97108C31.4505 9.99778 31.5737 10.0512 31.7106 10.1046C32.176 10.3048 32.6825 10.465 33.2164 10.5717C33.7639 10.6785 34.2978 10.7319 34.8453 10.7319C35.7077 10.7319 36.3784 10.5851 36.8438 10.2914C37.3092 9.99778 37.5556 9.57063 37.5556 9.02336C37.5556 8.64961 37.4324 8.3426 37.186 8.08899C36.9397 7.83537 36.4742 7.60845 35.8035 7.39488L33.8187 6.79422C32.8194 6.48721 32.0802 6.03337 31.6285 5.4327C31.1768 4.84538 30.9441 4.19132 30.9441 3.49722C30.9441 2.9366 31.0673 2.44271 31.3137 2.01557C31.56 1.58843 31.8886 1.21468 32.2992 0.921023C32.7099 0.614016 33.1753 0.387097 33.7228 0.226919C34.2704 0.0667408 34.8453 0 35.4476 0C35.7487 0 36.0636 0.0133482 36.3647 0.0533927C36.6796 0.0934372 36.967 0.14683 37.2545 0.200222C37.5283 0.266963 37.7883 0.333704 38.0347 0.413793C38.2811 0.493882 38.4728 0.573971 38.6097 0.65406C38.8013 0.760845 38.9382 0.867631 39.0203 0.987764C39.1024 1.09455 39.1435 1.24138 39.1435 1.42825V2.05562C39.1435 2.33593 39.034 2.48276 38.8287 2.48276C38.7192 2.48276 38.5412 2.42937 38.3085 2.32258C37.5283 1.97553 36.6522 1.802 35.6803 1.802C34.9001 1.802 34.2841 1.92214 33.8597 2.17575C33.4354 2.42937 33.2164 2.81646 33.2164 3.36374C33.2164 3.73749 33.3533 4.05784 33.627 4.31146C33.9008 4.56507 34.4073 4.81869 35.1328 5.04561L37.0765 5.64627C38.0621 5.95328 38.7739 6.38042 39.1983 6.9277C39.6226 7.47497 39.8279 8.10234 39.8279 8.79644C39.8279 9.37041 39.7047 9.89099 39.472 10.3448C39.2256 10.7987 38.8971 11.1991 38.4728 11.5195C38.0484 11.8532 37.5419 12.0934 36.9533 12.267C36.3374 12.4538 35.694 12.5473 34.9959 12.5473Z" fill="white"/>
<path fill-rule="evenodd" clip-rule="evenodd" d="M37.5838 19.0357C33.0803 22.2793 26.5372 24.0012 20.9112 24.0012C13.0266 24.0012 5.92221 21.1581 0.556296 16.4328C0.131951 16.0591 0.515231 15.5519 1.02171 15.8455C6.82565 19.1292 13.9848 21.118 21.3903 21.118C26.3866 21.118 31.8757 20.1036 36.9268 18.0213C37.6796 17.6876 38.323 18.5018 37.5838 19.0357Z" fill="#FF9900"/>
<path fill-rule="evenodd" clip-rule="evenodd" d="M39.4577 16.9528C38.8828 16.232 35.6523 16.6057 34.1876 16.7793C33.7496 16.8327 33.6811 16.4589 34.0781 16.1786C36.6515 14.4167 40.8813 14.9239 41.3741 15.5112C41.8669 16.1119 41.2372 20.2364 38.828 22.212C38.4584 22.519 38.1025 22.3588 38.2668 21.9584C38.8143 20.6369 40.0326 17.6603 39.4577 16.9528Z" fill="#FF9900"/>
</g>
<defs>
<clipPath id="clip0_9005_13061">
<rect width="42" height="24" fill="white"/>
</clipPath>
</defs>
</svg>
