<svg width="50" height="54" viewBox="0 0 50 54" fill="none" xmlns="http://www.w3.org/2000/svg">
<path d="M47.3568 39.0885C45.716 29.2165 36.9406 18.8178 32.5 14.5H17.5C13.0594 18.8178 4.28401 29.2165 2.64317 39.0885C1.42232 46.4336 8.19818 52 15.7708 52H34.2292C41.8018 52 48.5777 46.4336 47.3568 39.0885Z" stroke="white" stroke-width="4" stroke-linecap="round" stroke-linejoin="round"/>
<path d="M37.5 5.75L39.2365 6.74228C39.6196 6.07177 39.5825 5.24058 39.1411 4.60689C38.6997 3.9732 37.933 3.65025 37.1712 3.77721L37.5 5.75ZM30 7L28.5858 8.41421L29.3136 9.14199L30.3288 8.97279L30 7ZM25 2L26.4142 0.585786C25.6332 -0.195262 24.3668 -0.195262 23.5858 0.585786L25 2ZM12.5 5.75L12.8288 3.77721C12.067 3.65025 11.3003 3.9732 10.8589 4.60689C10.4175 5.24058 10.3804 6.07177 10.7635 6.74228L12.5 5.75ZM20 7L19.6712 8.97279L20.6864 9.14199L21.4142 8.41421L20 7ZM37.5 5.75L35.7635 4.75772L30.7635 13.5077L32.5 14.5L34.2365 15.4923L39.2365 6.74228L37.5 5.75ZM37.5 5.75L37.1712 3.77721L29.6712 5.02721L30 7L30.3288 8.97279L37.8288 7.72279L37.5 5.75ZM30 7L31.4142 5.58579L26.4142 0.585786L25 2L23.5858 3.41421L28.5858 8.41421L30 7ZM12.5 5.75L10.7635 6.74228L15.7635 15.4923L17.5 14.5L19.2365 13.5077L14.2365 4.75772L12.5 5.75ZM12.5 5.75L12.1712 7.72279L19.6712 8.97279L20 7L20.3288 5.02721L12.8288 3.77721L12.5 5.75ZM20 7L21.4142 8.41421L26.4142 3.41421L25 2L23.5858 0.585786L18.5858 5.58579L20 7Z" fill="white"/>
<path d="M25 25.75C22.2386 25.75 20 27.4289 20 29.5C20 31.5711 22.2386 33.25 25 33.25C27.7614 33.25 30 34.9289 30 37C30 39.0711 27.7614 40.75 25 40.75M25 25.75C27.177 25.75 29.0291 26.7935 29.7155 28.25M25 25.75V22M25 40.75C22.823 40.75 20.9709 39.7065 20.2845 38.25M25 40.75V44.5" stroke="#FCB635" stroke-width="4" stroke-linejoin="round"/>
</svg>
