<svg width="54" height="52" viewBox="0 0 54 52" fill="none" xmlns="http://www.w3.org/2000/svg">
<path d="M47.9951 29.2363C49.3671 29.2364 50.6831 29.7818 51.6533 30.752C52.6234 31.7222 53.1689 33.0381 53.1689 34.4102C53.1689 35.7822 52.6234 37.0982 51.6533 38.0684C50.6831 39.0385 49.3671 39.5839 47.9951 39.584C46.623 39.584 45.3071 39.0385 44.3369 38.0684C44.2847 38.0162 44.2342 37.9624 44.1845 37.9082L39.8466 40.6191L44.1826 43.3291C44.2327 43.2745 44.2842 43.2206 44.3369 43.168C45.3071 42.1979 46.6231 41.6533 47.9951 41.6533C49.3671 41.6534 50.6831 42.1979 51.6533 43.168C52.6234 44.1381 53.1688 45.4542 53.1689 46.8262C53.1689 48.1981 52.6233 49.5142 51.6533 50.4844C50.6831 51.4546 49.3671 52 47.9951 52C46.623 52 45.3071 51.4546 44.3369 50.4844C43.3667 49.5142 42.8212 48.1982 42.8212 46.8262C42.8213 46.6039 42.8361 46.3831 42.8642 46.165L36.9189 42.4492L28.6386 47.625C28.4658 47.7394 28.2711 47.8183 28.0673 47.8564C27.8637 47.8946 27.6545 47.8917 27.4521 47.8477C27.2496 47.8036 27.0581 47.7189 26.8886 47.5996C26.7192 47.4803 26.5745 47.3291 26.4648 47.1533C26.355 46.9775 26.2817 46.7808 26.249 46.5762C26.2162 46.3716 26.225 46.1622 26.2744 45.9609C26.3238 45.7597 26.4133 45.5705 26.5371 45.4043C26.6608 45.2381 26.8164 45.0982 26.9951 44.9932L33.9912 40.6191L26.9951 36.2471C26.8165 36.1421 26.6608 36.002 26.5371 35.8359C26.4133 35.6697 26.3238 35.4796 26.2744 35.2783C26.225 35.0771 26.2162 34.8677 26.249 34.6631C26.2817 34.4586 26.3552 34.2626 26.4648 34.0869C26.5746 33.9111 26.7191 33.759 26.8886 33.6396C27.0581 33.5204 27.2497 33.4366 27.4521 33.3926C27.6545 33.3486 27.8637 33.3447 28.0673 33.3828C28.2711 33.421 28.4658 33.4999 28.6386 33.6143L36.9199 38.79L42.8652 35.0732C42.8369 34.8545 42.8212 34.6331 42.8212 34.4102C42.8212 33.0381 43.3667 31.7222 44.3369 30.752C45.3071 29.7818 46.623 29.2363 47.9951 29.2363ZM47.9951 44.7568C47.4462 44.7568 46.9193 44.9752 46.5312 45.3633C46.1434 45.7513 45.9258 46.2776 45.9257 46.8262C45.9257 47.375 46.1432 47.902 46.5312 48.29C46.9193 48.6781 47.4462 48.8955 47.9951 48.8955C48.5437 48.8955 49.0699 48.6779 49.458 48.29C49.846 47.902 50.0644 47.375 50.0644 46.8262C50.0643 46.2775 49.846 45.7513 49.458 45.3633C49.0699 44.9753 48.5438 44.7569 47.9951 44.7568ZM47.9951 32.3408C47.4462 32.3408 46.9193 32.5592 46.5312 32.9473C46.1434 33.3353 45.9257 33.8615 45.9257 34.4102C45.9257 34.9588 46.1434 35.485 46.5312 35.873C46.9193 36.2611 47.4462 36.4795 47.9951 36.4795C48.5439 36.4795 49.0699 36.2611 49.458 35.873C49.846 35.485 50.0644 34.959 50.0644 34.4102C50.0644 33.8614 49.846 33.3353 49.458 32.9473C49.0699 32.5592 48.5439 32.3409 47.9951 32.3408Z" fill="#FCB635"/>
<path fill-rule="evenodd" clip-rule="evenodd" d="M53.1671 22.6787C53.1671 23.1414 52.9833 23.5851 52.6562 23.9123C52.329 24.2394 51.8853 24.4232 51.4226 24.4232C50.9599 24.4232 50.5162 24.2394 50.189 23.9123C49.8619 23.5851 49.6781 23.1414 49.6781 22.6787V8.72259C49.6781 7.33456 49.1267 6.00339 48.1452 5.02191C47.1637 4.04042 45.8325 3.48903 44.4445 3.48903H9.55418C8.16615 3.48903 6.83498 4.04042 5.8535 5.02191C4.87201 6.00339 4.32062 7.33456 4.32062 8.72259V28.4938C4.32062 29.8818 4.87201 31.213 5.8535 32.1945C6.83498 33.1759 8.16615 33.7273 9.55418 33.7273H17.6953C18.1579 33.7273 18.6017 33.9111 18.9288 34.2383C19.256 34.5655 19.4398 35.0092 19.4398 35.4718C19.4398 35.9345 19.256 36.3782 18.9288 36.7054C18.6017 37.0326 18.1579 37.2164 17.6953 37.2164H9.55418C7.2408 37.2164 5.02218 36.2974 3.38638 34.6616C1.75057 33.0258 0.831589 30.8072 0.831589 28.4938V8.72259C0.831589 6.40921 1.75057 4.19059 3.38638 2.55479C5.02218 0.918984 7.2408 0 9.55418 0H44.4445C46.7579 0 48.9765 0.918984 50.6123 2.55479C52.2481 4.19059 53.1671 6.40921 53.1671 8.72259V22.6787Z" fill="white"/>
<path fill-rule="evenodd" clip-rule="evenodd" d="M34.4529 21.0674L24.9906 27.0895C24.5507 27.3676 24.0443 27.5227 23.5241 27.5387C23.0039 27.5547 22.4889 27.431 22.0327 27.1805C21.5765 26.93 21.1958 26.5617 20.9301 26.1142C20.6645 25.6666 20.5237 25.156 20.5223 24.6355V12.5914C20.5222 12.0703 20.6621 11.5588 20.9273 11.1103C21.1926 10.6618 21.5735 10.2929 22.0303 10.0421C22.487 9.79124 23.0027 9.66776 23.5235 9.68454C24.0443 9.70132 24.551 9.85774 24.9906 10.1374L34.4529 16.1595C34.8655 16.4224 35.2051 16.7851 35.4404 17.214C35.6756 17.6429 35.799 18.1243 35.799 18.6135C35.799 19.1027 35.6756 19.584 35.4404 20.0129C35.2051 20.4418 34.8655 20.8045 34.4529 21.0674ZM24.0114 13.6497V23.5772L31.8105 18.6135L24.0114 13.6497Z" fill="white"/>
</svg>
