<svg width="25" height="24" viewBox="0 0 25 24" fill="none" xmlns="http://www.w3.org/2000/svg">
<path d="M23.7795 11.4156C21.9267 11.0272 20.4786 9.57909 20.0902 7.72635C20.0539 7.55304 19.9591 7.3975 19.8216 7.28586C19.6841 7.17423 19.5125 7.11329 19.3354 7.11328C19.1583 7.11328 18.9866 7.1742 18.8491 7.28583C18.7117 7.39746 18.6168 7.55299 18.5805 7.7263C18.1921 9.57909 16.744 11.0272 14.8912 11.4156C14.7179 11.4519 14.5624 11.5468 14.4508 11.6843C14.3392 11.8217 14.2783 11.9934 14.2783 12.1704C14.2783 12.3475 14.3392 12.5191 14.4508 12.6566C14.5624 12.7941 14.7179 12.8889 14.8912 12.9253C16.7439 13.3137 18.192 14.7618 18.5804 16.6146C18.6167 16.7879 18.7116 16.9434 18.849 17.0551C18.9865 17.1667 19.1582 17.2276 19.3353 17.2276C19.5123 17.2276 19.684 17.1667 19.8215 17.0551C19.9589 16.9434 20.0538 16.7879 20.0901 16.6146C20.4786 14.7618 21.9267 13.3137 23.7794 12.9254C23.9527 12.8891 24.1083 12.7942 24.2199 12.6568C24.3316 12.5193 24.3925 12.3476 24.3925 12.1705C24.3925 11.9935 24.3316 11.8218 24.22 11.6843C24.1083 11.5468 23.9528 11.452 23.7795 11.4156Z" fill="#70757F"/>
<path d="M14.2088 6.40614C11.2995 5.79625 9.02555 3.5223 8.41575 0.612952C8.3794 0.439654 8.28452 0.284141 8.14705 0.172527C8.00959 0.0609132 7.83791 -5.4972e-06 7.66084 3.72061e-10C7.48376 5.49795e-06 7.31209 0.0609349 7.17463 0.172558C7.03717 0.28418 6.9423 0.439698 6.90596 0.612999C6.29611 3.5223 4.02216 5.7962 1.11286 6.406C0.939589 6.44237 0.784102 6.53725 0.672506 6.6747C0.560911 6.81216 0.5 6.98382 0.5 7.16087C0.5 7.33792 0.560911 7.50959 0.672506 7.64704C0.784102 7.7845 0.939589 7.87937 1.11286 7.91575C4.02211 8.52564 6.29597 10.7995 6.90582 13.7088C6.94215 13.8822 7.03701 14.0377 7.17447 14.1493C7.31193 14.261 7.48361 14.3219 7.66069 14.3219C7.83777 14.3219 8.00946 14.261 8.14692 14.1493C8.28438 14.0377 8.37924 13.8822 8.41557 13.7088C9.02546 10.7995 11.2995 8.52564 14.2088 7.91589C14.3821 7.87956 14.5376 7.78471 14.6492 7.64725C14.7609 7.5098 14.8218 7.33811 14.8218 7.16103C14.8218 6.98395 14.7609 6.81226 14.6493 6.6748C14.5376 6.53734 14.3821 6.44247 14.2088 6.40614ZM12.9338 19.1477C11.5631 18.8604 10.4917 17.789 10.2043 16.4182C10.168 16.2449 10.0731 16.0893 9.93568 15.9777C9.79822 15.866 9.62654 15.8051 9.44946 15.8051C9.27238 15.8051 9.10069 15.866 8.96323 15.9777C8.82577 16.0893 8.7309 16.2448 8.69457 16.4181C8.40718 17.7889 7.33575 18.8603 5.96504 19.1476C5.79176 19.184 5.63627 19.2789 5.52468 19.4163C5.41308 19.5538 5.35217 19.7254 5.35217 19.9025C5.35217 20.0795 5.41308 20.2512 5.52468 20.3886C5.63627 20.5261 5.79176 20.621 5.96504 20.6574C7.33571 20.9447 8.40713 22.0161 8.69447 23.3869C8.7308 23.5602 8.82566 23.7157 8.96312 23.8274C9.10058 23.939 9.27227 23.9999 9.44935 23.9999C9.62643 23.9999 9.79811 23.939 9.93557 23.8274C10.073 23.7157 10.1679 23.5602 10.2042 23.3869C10.4916 22.0161 11.563 20.9447 12.9338 20.6574C13.1071 20.621 13.2626 20.5262 13.3742 20.3887C13.4858 20.2512 13.5467 20.0796 13.5467 19.9025C13.5467 19.7255 13.4858 19.5538 13.3742 19.4164C13.2626 19.2789 13.1071 19.184 12.9338 19.1477Z" fill="#70757F"/>
</svg>
