<svg width="33" height="32" viewBox="0 0 33 32" fill="none" xmlns="http://www.w3.org/2000/svg">
<path d="M31.5393 15.2209C29.0689 14.703 27.1381 12.7721 26.6203 10.3018C26.5719 10.0707 26.4454 9.86333 26.2621 9.71448C26.0789 9.56563 25.8499 9.48438 25.6138 9.48438C25.3777 9.48437 25.1488 9.56561 24.9655 9.71444C24.7822 9.86328 24.6558 10.0707 24.6073 10.3017C24.0894 12.7721 22.1586 14.7029 19.6882 15.2207C19.4572 15.2692 19.2499 15.3957 19.1011 15.579C18.9523 15.7623 18.8711 15.9912 18.8711 16.2272C18.8711 16.4633 18.9523 16.6922 19.1011 16.8755C19.2499 17.0587 19.4572 17.1852 19.6882 17.2337C22.1586 17.7516 24.0894 19.6824 24.6072 22.1528C24.6556 22.3839 24.7821 22.5913 24.9654 22.7401C25.1487 22.889 25.3776 22.9702 25.6137 22.9702C25.8498 22.9702 26.0787 22.889 26.262 22.7401C26.4453 22.5913 26.5717 22.3839 26.6202 22.1528C27.1381 19.6824 29.0689 17.7516 31.5392 17.2339C31.7703 17.1854 31.9777 17.059 32.1266 16.8757C32.2754 16.6924 32.3567 16.4635 32.3567 16.2274C32.3567 15.9913 32.2754 15.7624 32.1266 15.5791C31.9778 15.3958 31.7704 15.2693 31.5393 15.2209Z" fill="white"/>
<path d="M18.7784 8.54152C14.8993 7.72833 11.8674 4.69639 11.0543 0.81727C11.0059 0.586205 10.8794 0.378855 10.6961 0.230036C10.5128 0.0812176 10.2839 -7.3296e-06 10.0478 4.96082e-10C9.81169 7.3306e-06 9.58278 0.0812465 9.39951 0.230077C9.21623 0.378907 9.08974 0.586265 9.04128 0.817332C8.22815 4.69639 5.19621 7.72827 1.31715 8.54133C1.08612 8.58983 0.878803 8.71633 0.730009 8.89961C0.581214 9.08288 0.5 9.31176 0.5 9.54783C0.5 9.7839 0.581214 10.0128 0.730009 10.1961C0.878803 10.3793 1.08612 10.5058 1.31715 10.5543C5.19615 11.3675 8.22796 14.3994 9.04109 18.2785C9.08953 18.5095 9.21601 18.7169 9.39929 18.8658C9.58257 19.0146 9.81148 19.0959 10.0476 19.0959C10.2837 19.0959 10.5126 19.0146 10.6959 18.8658C10.8792 18.7169 11.0056 18.5095 11.0541 18.2785C11.8673 14.3994 14.8993 11.3675 18.7783 10.5545C19.0094 10.5061 19.2168 10.3796 19.3657 10.1963C19.5145 10.0131 19.5958 9.78415 19.5958 9.54804C19.5958 9.31194 19.5145 9.08302 19.3657 8.89974C19.2169 8.71645 19.0095 8.58996 18.7784 8.54152ZM17.0784 25.5302C15.2508 25.1471 13.8223 23.7186 13.4391 21.8909C13.3907 21.6598 13.2642 21.4524 13.0809 21.3036C12.8976 21.1547 12.6687 21.0735 12.4326 21.0735C12.1965 21.0735 11.9676 21.1547 11.7843 21.3035C11.601 21.4524 11.4745 21.6597 11.4261 21.8908C11.0429 23.7185 9.61434 25.147 7.78671 25.5301C7.55568 25.5786 7.34836 25.7051 7.19957 25.8884C7.05078 26.0717 6.96956 26.3006 6.96956 26.5366C6.96956 26.7727 7.05078 27.0016 7.19957 27.1849C7.34836 27.3681 7.55568 27.4946 7.78671 27.5431C9.61428 27.9263 11.0428 29.3548 11.426 31.1825C11.4744 31.4136 11.6009 31.621 11.7842 31.7698C11.9674 31.9187 12.1964 31.9999 12.4325 31.9999C12.6686 31.9999 12.8975 31.9187 13.0808 31.7698C13.264 31.621 13.3905 31.4136 13.439 31.1825C13.8222 29.3548 15.2507 27.9263 17.0784 27.5432C17.3094 27.4947 17.5167 27.3682 17.6655 27.1849C17.8143 27.0017 17.8956 26.7728 17.8956 26.5367C17.8956 26.3006 17.8143 26.0718 17.6655 25.8885C17.5167 25.7052 17.3094 25.5787 17.0784 25.5302Z" fill="url(#paint0_linear_9005_13001)"/>
<defs>
<linearGradient id="paint0_linear_9005_13001" x1="0.5" y1="16" x2="19.5958" y2="16" gradientUnits="userSpaceOnUse">
<stop stop-color="#F7F0AC"/>
<stop offset="0.5" stop-color="#ACF7F0"/>
<stop offset="1" stop-color="#F0ACF7"/>
</linearGradient>
</defs>
</svg>
