<svg width="43" height="50" viewBox="0 0 43 50" fill="none" xmlns="http://www.w3.org/2000/svg">
<path d="M15.3836 35.5838L15.543 36.0468C15.5177 35.9938 15.4594 35.8318 15.3836 35.5838ZM7.98016 32.2909C8.26012 29.8039 9.21082 28.411 11.0024 26.983C13.5658 25.049 16.7678 26.143 16.7678 26.143V19.6522C17.5463 19.6317 18.325 19.6815 19.095 19.8012V28.152C19.095 28.152 15.8939 27.058 13.3305 28.9919C11.5399 30.4199 10.5873 31.8139 10.3083 34.3008C10.2996 35.6528 10.5358 37.4187 11.6235 38.9457C11.3546 38.7977 11.0805 38.629 10.8012 38.4397C8.40496 36.7127 7.96849 34.1228 7.98016 32.2909ZM32.3164 7.65252C30.553 5.57858 29.8862 3.48463 29.6451 2.01367H31.8634C31.8634 2.01367 31.4211 5.87057 34.6445 9.66347L34.6892 9.71446C33.8205 9.12793 33.0237 8.4356 32.3164 7.65252Z" fill="#EE1D52"/>
<path d="M43.0025 13.532V21.7147C43.0025 21.7147 40.1718 21.5967 38.077 21.0238C35.152 20.2238 33.2719 18.9978 33.2719 18.9978C33.2719 18.9978 31.9732 18.1218 31.8682 18.0618V34.9664C31.8682 35.9064 31.6281 38.2563 30.8962 40.2172C29.9406 42.7812 28.4659 44.4641 28.1947 44.8071C28.1947 44.8071 26.4012 47.0831 23.2371 48.615C20.385 49.997 17.8809 49.962 17.1324 49.997C17.1324 49.997 12.8037 50.181 8.9085 47.463C8.06585 46.865 7.27956 46.1871 6.55994 45.4381L6.57938 45.4521C10.4755 48.17 14.8032 47.986 14.8032 47.986C15.5527 47.951 18.0568 47.986 20.908 46.6041C24.0702 45.0721 25.8656 42.7962 25.8656 42.7962C26.1339 42.4532 27.6154 40.7702 28.567 38.2053C29.2971 36.2453 29.5391 33.8954 29.5391 32.9544V16.0509C29.6441 16.1119 30.9428 16.9879 30.9428 16.9879C30.9428 16.9879 32.8228 18.2158 35.7478 19.0138C37.8437 19.5858 40.6734 19.7048 40.6734 19.7048V13.293C41.6416 13.526 42.4669 13.59 43.0025 13.532Z" fill="#EE1D52"/>
<path d="M40.6735 13.2934V19.7042C40.6735 19.7042 37.8438 19.5852 35.748 19.0132C32.823 18.2132 30.9429 16.9873 30.9429 16.9873C30.9429 16.9873 29.6442 16.1113 29.5392 16.0503V32.9508C29.5392 33.8918 29.2991 36.2418 28.5672 38.2017C27.6116 40.7666 26.1369 42.4496 25.8657 42.7926C25.8657 42.7926 24.0722 45.0685 20.9081 46.6005C18.0569 47.9824 15.5529 47.9474 14.8034 47.9824C14.8034 47.9824 10.4756 48.1664 6.57951 45.4485L6.56007 45.4345C6.14895 45.0068 5.76176 44.5554 5.40037 44.0825C4.15707 42.4546 3.39495 40.5316 3.20345 39.9826C3.20287 39.9804 3.20287 39.9779 3.20345 39.9756C2.89433 39.0207 2.24691 36.7307 2.33537 34.5118C2.49188 30.5959 3.77504 28.194 4.11429 27.591C5.0132 25.9497 6.18214 24.4813 7.56909 23.2511C8.79229 22.1885 10.1794 21.3436 11.6732 20.7512C12.6047 20.353 13.5753 20.0596 14.5681 19.8762C15.2943 19.7426 16.0295 19.6674 16.767 19.6512V26.138C16.767 26.138 13.5649 25.0441 11.0015 26.978C9.20998 28.406 8.25928 29.7989 7.97931 32.2859C7.96765 34.1178 8.40412 36.7077 10.7984 38.4367C11.077 38.6267 11.3512 38.7953 11.6208 38.9427C12.0393 39.5242 12.5481 40.0309 13.1265 40.4426C15.4654 42.0316 17.4251 42.1426 19.9311 41.1106C21.6041 40.4296 22.8571 38.8747 23.4511 37.1507C23.8175 36.0748 23.8127 34.9908 23.8127 33.8718V2.01367H29.6452C29.8863 3.48463 30.5531 5.57858 32.3165 7.65252C33.0239 8.4356 33.8206 9.12793 34.6894 9.71447C34.946 9.99946 36.2583 11.4074 37.9429 12.2734C38.812 12.7202 39.7283 13.0625 40.6735 13.2934Z" fill="white"/>
<path d="M0.879545 37.9883V37.9943L1.02341 38.4153C1.00786 38.3663 0.953424 38.2173 0.879545 37.9883Z" fill="#69C9D0"/>
<path d="M11.6717 20.7541C10.1778 21.3465 8.7907 22.1915 7.5675 23.254C6.18045 24.4871 5.01213 25.9586 4.11465 27.6029C3.77539 28.2029 2.49223 30.6078 2.33573 34.5237C2.24727 36.7427 2.89468 39.0326 3.2038 39.9876C3.20323 39.9899 3.20323 39.9923 3.2038 39.9946C3.39822 40.5386 4.15742 42.4615 5.40072 44.0945C5.76212 44.5673 6.14931 45.0187 6.56042 45.4464C5.24246 44.5088 4.06704 43.3751 3.07257 42.0825C1.83996 40.4696 1.07979 38.5656 0.881485 38.0036L0.876624 37.9916V37.9836C0.5675 37.0317 -0.0818536 34.7397 0.00855059 32.5178C0.165057 28.6019 1.44821 26.2 1.78747 25.597C2.68469 23.9524 3.85304 22.4809 5.24033 21.2481C6.46327 20.1852 7.85047 19.3402 9.34448 18.7482C10.2759 18.35 11.2466 18.0566 12.2394 17.8732C13.7353 17.604 15.2633 17.5807 16.7664 17.8042V19.6541C16.029 19.6681 15.2939 19.7409 14.5675 19.8721C13.5741 20.0578 12.6032 20.3535 11.6717 20.7541Z" fill="#69C9D0"/>
<path d="M29.6432 2.01294H23.8106V33.8731C23.8106 34.9921 23.8155 36.073 23.449 37.152C22.8599 38.874 21.6069 40.4289 19.9369 41.1189C17.4299 42.1549 15.4701 42.0399 13.1323 40.4509C12.5538 40.0392 12.0451 39.5325 11.6265 38.9509C13.6183 40.0439 15.4011 40.0249 17.6097 39.1129C19.27 38.418 20.5337 36.863 21.117 35.14C21.4844 34.0641 21.4796 32.9801 21.4796 31.8621V0H29.5333C29.5333 0 29.4419 0.792978 29.6432 2.01294ZM40.6725 11.5207V13.2926C39.7268 13.0618 38.8103 12.7196 37.9409 12.2727C36.2563 11.4067 34.944 9.99873 34.6873 9.71374C34.9849 9.9149 35.2939 10.0976 35.6128 10.2607C37.6609 11.3127 39.6732 11.6277 40.6725 11.5207Z" fill="#69C9D0"/>
</svg>
