<svg width="37" height="48" viewBox="0 0 37 48" fill="none" xmlns="http://www.w3.org/2000/svg">
<path d="M9.38358 33.5838L9.543 34.0468C9.51773 33.9938 9.4594 33.8318 9.38358 33.5838ZM1.98016 30.2909C2.26012 27.8039 3.21082 26.411 5.00238 24.983C7.56577 23.049 10.7678 24.143 10.7678 24.143V17.6522C11.5463 17.6317 12.325 17.6815 13.095 17.8012V26.152C13.095 26.152 9.89392 25.058 7.33053 26.9919C5.53994 28.4199 4.58729 29.8139 4.30831 32.3008C4.29956 33.6528 4.53578 35.4187 5.62354 36.9457C5.3546 36.7977 5.08047 36.629 4.80115 36.4397C2.40496 34.7127 1.96849 32.1228 1.98016 30.2909ZM26.3164 5.65252C24.553 3.57857 23.8862 1.48463 23.6451 0.0136714H25.8634C25.8634 0.0136714 25.4211 3.87057 28.6445 7.66346L28.6892 7.71446C27.8205 7.12793 27.0237 6.4356 26.3164 5.65252Z" fill="#EE1D52"/>
<path d="M37.0025 11.532V19.7147C37.0025 19.7147 34.1718 19.5967 32.077 19.0238C29.152 18.2238 27.2719 16.9978 27.2719 16.9978C27.2719 16.9978 25.9732 16.1218 25.8682 16.0618V32.9664C25.8682 33.9064 25.6281 36.2563 24.8962 38.2172C23.9406 40.7812 22.4659 42.4641 22.1947 42.8071C22.1947 42.8071 20.4012 45.0831 17.2371 46.615C14.385 47.997 11.8809 47.962 11.1324 47.997C11.1324 47.997 6.80366 48.181 2.9085 45.463C2.06585 44.865 1.27956 44.1871 0.559937 43.4381L0.579378 43.4521C4.47551 46.17 8.80324 45.986 8.80324 45.986C9.55272 45.951 12.0568 45.986 14.908 44.6041C18.0702 43.0721 19.8656 40.7962 19.8656 40.7962C20.1339 40.4532 21.6154 38.7702 22.567 36.2053C23.2971 34.2453 23.5391 31.8954 23.5391 30.9544V14.0509C23.6441 14.1119 24.9428 14.9879 24.9428 14.9879C24.9428 14.9879 26.8228 16.2158 29.7478 17.0138C31.8437 17.5858 34.6734 17.7048 34.6734 17.7048V11.293C35.6416 11.526 36.4669 11.59 37.0025 11.532Z" fill="#EE1D52"/>
</svg>
