<svg width="60" height="14" viewBox="0 0 60 14" fill="none" xmlns="http://www.w3.org/2000/svg">
<path d="M55.1836 10.2636C55.1836 10.2636 54.896 10.747 55.2494 10.855C55.2494 10.855 55.6485 11.0056 56.1462 10.5593C56.1462 10.5593 59.7763 7.49579 59.8638 1.9182C59.8638 1.9182 59.8905 1.22157 59.6011 1.03104C59.6011 1.03104 58.4639 0.0591004 54.3745 0.354822C54.3745 0.354822 50.8098 0.587316 48.8638 2.25645C48.8638 2.25645 48.6888 2.40417 48.6888 2.59414C48.6888 2.59414 48.6469 3.0044 49.7166 2.82663C49.7166 2.82663 53.281 2.34038 55.4023 2.59414C55.4023 2.59414 56.4961 2.72087 56.8022 3.08039C56.8022 3.08039 57.3052 3.48187 57.0425 4.81247C57.0425 4.81304 56.3206 8.19327 55.1836 10.2636Z" fill="#F3971B"/>
<path d="M54.4652 4.9124C54.4652 4.9124 54.9976 5.57869 54.1386 6.15341C54.1386 6.15341 44.9622 13.2445 29.5544 13.2445C29.5544 13.2445 13.694 14.0004 0.450573 2.37566C0.450573 2.37566 -0.013716 1.98184 0.274484 1.6158C0.274484 1.6158 0.532161 1.27897 1.19925 1.64529C1.19925 1.64529 13.6573 9.14493 30.019 9.14493C30.019 9.14493 41.3914 9.57022 53.0574 4.75022C53.0574 4.75022 53.9868 4.28495 54.4652 4.9124Z" fill="#F3971B"/>
</svg>
