<svg width="52" height="54" viewBox="0 0 52 54" fill="none" xmlns="http://www.w3.org/2000/svg">
<path d="M10.9994 31C7.45515 31 4.57087 33.8821 4.57087 37.4286V40.9507C3.32126 41.3909 2.23848 42.2069 1.47115 43.287C0.703818 44.367 0.289533 45.658 0.285156 46.9829C0.285156 50.5293 3.16944 53.4114 6.71373 53.4114C10.258 53.4114 13.1423 50.5293 13.1423 46.9829C13.1379 45.658 12.7236 44.367 11.9563 43.287C11.189 42.2069 10.1062 41.3909 8.85658 40.9507V37.4286C8.85658 36.2457 9.81873 35.2857 10.9994 35.2857H23.8566V40.9507C22.607 41.3909 21.5242 42.2069 20.7569 43.287C19.9895 44.367 19.5752 45.658 19.5709 46.9829C19.5709 50.5293 22.453 53.4114 25.9994 53.4114C29.5459 53.4114 32.428 50.5293 32.428 46.9829C32.4236 45.658 32.0093 44.367 31.242 43.287C30.4747 42.2069 29.3919 41.3909 28.1423 40.9507V35.2857H40.9994C42.1801 35.2857 43.1423 36.2457 43.1423 37.4286V40.9507C41.8927 41.3909 40.8099 42.2069 40.0426 43.287C39.2752 44.367 38.861 45.658 38.8566 46.9829C38.8566 50.5293 41.7409 53.4114 45.2851 53.4114C48.8294 53.4114 51.7137 50.5293 51.7137 46.9829C51.7093 45.658 51.2951 44.367 50.5277 43.287C49.7604 42.2069 48.6776 41.3909 47.428 40.9507V37.4286C47.428 33.8821 44.5437 31 40.9994 31H28.1423V25.7143H45.2851C48.8294 25.7143 51.7137 22.83 51.7137 19.2857V6.42857C51.7137 2.88214 48.8294 0 45.2851 0H6.71373C3.16944 0 0.285156 2.88214 0.285156 6.42857V19.2857C0.285156 22.83 3.16944 25.7143 6.71373 25.7143H23.8566V31H10.9994ZM6.71373 49.1257C6.28991 49.1257 5.87561 49 5.52322 48.7646C5.17083 48.5291 4.89617 48.1945 4.73398 47.8029C4.5718 47.4113 4.52936 46.9805 4.61204 46.5648C4.69473 46.1491 4.89881 45.7673 5.1985 45.4676C5.49818 45.1679 5.88 44.9639 6.29568 44.8812C6.71135 44.7985 7.14221 44.8409 7.53376 45.0031C7.92532 45.1653 8.25999 45.44 8.49545 45.7924C8.73091 46.1447 8.85658 46.559 8.85658 46.9829C8.85658 48.1657 7.89444 49.1257 6.71373 49.1257ZM25.9994 49.1257C25.5756 49.1257 25.1613 49 24.8089 48.7646C24.4565 48.5291 24.1819 48.1945 24.0197 47.8029C23.8575 47.4113 23.8151 46.9805 23.8978 46.5648C23.9804 46.1491 24.1845 45.7673 24.4842 45.4676C24.7839 45.1679 25.1657 44.9639 25.5814 44.8812C25.9971 44.7985 26.4279 44.8409 26.8195 45.0031C27.211 45.1653 27.5457 45.44 27.7812 45.7924C28.0166 46.1447 28.1423 46.559 28.1423 46.9829C28.1423 48.1657 27.178 49.1257 25.9994 49.1257ZM45.2851 49.1257C44.8613 49.1257 44.447 49 44.0946 48.7646C43.7423 48.5291 43.4676 48.1945 43.3054 47.8029C43.1432 47.4113 43.1008 46.9805 43.1835 46.5648C43.2662 46.1491 43.4702 45.7673 43.7699 45.4676C44.0696 45.1679 44.4514 44.9639 44.8671 44.8812C45.2828 44.7985 45.7136 44.8409 46.1052 45.0031C46.4967 45.1653 46.8314 45.44 47.0669 45.7924C47.3023 46.1447 47.428 46.559 47.428 46.9829C47.428 48.1657 46.4659 49.1257 45.2851 49.1257ZM4.57087 19.2857V6.42857C4.57087 5.24572 5.53301 4.28572 6.71373 4.28572H45.2851C46.4659 4.28572 47.428 5.24572 47.428 6.42857V19.2857C47.428 20.4643 46.4659 21.4286 45.2851 21.4286H6.71373C5.53301 21.4286 4.57087 20.4643 4.57087 19.2857Z" fill="white"/>
<path d="M26.0006 17.1417C28.3675 17.1417 30.2863 15.223 30.2863 12.856C30.2863 10.4891 28.3675 8.57031 26.0006 8.57031C23.6336 8.57031 21.7148 10.4891 21.7148 12.856C21.7148 15.223 23.6336 17.1417 26.0006 17.1417Z" fill="#FCB635"/>
<path d="M36.7126 15.0045H40.9983C41.5666 15.0045 42.1117 14.7787 42.5135 14.3768C42.9154 13.975 43.1412 13.4299 43.1412 12.8616C43.1412 12.2933 42.9154 11.7482 42.5135 11.3464C42.1117 10.9445 41.5666 10.7188 40.9983 10.7188H36.7126C36.1443 10.7188 35.5992 10.9445 35.1974 11.3464C34.7955 11.7482 34.5697 12.2933 34.5697 12.8616C34.5697 13.4299 34.7955 13.975 35.1974 14.3768C35.5992 14.7787 36.1443 15.0045 36.7126 15.0045ZM15.284 10.7188H10.9983C10.43 10.7188 9.88496 10.9445 9.4831 11.3464C9.08123 11.7482 8.85547 12.2933 8.85547 12.8616C8.85547 13.4299 9.08123 13.975 9.4831 14.3768C9.88496 14.7787 10.43 15.0045 10.9983 15.0045H15.284C15.8524 15.0045 16.3974 14.7787 16.7993 14.3768C17.2011 13.975 17.4269 13.4299 17.4269 12.8616C17.4269 12.2933 17.2011 11.7482 16.7993 11.3464C16.3974 10.9445 15.8524 10.7188 15.284 10.7188Z" fill="#FCB635"/>
</svg>
