<svg width="60" height="60" viewBox="0 0 60 60" fill="none" xmlns="http://www.w3.org/2000/svg">
<path d="M59.889 25.6125L53.0452 6.8625C52.7408 6.02591 52.2421 5.27354 51.5901 4.66725C50.9382 4.06096 50.1517 3.61807 49.2952 3.375C36.1702 -0.375 38.2702 0.20625 37.764 0.13125C37.2577 0.05625 39.789 0 22.5015 0C22.1452 0 20.739 0.43125 10.7078 3.3C9.8513 3.54307 9.06478 3.98596 8.41286 4.59225C7.76093 5.19854 7.26223 5.95091 6.95775 6.7875L0.114001 25.5375C-0.0403509 25.9678 -0.0321585 26.4397 0.137038 26.8645C0.306234 27.2892 0.624774 27.6374 1.03275 27.8438L11.2515 33.0375V56.25C11.2515 57.2446 11.6466 58.1984 12.3498 58.9016C13.0531 59.6049 14.0069 60 15.0015 60H20.6265C21.1238 60 21.6007 59.8025 21.9523 59.4508C22.304 59.0992 22.5015 58.6223 22.5015 58.125C22.5015 57.6277 22.304 57.1508 21.9523 56.7992C21.6007 56.4475 21.1238 56.25 20.6265 56.25H15.0015V24.375C15.0015 23.8777 14.804 23.4008 14.4523 23.0492C14.1007 22.6975 13.6238 22.5 13.1265 22.5C12.6292 22.5 12.1523 22.6975 11.8007 23.0492C11.449 23.4008 11.2515 23.8777 11.2515 24.375V28.8375L4.2015 25.3125L10.4828 8.0625C10.5849 7.78293 10.752 7.53169 10.9705 7.32954C11.1889 7.1274 11.4524 6.98016 11.739 6.9L20.6265 4.36875V5.625C20.6265 8.1114 21.6142 10.496 23.3724 12.2541C25.1305 14.0123 27.5151 15 30.0015 15C32.4879 15 34.8725 14.0123 36.6306 12.2541C38.3888 10.496 39.3765 8.1114 39.3765 5.625V4.36875L48.264 6.9C48.5506 6.98016 48.8141 7.1274 49.0325 7.32954C49.251 7.53169 49.4181 7.78293 49.5202 8.0625L55.8015 25.3125L48.7515 28.8375V24.375C48.7515 23.8777 48.554 23.4008 48.2023 23.0492C47.8507 22.6975 47.3738 22.5 46.8765 22.5C46.3792 22.5 45.9023 22.6975 45.5507 23.0492C45.199 23.4008 45.0015 23.8777 45.0015 24.375V56.25H28.1265C27.6292 56.25 27.1523 56.4475 26.8007 56.7992C26.449 57.1508 26.2515 57.6277 26.2515 58.125C26.2515 58.6223 26.449 59.0992 26.8007 59.4508C27.1523 59.8025 27.6292 60 28.1265 60H45.0015C45.9961 60 46.9499 59.6049 47.6531 58.9016C48.3564 58.1984 48.7515 57.2446 48.7515 56.25V33.0375L58.9702 27.9188C59.3782 27.7124 59.6968 27.3642 59.866 26.9395C60.0352 26.5147 60.0433 26.0428 59.889 25.6125ZM35.6265 5.625C35.6265 7.11684 35.0339 8.54758 33.979 9.60248C32.9241 10.6574 31.4933 11.25 30.0015 11.25C28.5097 11.25 27.0789 10.6574 26.024 9.60248C24.9691 8.54758 24.3765 7.11684 24.3765 5.625V3.75H35.6265V5.625Z" fill="white"/>
</svg>
