<svg width="52" height="44" viewBox="0 0 52 44" fill="none" xmlns="http://www.w3.org/2000/svg">
<path d="M51.0723 12.1755L26.7363 0.171687C26.5072 0.0587436 26.2553 0 25.9999 0C25.7445 0 25.4926 0.0587436 25.2635 0.171687L0.927464 12.1755C0.649099 12.3131 0.414746 12.5258 0.250861 12.7896C0.0869766 13.0533 8.6546e-05 13.3576 0 13.6682C0.00020402 13.9787 0.0871425 14.2829 0.251014 14.5467C0.414885 14.8104 0.649173 15.0231 0.927464 15.1608L25.2634 27.1646C25.496 27.2791 25.7475 27.3359 25.9999 27.3359C26.2522 27.3359 26.5037 27.2791 26.7363 27.1646L39.3063 20.9644V31.2954C39.3063 32.2148 40.0517 32.9602 40.9711 32.9602C41.8904 32.9602 42.6359 32.2149 42.6359 31.2954V19.3221L51.0724 15.1607C51.3508 15.0232 51.5853 14.8106 51.7492 14.5468C51.9131 14.283 52 13.9786 52 13.6681C52 13.3575 51.9131 13.0532 51.7491 12.7894C51.5852 12.5256 51.3507 12.313 51.0723 12.1755ZM40.9702 16.4328L30.4345 11.2778C29.6089 10.874 28.6119 11.2165 28.209 12.0413C27.8043 12.8668 28.1469 13.8638 28.9716 14.2676L37.1987 18.2929L25.9999 23.8162L5.42513 13.6682L25.9999 3.51915L46.5755 13.6681L40.9702 16.4328Z" fill="white"/>
<path d="M36.2629 26.1719C35.3436 26.1719 34.599 26.9173 34.599 27.8367V35.5547C34.599 37.6242 31.0676 39.9298 25.9993 39.9298C20.9311 39.9298 17.3997 37.6242 17.3997 35.5547V27.8367C17.3997 26.9174 16.6543 26.1719 15.7358 26.1719C14.8173 26.1719 14.0719 26.9173 14.0719 27.8367V35.5547C14.0719 39.8747 19.3114 43.2575 25.9992 43.2575C32.688 43.2575 37.9266 39.8747 37.9275 35.5547V27.8367C37.9277 26.9173 37.1823 26.1719 36.2629 26.1719Z" fill="#FCB635"/>
</svg>
