<svg width="25" height="23" viewBox="0 0 25 23" fill="none" xmlns="http://www.w3.org/2000/svg">
<path d="M22.1241 13.6233C21.9869 13.5751 21.8416 13.5544 21.6965 13.5624C21.5513 13.5703 21.4092 13.6069 21.2781 13.6698C21.1471 13.7327 21.0297 13.8209 20.9328 13.9292C20.8358 14.0375 20.7611 14.1639 20.713 14.301C19.4685 17.8455 16.1019 20.2233 12.3352 20.2233C8.56855 20.2233 5.54633 18.0455 4.16855 14.7788C4.59077 14.7899 4.99077 14.5677 5.19077 14.1677C5.25669 14.0373 5.29604 13.8951 5.30655 13.7494C5.31707 13.6036 5.29853 13.4573 5.25201 13.3187C5.2055 13.1802 5.13193 13.0523 5.03559 12.9425C4.93924 12.8326 4.82204 12.743 4.69077 12.6788L2.70189 11.6899C2.43522 11.5566 2.13522 11.5344 1.85744 11.6233C1.57966 11.7121 1.34633 11.9121 1.213 12.1788L0.224109 14.1677C0.158196 14.2981 0.11884 14.4403 0.108328 14.586C0.0978157 14.7318 0.116355 14.8782 0.162871 15.0167C0.209387 15.1552 0.282953 15.2831 0.379297 15.3929C0.475642 15.5028 0.592847 15.5924 0.724109 15.6566C0.935792 15.7647 1.17674 15.8014 1.41101 15.7614C1.64529 15.7213 1.86034 15.6066 2.02411 15.4344C3.69077 19.6455 7.77966 22.4455 12.3352 22.4455C16.8908 22.4455 21.2463 19.4677 22.8019 15.0344C23.0019 14.4566 22.7019 13.8233 22.1241 13.6121V13.6233ZM23.9463 7.24548C23.5241 7.03437 23.0463 7.12326 22.713 7.41215C21.0908 3.11215 16.9574 0.234375 12.3352 0.234375C7.713 0.234375 3.42411 3.20104 1.86855 7.63437C1.66855 8.21215 1.96855 8.84548 2.54633 9.05659C3.12411 9.26771 3.75744 8.95659 3.95744 8.37882C5.20189 4.83437 8.56855 2.4566 12.3352 2.4566C16.1019 2.4566 19.3019 4.73437 20.613 8.1566C20.1574 8.10104 19.6908 8.31215 19.4797 8.74548C19.4137 8.87589 19.3744 9.01808 19.3639 9.16382C19.3534 9.30956 19.3719 9.45593 19.4184 9.59445C19.4649 9.73296 19.5385 9.86086 19.6348 9.97071C19.7312 10.0806 19.8484 10.1702 19.9797 10.2344L21.9685 11.2233C22.2324 11.3564 22.5383 11.3798 22.8194 11.2882C23.1004 11.1966 23.3338 10.9975 23.4685 10.7344L24.4574 8.74548C24.5233 8.61508 24.5627 8.47288 24.5732 8.32714C24.5837 8.18141 24.5652 8.03503 24.5187 7.89652C24.4722 7.758 24.3986 7.63011 24.3022 7.52026C24.2059 7.4104 24.0887 7.32078 23.9574 7.25659L23.9463 7.24548Z" fill="#FCB635"/>
<path d="M12.3333 14.6658H10.1111C9.5 14.6658 9 15.1658 9 15.7769C9 16.388 9.5 16.888 10.1111 16.888H11.2222V17.9991C11.2222 18.6102 11.7222 19.1102 12.3333 19.1102C12.9444 19.1102 13.4444 18.6102 13.4444 17.9991V16.688C14.7333 16.2325 15.6667 15.0102 15.6667 13.5547C15.6667 11.7214 14.1667 10.2214 12.3333 10.2214C11.7222 10.2214 11.2222 9.72135 11.2222 9.11024C11.2222 8.49913 11.7222 7.99913 12.3333 7.99913H14.5556C15.1667 7.99913 15.6667 7.49913 15.6667 6.88802C15.6667 6.27691 15.1667 5.77691 14.5556 5.77691H13.4444V4.6658C13.4444 4.05469 12.9444 3.55469 12.3333 3.55469C11.7222 3.55469 11.2222 4.05469 11.2222 4.6658V5.97691C9.93333 6.43247 9 7.65469 9 9.11024C9 10.9436 10.5 12.4436 12.3333 12.4436C12.9444 12.4436 13.4444 12.9436 13.4444 13.5547C13.4444 14.1658 12.9444 14.6658 12.3333 14.6658Z" fill="#FCB635"/>
</svg>
