<svg width="50" height="51" viewBox="0 0 50 51" fill="none" xmlns="http://www.w3.org/2000/svg">
<path d="M9.30232 10.5901C10.2656 10.5901 11.0465 9.80921 11.0465 8.84592C11.0465 7.88264 10.2656 7.10174 9.30232 7.10174C8.33903 7.10174 7.55813 7.88264 7.55813 8.84592C7.55813 9.80921 8.33903 10.5901 9.30232 10.5901Z" fill="#FCB635"/>
<path d="M15.1163 10.5901C16.0796 10.5901 16.8605 9.80921 16.8605 8.84592C16.8605 7.88264 16.0796 7.10174 15.1163 7.10174C14.153 7.10174 13.3721 7.88264 13.3721 8.84592C13.3721 9.80921 14.153 10.5901 15.1163 10.5901Z" fill="#FCB635"/>
<path d="M20.9302 10.5901C21.8935 10.5901 22.6744 9.80921 22.6744 8.84592C22.6744 7.88264 21.8935 7.10174 20.9302 7.10174C19.9669 7.10174 19.186 7.88264 19.186 8.84592C19.186 9.80921 19.9669 10.5901 20.9302 10.5901Z" fill="#FCB635"/>
<path fill-rule="evenodd" clip-rule="evenodd" d="M50 27.4506V7.68314C50 5.67859 49.2037 3.75615 47.7863 2.33873C46.3688 0.921301 44.4464 0.125 42.4418 0.125H7.55814C5.55359 0.125 3.63115 0.921301 2.21373 2.33873C0.796301 3.75615 0 5.67859 0 7.68314V42.5668C0 44.5714 0.796301 46.4938 2.21373 47.9113C3.63115 49.3287 5.55359 50.125 7.55814 50.125H25C25.4626 50.125 25.9062 49.9412 26.2333 49.6141C26.5604 49.287 26.7442 48.8434 26.7442 48.3808C26.7442 47.9182 26.5604 47.4746 26.2333 47.1475C25.9062 46.8204 25.4626 46.6366 25 46.6366H7.55814C6.47877 46.6366 5.44361 46.2078 4.68038 45.4446C3.91715 44.6814 3.48837 43.6462 3.48837 42.5668V7.68314C3.48837 5.4343 5.3093 3.61337 7.55814 3.61337H42.4418C44.6907 3.61337 46.5116 5.4343 46.5116 7.68314V27.4506C46.5116 27.9132 46.6954 28.3568 47.0225 28.6839C47.3496 29.011 47.7932 29.1948 48.2558 29.1948C48.7184 29.1948 49.162 29.011 49.4891 28.6839C49.8162 28.3568 50 27.9132 50 27.4506Z" fill="white"/>
<path fill-rule="evenodd" clip-rule="evenodd" d="M48.2558 14.0785H1.74419C1.2816 14.0785 0.837958 14.2622 0.51086 14.5893C0.183762 14.9164 0 15.3601 0 15.8227C0 16.2853 0.183762 16.7289 0.51086 17.056C0.837958 17.3831 1.2816 17.5668 1.74419 17.5668H48.2558C48.7184 17.5668 49.162 17.3831 49.4891 17.056C49.8162 16.7289 50 16.2853 50 15.8227C50 15.3601 49.8162 14.9164 49.4891 14.5893C49.162 14.2622 48.7184 14.0785 48.2558 14.0785Z" fill="white"/>
</svg>
