<svg width="50" height="50" viewBox="0 0 50 50" fill="none" xmlns="http://www.w3.org/2000/svg">
<path d="M49.0915 20.6785L46.3172 19.8637C45.7825 17.6494 44.9019 15.5332 43.708 13.5932L45.1003 11.0458C45.3787 10.5404 45.2859 9.92161 44.8837 9.51939L40.5108 5.14653C40.1086 4.74431 39.4795 4.65148 38.9844 4.92995L36.437 6.32225C34.4948 5.13253 32.3794 4.25224 30.1665 3.71297L29.3414 0.92836C29.1764 0.381751 28.6814 0.000156879 28.1038 0.000156879H21.9158C21.3486 0.000156879 20.8432 0.381751 20.6782 0.92836L19.8635 3.70266C17.6491 4.2374 15.533 5.11797 13.5929 6.31194L11.0455 4.91963C10.5402 4.64117 9.92137 4.73399 9.51915 5.13621L5.13597 9.50908C4.73375 9.9113 4.64093 10.5404 4.91939 11.0355L6.31169 13.5829C5.12198 15.5251 4.24169 17.6405 3.70241 19.8534L0.928116 20.6785C0.381507 20.8435 -8.72612e-05 21.3385 -8.72612e-05 21.9161V28.1041C-8.72612e-05 28.6713 0.381507 29.1767 0.928116 29.3417L3.70241 30.1564C4.23716 32.3708 5.11773 34.4869 6.31169 36.427L4.91939 38.9744C4.64093 39.4797 4.73375 40.0985 5.13597 40.5007L9.50884 44.8736C9.91106 45.2758 10.5402 45.3687 11.0352 45.0902L13.5826 43.6979C15.5248 44.8876 17.6403 45.7679 19.8531 46.3072L20.6679 49.0815C20.8329 49.6281 21.328 50.0097 21.9055 50.0097H28.0935C28.6608 50.0097 29.1661 49.6281 29.3311 49.0815L30.1459 46.3072C32.3602 45.7724 34.4764 44.8918 36.4164 43.6979L38.9638 45.0902C39.4692 45.3583 40.088 45.2758 40.4902 44.8736L44.8631 40.5007C45.2653 40.0985 45.3581 39.4694 45.0796 38.9744L43.6873 36.427C44.8771 34.4848 45.7573 32.3693 46.2966 30.1564L49.0709 29.3417C49.6175 29.1767 49.9991 28.6816 49.9991 28.1041V21.9161C50.0197 21.3488 49.6381 20.8435 49.0915 20.6785ZM47.4414 27.1346L44.8631 27.8978C44.4093 28.0319 44.0586 28.4135 43.9658 28.8776C43.4708 31.3012 42.5219 33.5805 41.1399 35.6638C40.8615 36.0763 40.8615 36.6126 41.0987 37.0251L42.3775 39.3663L39.366 42.3778L37.0662 41.1195C36.6433 40.8514 36.0967 40.8514 35.6635 41.1402C33.6043 42.5099 31.3001 43.4694 28.8773 43.966C28.4132 44.0589 28.0316 44.4095 27.8976 44.8633L27.1344 47.4416H22.875L22.1118 44.8633C21.9777 44.4095 21.5961 44.0589 21.132 43.966C18.7084 43.471 16.4291 42.5222 14.3458 41.1402C13.9333 40.8617 13.397 40.8617 12.9844 41.0989L10.6433 42.3778L7.6318 39.3663L8.89003 37.0664C9.15818 36.6435 9.15818 36.0969 8.86941 35.6638C7.49971 33.6045 6.54021 31.3004 6.04355 28.8776C6.00225 28.6476 5.89722 28.4339 5.74042 28.2606C5.58362 28.0874 5.38133 27.9617 5.1566 27.8978L2.57825 27.1346V22.8752L5.1566 22.112C5.61038 21.9779 5.96104 21.5963 6.05386 21.1322C6.5489 18.7086 7.49773 16.4293 8.87972 14.346C9.15818 13.9335 9.15818 13.3972 8.92097 12.9847L7.64212 10.6436L10.6536 7.63205L12.9535 8.89028C13.3764 9.15843 13.923 9.15843 14.3561 8.86965C16.4394 7.48766 18.729 6.53883 21.1423 6.0541C21.6064 5.96128 21.988 5.61063 22.1221 5.15684L22.8853 2.5785H27.1447L27.9079 5.15684C28.042 5.61063 28.4236 5.96128 28.8877 6.0541C31.3113 6.54914 33.5905 7.49797 35.6738 8.86965C36.0864 9.14811 36.6227 9.14811 37.0352 8.91091L39.3763 7.63205L42.3878 10.6436L41.1296 12.9434C40.8615 13.3663 40.8615 13.9129 41.1502 14.346C42.52 16.4053 43.4794 18.7095 43.9761 21.1322C44.0689 21.5963 44.4196 21.9779 44.8734 22.112L47.4517 22.8752V27.1346H47.4414Z" fill="white"/>
<path d="M25 12.0002C19.4889 12.0002 15 16.6072 15 22.2633C15 25.6752 16.6978 28.8591 19.4445 30.7566V34.123C19.4468 35.1505 19.8456 36.1353 20.5536 36.8619C21.2615 37.5885 22.221 37.9977 23.2223 38.0002H26.7778C27.779 37.9977 28.7385 37.5885 29.4465 36.8619C30.1545 36.1353 30.5532 35.1505 30.5556 34.123V30.7566C33.3023 28.8591 35 25.6752 35 22.2633C35 16.6072 30.5111 12.0002 25 12.0002ZM28.3334 34.123C28.3334 34.9988 27.6311 35.7195 26.7778 35.7195H23.2223C22.3689 35.7195 21.6667 34.9988 21.6667 34.123V31.2949H28.3334V34.123ZM29.1067 29.0142H20.8845C18.6178 27.5545 17.2134 25.0002 17.2134 22.2633C17.2134 17.8661 20.6978 14.2809 24.9911 14.2809C29.2845 14.2809 32.7689 17.8661 32.7689 22.2633C32.7778 25.0093 31.3734 27.5637 29.1067 29.0142Z" fill="#FCB635"/>
</svg>
