<svg width="56" height="52" viewBox="0 0 56 52" fill="none" xmlns="http://www.w3.org/2000/svg">
<path d="M50.5299 0.5H5.47266C2.82335 0.5 0.667969 2.65549 0.667969 5.30469V37.3359C0.667969 39.9852 2.82346 42.1406 5.47266 42.1406H19.3729L17.2375 48.5469H11.9857C11.1011 48.5469 10.3841 49.2638 10.3841 50.1484C10.3841 51.033 11.1011 51.75 11.9857 51.75H44.0169C44.9015 51.75 45.6185 51.033 45.6185 50.1484C45.6185 49.2638 44.9015 48.5469 44.0169 48.5469H38.7651L36.6297 42.1406H50.5299C53.1793 42.1406 55.3346 39.9851 55.3346 37.3359V5.30469C55.3346 2.65538 53.1791 0.5 50.5299 0.5ZM20.614 48.5469L22.7495 42.1406H33.253L35.3885 48.5469H20.614ZM52.1315 37.3359C52.1315 38.2189 51.4129 38.9375 50.5299 38.9375H5.47266C4.58966 38.9375 3.87109 38.2189 3.87109 37.3359V35.7344H52.1315V37.3359ZM18.1333 23.3265L16.6765 21.87L18.9412 19.6049L20.398 21.0617C20.6491 21.3128 20.9766 21.4733 21.3289 21.5181C21.6811 21.5628 22.0383 21.4891 22.3442 21.3087C23.2442 20.778 24.2052 20.3782 25.1998 20.1203C25.5433 20.0314 25.8476 19.8309 26.0648 19.5504C26.2819 19.2698 26.3998 18.925 26.3997 18.5702V16.5156H29.6029V18.5701C29.6028 18.925 29.7206 19.2698 29.9378 19.5504C30.155 19.831 30.4592 20.0315 30.8028 20.1204C31.7971 20.3782 32.7581 20.7781 33.658 21.3091C33.964 21.4894 34.3211 21.5629 34.6734 21.5181C35.0256 21.4733 35.353 21.3128 35.6041 21.0617L37.061 19.6049L39.3261 21.87L37.8693 23.3269C37.6182 23.5779 37.4577 23.9052 37.413 24.2575C37.3683 24.6097 37.4419 24.9668 37.6223 25.2725C38.1533 26.1729 38.5528 27.1339 38.8107 28.1282C38.8996 28.4717 39.1001 28.776 39.3806 28.9931C39.6612 29.2103 40.006 29.3282 40.3608 29.3281H42.4154V32.5313H35.8473C35.954 32.0066 36.0091 31.4698 36.0091 30.9297C36.0091 26.5142 32.4168 22.9219 28.0013 22.9219C23.5858 22.9219 19.9935 26.5142 19.9935 30.9297C19.9935 31.4698 20.0486 32.0066 20.1554 32.5313H13.5872V29.3281H15.6417C15.9966 29.3282 16.3414 29.2103 16.6221 28.9932C16.9028 28.776 17.1034 28.4718 17.1925 28.1282C17.4498 27.1339 17.8497 26.1729 18.3803 25.2725C18.5606 24.9666 18.6342 24.6095 18.5895 24.2573C18.5448 23.905 18.3843 23.5777 18.1333 23.3265ZM32.806 30.9297C32.806 31.4782 32.711 32.0198 32.5307 32.5313H23.4719C23.2902 32.0168 23.1971 31.4753 23.1966 30.9297C23.1966 28.2804 25.3521 26.125 28.0013 26.125C30.6505 26.125 32.806 28.2805 32.806 30.9297ZM52.1315 32.5313H45.6185V27.7266C45.6185 26.842 44.9015 26.125 44.0169 26.125H41.5428C41.3763 25.6583 41.1857 25.2006 40.9718 24.7536L42.7236 23.0024C43.3488 22.3767 43.3488 21.3628 42.7232 20.7372L38.1933 16.2074C37.893 15.9072 37.4857 15.7386 37.061 15.7387C36.6363 15.7386 36.229 15.9072 35.9286 16.2074L34.1774 17.9592C33.7305 17.7453 33.2727 17.5548 32.806 17.3886V14.9141C32.806 14.0295 32.089 13.3125 31.2044 13.3125H24.7982C23.9136 13.3125 23.1966 14.0295 23.1966 14.9141V17.3886C22.7299 17.5548 22.2721 17.7453 21.8253 17.9592L20.074 16.2074C19.7735 15.9072 19.3662 15.7385 18.9414 15.7385C18.5167 15.7385 18.1093 15.9072 17.8089 16.2074L13.2794 20.7372C12.6537 21.3629 12.6537 22.3768 13.2794 23.0024L15.0308 24.7541C14.817 25.2009 14.6265 25.6585 14.4602 26.125H11.9857C11.1011 26.125 10.3841 26.8424 10.3841 27.7266V32.5313H3.87109V5.30469C3.87109 4.42169 4.58966 3.70313 5.47266 3.70313H50.5299C51.4129 3.70313 52.1315 4.42169 52.1315 5.30469V32.5313Z" fill="white"/>
<path d="M44.0156 6.90625C41.3663 6.90625 39.2109 9.06174 39.2109 11.7109C39.2109 14.3601 41.3664 16.5156 44.0156 16.5156C46.6648 16.5156 48.8203 14.3601 48.8203 11.7109C48.8203 9.06174 46.6648 6.90625 44.0156 6.90625ZM44.0156 13.3125C43.1326 13.3125 42.4141 12.5939 42.4141 11.7109C42.4141 10.8279 43.1326 10.1094 44.0156 10.1094C44.8986 10.1094 45.6172 10.8279 45.6172 11.7109C45.6172 12.5939 44.8986 13.3125 44.0156 13.3125Z" fill="#FCB635"/>
</svg>
