<svg width="192" height="44" viewBox="0 0 192 44" fill="none" xmlns="http://www.w3.org/2000/svg">
<path d="M122.024 27.5413C118.681 27.5413 115.961 24.8191 115.961 21.4755C115.961 18.1312 118.681 15.4098 122.024 15.4098C125.368 15.4098 128.087 18.1312 128.087 21.4755C128.087 24.8525 125.334 27.5413 122.024 27.5413ZM122.024 11.8027C116.682 11.8027 112.356 16.1313 112.356 21.4755C112.356 26.8197 116.682 31.1476 122.024 31.1476C127.367 31.1476 131.693 26.8197 131.693 21.4755C131.693 16.164 127.367 11.8027 122.024 11.8027ZM110.192 28.0327H110.979V31.6718H110.192C106.03 31.6718 102.621 28.2621 102.621 24.0983V7.47477H106.259V12.3275H110.946V15.9673H106.259V24.1309C106.259 26.2622 108.029 28.0327 110.192 28.0327ZM154.505 27.5413C151.161 27.5413 148.442 24.8191 148.442 21.4755C148.442 18.1312 151.161 15.4098 154.505 15.4098C157.848 15.4098 160.568 18.1312 160.568 21.4755C160.536 24.8525 157.815 27.5413 154.505 27.5413ZM154.505 11.8027C149.162 11.8027 144.836 16.1313 144.836 21.4755C144.836 26.8197 149.162 31.1476 154.505 31.1476C159.847 31.1476 164.173 26.8197 164.173 21.4755C164.173 16.164 159.847 11.8027 154.505 11.8027ZM182.332 27.5413C178.988 27.5413 176.268 24.8191 176.268 21.4755C176.268 18.1312 178.988 15.4098 182.331 15.4098C185.674 15.4098 188.395 18.1312 188.395 21.4755C188.395 24.8525 185.642 27.5406 182.331 27.5406M182.331 11.8027C176.989 11.8027 172.662 16.1313 172.662 21.4755C172.662 26.8197 176.989 31.1476 182.331 31.1476C184.691 31.1476 186.854 30.2947 188.526 28.885V30.7869H192V21.7702V21.4748C192 16.1633 187.674 11.8027 182.331 11.8027ZM141.689 11.8034H143.427V15.4424H141.689C139.527 15.4424 137.756 17.2137 137.756 19.3769V30.9183H134.118V19.3769C134.118 15.213 137.527 11.8034 141.689 11.8034ZM166.599 6.98332H170.237V30.8522H166.599V6.98332ZM78.4326 19.8683V31.377H74.7941V19.8683C74.7941 17.7044 73.0242 15.9339 70.861 15.9339C68.6985 15.9339 66.9278 17.7044 66.9278 19.8683V31.3763H63.2901V19.8683C63.2901 17.7044 61.5194 15.9339 59.3569 15.9339C57.1944 15.9339 55.4238 17.7044 55.4238 19.8683V31.3763H51.786V19.8683C51.786 15.7038 55.1945 12.2941 59.3243 12.2941C61.6515 12.2941 63.6834 13.3104 65.0926 14.9503C66.5019 13.3104 68.5337 12.2941 70.8617 12.2941C75.0234 12.2941 78.4326 15.7038 78.4326 19.8683ZM90.5593 28.0327C87.2161 28.0327 84.4956 25.3113 84.4956 21.967C84.4956 18.6227 87.2168 15.9012 90.5593 15.9012C93.9024 15.9012 96.623 18.6234 96.623 21.967C96.623 25.3113 93.8698 28.0327 90.5593 28.0327ZM90.5593 12.2949C85.1842 12.2949 80.8571 16.6228 80.8571 21.967C80.8571 27.3112 85.1842 31.6391 90.5266 31.6391C95.869 31.6391 100.195 27.3112 100.195 21.967C100.228 16.6554 95.9017 12.2949 90.5593 12.2949ZM21.9922 0C9.83283 0 0 9.83617 0 21.9996C0 34.1631 9.83283 44 21.9922 44C34.1522 44 43.985 34.1638 43.985 21.9996C43.985 9.90151 34.2828 0 21.9922 0Z" fill="#CFD1D4"/>
<path d="M28.5479 5.40976L22.0256 27.0493L21.9922 27.082L21.9269 27.0493L15.4045 5.40976L6.98096 33.1151H8.55421C8.55421 33.1151 9.60353 28.295 11.3408 25.4102C12.2914 23.8364 13.7333 22.5574 15.6665 22.59C17.0431 22.6234 18.223 23.3769 19.6983 25.4429C20.0256 25.9017 20.4189 26.6559 20.8122 27.3775C21.4356 28.5897 21.9595 29.8361 21.9595 29.8361C21.9595 29.8361 23.3361 26.6886 24.2214 25.4429C25.696 23.3769 26.8759 22.6234 28.2525 22.59C30.1864 22.5574 31.661 23.8364 32.579 25.4102C34.3162 28.295 35.3656 33.1151 35.3656 33.1151H36.9381L28.5479 5.40976Z" fill="#10192A"/>
</svg>
