<svg width="44" height="46" viewBox="0 0 44 46" fill="none" xmlns="http://www.w3.org/2000/svg">
<path d="M3.60422 13.4843L22 24.1301L40.2708 13.5467" stroke="white" stroke-width="3" stroke-linecap="round" stroke-linejoin="round"/>
<path d="M22 43.0169V24.1211" stroke="white" stroke-width="3" stroke-linecap="round" stroke-linejoin="round"/>
<path d="M42.0211 17.0898V28.8816C42.0211 28.9857 42.0211 29.069 42.0003 29.1732C40.542 27.9023 38.667 27.1524 36.5836 27.1524C34.6253 27.1524 32.8128 27.8399 31.3753 28.9857C29.4586 30.5066 28.2503 32.8607 28.2503 35.4857C28.2503 37.0482 28.6878 38.5274 29.4586 39.7774C29.6461 40.1107 29.8753 40.4232 30.1253 40.7149L26.3128 42.8191C23.9378 44.1524 20.0628 44.1524 17.6878 42.8191L6.56279 36.6524C4.04195 35.2565 1.97949 31.7566 1.97949 28.8816V17.0898C1.97949 14.2148 4.04195 10.7149 6.56279 9.31906L17.6878 3.15234C20.0628 1.81901 23.9378 1.81901 26.3128 3.15234L37.4378 9.31906C39.9586 10.7149 42.0211 14.2148 42.0211 17.0898Z" stroke="white" stroke-width="2.5" stroke-linecap="round" stroke-linejoin="round"/>
</svg>
