<svg width="54" height="54" viewBox="0 0 54 54" fill="none" xmlns="http://www.w3.org/2000/svg">
<path fill-rule="evenodd" clip-rule="evenodd" d="M12.3177 51.3682C11.2864 52.5195 9.79203 53.2432 8.12703 53.2432H6.25203C4.76051 53.2427 3.33025 52.6499 2.27577 51.595C1.22128 50.5402 0.628906 49.1097 0.628906 47.6182V32.622C0.628906 31.1301 1.22154 29.6994 2.27643 28.6445C3.33132 27.5896 4.76206 26.997 6.2539 26.997H8.12703C9.29011 26.9971 10.4245 27.3578 11.3742 28.0294C12.3238 28.701 13.0418 29.6504 13.4295 30.747H28.7427C29.9474 30.7479 31.1201 31.1355 32.0882 31.8527C33.0562 32.57 33.7685 33.579 34.1201 34.7313L44.592 29.8807C45.506 29.4574 46.5119 29.2712 47.5168 29.3392C48.5218 29.4072 49.4934 29.7272 50.3421 30.2698C51.1907 30.8124 51.8889 31.56 52.3724 32.4436C52.8559 33.3273 53.1089 34.3185 53.1083 35.3257V36.297C53.1083 37.8438 52.2795 39.2726 50.9351 40.0395L34.1408 49.6395C32.1583 50.7726 29.9143 51.3685 27.6308 51.3682H12.3177ZM10.0002 32.622C10.0002 32.1247 9.80261 31.6478 9.45098 31.2961C9.09935 30.9445 8.62244 30.747 8.12515 30.747H6.25203C5.75475 30.747 5.27784 30.9445 4.92621 31.2961C4.57457 31.6478 4.37703 32.1247 4.37703 32.622V47.6182C4.37703 48.1155 4.57457 48.5924 4.92621 48.944C5.27784 49.2957 5.75475 49.4932 6.25203 49.4932H8.12703C8.62431 49.4932 9.10122 49.2957 9.45285 48.944C9.80448 48.5924 10.002 48.1155 10.002 47.6182L10.0002 32.622ZM13.7502 47.6182H27.6308C29.262 47.6182 30.8651 47.1945 32.2808 46.3845L49.077 36.7845C49.1629 36.7353 49.2343 36.6643 49.2841 36.5788C49.3338 36.4932 49.36 36.396 49.3601 36.297V35.3257C49.3605 34.948 49.2657 34.5763 49.0844 34.2449C48.9032 33.9136 48.6414 33.6332 48.3232 33.4297C48.0049 33.2262 47.6406 33.1062 47.2638 33.0807C46.8869 33.0552 46.5097 33.1251 46.167 33.2838L33.6795 39.0663C33.1955 39.9525 32.4819 40.6921 31.6136 41.2074C30.7453 41.7227 29.7542 41.9948 28.7445 41.9951H23.1195C22.6222 41.9951 22.1453 41.7976 21.7937 41.4459C21.4421 41.0943 21.2445 40.6174 21.2445 40.1201C21.2445 39.6228 21.4421 39.1459 21.7937 38.7943C22.1453 38.4426 22.6222 38.2451 23.1195 38.2451H28.7445C29.2418 38.2451 29.7187 38.0476 30.0703 37.6959C30.422 37.3443 30.6195 36.8674 30.6195 36.3701C30.6195 35.8728 30.422 35.3959 30.0703 35.0443C29.7187 34.6926 29.2418 34.4951 28.7445 34.4951H13.7483L13.7502 47.6182ZM23.7252 2.42695C24.0666 1.91138 24.5304 1.4884 25.0751 1.19577C25.6199 0.90315 26.2287 0.75 26.847 0.75C27.4654 0.75 28.0742 0.90315 28.6189 1.19577C29.1637 1.4884 29.6275 1.91138 29.9689 2.42695L32.4439 6.16008L36.7564 7.36008C37.3525 7.52609 37.8982 7.83702 38.345 8.26515C38.7917 8.69328 39.1256 9.2253 39.3168 9.81378C39.508 10.4023 39.5506 11.0289 39.4408 11.6379C39.3311 12.2468 39.0723 12.8192 38.6876 13.3038L35.9051 16.8101L36.0945 21.282C36.1206 21.8998 35.9935 22.5145 35.7245 23.0713C35.4555 23.6281 35.053 24.1097 34.5528 24.4733C34.0526 24.8369 33.4702 25.0712 32.8576 25.1552C32.2449 25.2393 31.621 25.1705 31.0414 24.9551L26.8452 23.3932L22.6527 24.9551C22.0729 25.1709 21.4488 25.24 20.8359 25.1561C20.223 25.0722 19.6404 24.8381 19.1399 24.4744C18.6395 24.1108 18.2368 23.629 17.9677 23.072C17.6986 22.515 17.5715 21.9 17.5977 21.282L17.7889 16.8101L15.0045 13.3038C14.6199 12.8192 14.3611 12.2468 14.2513 11.6379C14.1416 11.0289 14.1842 10.4023 14.3754 9.81378C14.5666 9.2253 14.9005 8.69328 15.3472 8.26515C15.794 7.83702 16.3397 7.52609 16.9358 7.36008L21.2483 6.16008L23.7252 2.42695ZM17.9389 10.9713L21.1564 15.0251C21.4377 15.3776 21.5802 15.8201 21.5614 16.272L21.342 21.4432L26.1889 19.6338C26.6127 19.4782 27.0758 19.4782 27.4976 19.6338L32.3483 21.4432L32.127 16.272C32.1083 15.822 32.2526 15.3776 32.532 15.0251L35.7476 10.9713L30.7639 9.58383C30.3299 9.46316 29.9538 9.19027 29.7045 8.81508L26.8433 4.5007L23.9839 8.8132C23.7346 9.18839 23.3585 9.46128 22.9245 9.58196L17.9389 10.9713Z" fill="white"/>
</svg>
