<svg width="168" height="44" viewBox="0 0 168 44" fill="none" xmlns="http://www.w3.org/2000/svg">
<path d="M19.3069 30.0544C18.9582 30.4342 18.0044 30.5715 17.7336 30.9981C17.3272 31.6466 16.3878 33.1307 15.653 33.8348C13.2843 36.1107 8.21553 37.2588 5.71427 35.0794C5.5529 35.0794 5.648 35.1875 5.84106 35.8068C6.02261 36.9754 6.96202 39.7596 6.61622 40.4637C6.84099 41.2525 7.07728 40.9632 7.50088 41.3985C7.78905 41.6907 7.91296 42.462 8.24434 42.6723L9.397 42.5905C9.46616 42.8067 9.53531 43.0229 9.60736 43.2391L11.0712 43.1339C11.3594 43.1982 12.1807 43.6276 12.4227 43.7007L14.0508 43.5809C15.2986 43.9198 16.3821 43.391 17.431 42.6752C18.0073 42.275 18.6586 42.3363 19.1773 41.8864C20.0636 41.0658 20.824 40.1155 21.4336 39.0672C22.615 36.8995 22.2145 31.7051 21.1454 30.4225C20.7276 29.958 20.2348 29.9522 19.3185 30.0544M29.1679 28.6317C28.2861 29.3153 27.9144 29.1458 27.3985 30.2034C27.3438 30.2034 27.4763 30.3641 27.4216 30.3641C27.9489 31.4275 29.1506 31.857 30.041 32.6078C30.3292 32.8415 31.0669 34.1562 31.4213 34.2526C31.8218 34.7376 32.0812 36.0756 32.3405 36.0756C32.6287 36.4466 32.3204 37.3318 32.5855 37.6766C32.6056 39.26 32.3866 39.371 32.1158 39.6749C32.1158 39.7859 32.2656 40.0722 32.2656 40.1832C32.3377 40.2592 32.9659 40.7149 33.2367 40.6594C34.1012 40.6828 37.5592 43.4377 37.8473 43.9694C40.3486 44.1652 40.1526 43.3851 41.8816 42.646C42.3513 42.4444 42.7202 42.646 43.0343 42.313C43.3484 41.9799 43.3829 41.3255 43.6884 40.9895C43.7316 34.7551 35.3634 28.8479 29.165 28.6317M35.9397 15.4646C32.8506 15.932 30.9487 16.9253 29.7759 17.755C29.2889 18.0716 28.8703 18.485 28.5454 18.9703C28.3206 19.381 28.2461 19.8591 28.3351 20.3201C28.3635 20.6105 28.449 20.8923 28.5866 21.1487C28.7242 21.4051 28.9111 21.631 29.1362 21.8129C32.9399 21.5208 39.5446 21.2871 40.8298 24.527C40.899 24.9769 40.997 25.2457 41.0114 25.3567C42.2678 25.0412 41.3485 25.1522 43.2014 25.4502C43.6279 25.5174 44.6739 25.2749 45.3713 25.1054C45.5736 25.0463 45.7484 24.9158 45.864 24.7373C45.8301 24.58 45.8146 24.4192 45.8179 24.2582C45.8179 24.2582 46.4663 24.305 46.7343 24.0975C48.4921 23.8054 47.57 22.9669 48.3999 22.0262C47.9042 15.97 41.7836 14.5589 35.9397 15.4646ZM12.3535 26.5048C13.0336 26.3266 14.192 26.2331 14.8001 25.9205C15.7712 25.4326 19.0994 23.0604 18.0419 21.1498C17.7134 17.0977 12.8924 20.5216 10.8378 19.1047C8.76016 18.833 6.42315 14.851 5.80072 13.1449C5.70557 12.7908 5.54415 12.4585 5.32525 12.1662C5.32525 12.1107 5.11201 12.3503 5.11489 12.2977C4.51263 13.0105 4.61061 13.6386 4.52416 15.3886L3.70866 15.3331C3.65679 15.97 3.59339 16.3118 3.29947 16.6361L3.11792 16.9574C2.60211 16.7821 2.86146 17.0305 2.64822 16.5981C0.737697 16.6887 0.878897 18.6431 0 19.7474C0.0403428 23.3818 7.14068 27.8721 12.3535 26.5048ZM26.1854 6.72641C26.341 5.35332 26.1422 3.34334 27.2112 2.3997C27.5253 0.938963 29.8047 1.27201 29.4474 0.354667C29.2284 -0.229629 28.1564 0.0625191 27.7184 0.156006C27.3899 0.234886 24.2604 1.23695 23.0675 1.37134L21.5517 0.924356C19.5951 1.19313 18.4626 2.77365 17.3762 4.03281C16.4599 5.08454 15.2237 7.66129 16.2063 9.20091L16.042 10.2059L18.2695 13.5101C19.0389 14.0681 19.134 14.4829 19.9668 15.0351C20.1368 15.2951 20.304 15.5551 20.4769 15.8122C21.154 16.265 23.1481 16.268 23.4824 15.9758C26.6925 16.268 26.3439 9.69172 27.364 8.31278C27.177 7.65579 26.7587 7.09127 26.1883 6.72641" fill="#CFD1D4"/>
<path d="M57.2419 9.75902H61.4866V33.8554H57.2419V9.75902ZM80.3123 33.8554H76.278V31.6058H76.2146C75.5769 32.4266 74.7636 33.0898 73.8361 33.5453C72.9086 34.0007 71.8911 34.2367 70.8605 34.2352C66.9934 34.2352 65.3134 31.4715 65.3134 27.7466V17.311H69.5609V26.1456C69.5609 28.1702 69.5926 30.8989 72.3158 30.8989C75.3905 30.8989 76.0619 27.5275 76.0619 25.4065V17.311H80.3094L80.3123 33.8554ZM83.9864 17.311H87.9486V19.6249H88.012C88.5321 18.7986 89.249 18.1183 90.0965 17.6466C90.944 17.1748 91.8949 16.9268 92.8618 16.9254C95.1411 16.9254 96.7577 17.8019 97.677 19.8469C98.6596 17.8544 100.783 16.9254 102.78 16.9254C106.815 16.9254 107.944 19.7213 107.944 23.4169V33.8583H103.7V23.9925C103.7 22.4499 103.7 20.2647 101.259 20.2647C98.4377 20.2647 98.0891 23.6711 98.0891 25.8155V33.8466H93.8444V23.9925C93.8444 22.4499 93.8444 20.2647 91.4037 20.2647C88.5826 20.2647 88.2339 23.6711 88.2339 25.8155V33.8466H83.9864V17.311ZM111.685 10.1768H115.929V14.2902H111.685V10.1768ZM111.685 17.3081H115.929V33.8554H111.685V17.3081ZM119.765 17.311H123.799V19.5606H123.862C125.194 17.6645 127 16.9313 129.216 16.9313C133.084 16.9313 134.764 19.695 134.764 23.4228V33.8642H130.507V25.0208C130.507 22.9962 130.476 20.2647 127.753 20.2647C124.678 20.2647 124.006 23.639 124.006 25.76V33.8554H119.765V17.311ZM153.483 33.8554H149.448V31.6058H149.385C148.747 32.4265 147.933 33.0896 147.005 33.545C146.077 34.0005 145.059 34.2365 144.028 34.2352C140.161 34.2352 138.484 31.4715 138.484 27.7466V17.311H142.728V26.1456C142.728 28.1702 142.76 30.8989 145.486 30.8989C148.561 30.8989 149.232 27.5275 149.232 25.4065V17.311H153.477L153.483 33.8554ZM166.92 20.7788C165.707 20.3057 164.418 20.0659 163.119 20.0718C161.966 20.0718 160.618 20.4896 160.618 21.9036C160.618 24.5329 168 22.8677 168 28.8421C168 32.6985 164.609 34.241 161.154 34.241C159.525 34.2153 157.907 33.9777 156.338 33.534L156.592 29.999C157.883 30.6914 159.316 31.0657 160.776 31.0917C161.851 31.0917 163.563 30.6739 163.563 29.0671C163.563 25.8242 156.18 28.0416 156.18 22.0555C156.18 18.4884 159.255 16.9137 162.58 16.9137C164.141 16.928 165.695 17.1331 167.208 17.5243L166.92 20.7788Z" fill="#CFD1D4"/>
</svg>
