<svg width="117" height="34" viewBox="0 0 117 34" fill="none" xmlns="http://www.w3.org/2000/svg">
<path d="M26.2659 8.34005V18.8613C26.2659 19.0318 26.1957 19.1954 26.0709 19.316C25.9461 19.4366 25.7768 19.5043 25.6003 19.5043H22.1624C21.9859 19.5042 21.8166 19.4365 21.6918 19.3159C21.567 19.1953 21.4969 19.0318 21.4968 18.8613V1.74799C21.4968 1.57745 21.5669 1.41389 21.6917 1.29329C21.8166 1.1727 21.9859 1.10495 22.1624 1.10495H25.3437C25.5203 1.10495 25.6896 1.1727 25.8144 1.29329C25.9392 1.41389 26.0094 1.57745 26.0094 1.74799V4.15799C26.0094 4.15799 27.1466 0.720199 30.5217 0.720199C30.5217 0.720199 33.86 0.330346 35.2174 3.90991C35.2174 3.90991 36.3546 0.720199 39.8031 0.720199C39.8031 0.720199 44.9314 0.425612 44.9314 5.55211L44.9704 8.37549V18.8967C44.9704 19.0673 44.9003 19.2308 44.7755 19.3514C44.6506 19.472 44.4813 19.5398 44.3048 19.5398H40.8667C40.6901 19.5397 40.5209 19.4719 40.3961 19.3513C40.2713 19.2307 40.2011 19.0672 40.201 18.8967L40.1696 7.41858C40.2674 4.81947 38.0909 5.00858 38.0909 5.00858C35.3518 5.05593 35.6154 8.37549 35.6154 8.37549V18.8967C35.6154 19.0673 35.5452 19.2308 35.4204 19.3514C35.2956 19.472 35.1263 19.5398 34.9497 19.5398H31.5119C31.3354 19.5397 31.1661 19.4719 31.0413 19.3513C30.9165 19.2307 30.8463 19.0672 30.8463 18.8967V7.6783C30.8463 7.6783 31.0473 4.98477 28.6014 4.98477C28.6017 4.98477 26.1805 4.6777 26.2659 8.34005ZM114.885 8.30858V18.8295C114.884 19 114.814 19.1636 114.689 19.2841C114.565 19.4047 114.395 19.4725 114.219 19.4726L110.643 19.5395C110.467 19.5394 110.298 19.4716 110.173 19.351C110.048 19.2305 109.978 19.0669 109.978 18.8964V7.6783C109.978 7.6783 110.179 4.98477 107.733 4.98477C107.733 4.98477 105.397 4.87362 105.397 9.09679V18.861C105.397 19.0315 105.327 19.195 105.202 19.3156C105.078 19.4362 104.908 19.504 104.732 19.504H101.294C101.117 19.504 100.948 19.4362 100.823 19.3156C100.698 19.195 100.628 19.0315 100.628 18.861V1.74799C100.628 1.57747 100.698 1.41395 100.823 1.29337C100.948 1.1728 101.117 1.10502 101.294 1.10495H104.475C104.652 1.10495 104.821 1.1727 104.946 1.29329C105.07 1.41389 105.141 1.57745 105.141 1.74799V4.15799C105.141 4.15799 106.278 0.720199 109.653 0.720199C109.653 0.720199 113.268 0.190282 114.486 3.84328C114.486 3.84299 114.885 4.59661 114.885 8.30858ZM90.0617 0.649316C85.6654 0.649316 82.101 4.22888 82.101 10.2539C82.101 15.5584 84.8524 19.8584 90.0617 19.8584C94.9776 19.8584 98.0225 15.5584 98.0225 10.2539C98.0225 4.3352 94.4584 0.649316 90.0617 0.649316ZM92.8366 10.4665C92.8366 12.7348 92.5431 13.9398 92.5431 13.9398C92.1255 16.3376 90.3238 16.341 90.0582 16.3282C89.7715 16.3393 87.9545 16.3143 87.5786 13.9398C87.5786 13.9398 87.2851 12.7348 87.2851 10.4665V10.0886C87.2851 7.82034 87.5786 6.61534 87.5786 6.61534C87.9545 4.24078 89.7718 4.21583 90.0582 4.22661C90.3238 4.21385 92.1255 4.21697 92.5431 6.61534C92.5431 6.61534 92.8366 7.82034 92.8366 10.0886V10.4665ZM80.1056 4.13418V1.67881C80.1056 1.50829 80.0354 1.34477 79.9106 1.22419C79.7858 1.10362 79.6165 1.03584 79.44 1.03577H68.0763C67.8998 1.03577 67.7305 1.10352 67.6057 1.22411C67.4808 1.3447 67.4107 1.50827 67.4107 1.67881V4.11518C67.4108 4.2857 67.4809 4.44922 67.6058 4.5698C67.7306 4.69038 67.8998 4.75815 68.0763 4.75823H74.0038L66.9878 14.591C66.9878 14.591 66.7114 14.9897 66.7204 15.43V18.4209C66.7204 18.4209 66.6747 19.4465 67.8785 18.8513C67.8785 18.8513 70.0169 17.6032 73.6023 17.6032C73.6023 17.6032 77.1432 17.5607 79.504 18.9588C79.504 18.9588 80.4839 19.3892 80.4839 18.4428V15.8394C80.4839 15.8394 80.5729 15.1504 79.6375 14.7203C79.6375 14.7203 76.9204 13.2789 73.3573 13.5153L80.1056 4.13418ZM18.8434 16.4439L17.7672 14.8612C17.4247 14.2704 17.4494 13.6086 17.4494 13.6086V6.308C17.5961 -0.000533276 10.3567 0.542993 10.3567 0.542993C3.92125 0.542993 2.97066 5.38142 2.97066 5.38142C2.70242 6.35421 3.4825 6.37775 3.4825 6.37775L6.62717 6.68594C6.62717 6.68594 7.16336 6.80446 7.35853 6.18778C7.35853 6.18778 7.77263 4.0769 10.0885 4.0769C12.6083 4.0769 12.5822 6.16623 12.5822 6.16623V7.91533C7.55193 8.07779 5.2208 9.42682 5.2208 9.42682C2.11487 11.128 2.31033 14.5068 2.31033 14.5068C2.31033 20.0118 7.73976 19.7754 7.73976 19.7754C11.2125 19.7754 13.2669 17.3183 13.2669 17.3183C13.8783 18.3583 15.0035 19.3501 15.0035 19.3501C15.5664 19.9398 16.153 19.4448 16.153 19.4448L18.6967 17.3421C19.259 16.9401 18.8434 16.4439 18.8434 16.4439ZM9.43462 16.3758C7.8011 16.3758 7.19388 14.8076 7.46506 13.2664C7.73653 11.7251 9.14642 10.5139 12.5825 10.5493V11.4864C12.7043 15.58 10.7943 16.3758 9.43462 16.3758ZM64.5287 16.4439L63.4528 14.8612C63.1103 14.2704 63.1347 13.6086 63.1347 13.6086V6.308C63.2814 -0.000533276 56.0421 0.542993 56.0421 0.542993C49.6066 0.542993 48.656 5.38142 48.656 5.38142C48.3877 6.35421 49.1678 6.37775 49.1678 6.37775L52.3125 6.68594C52.3125 6.68594 52.8487 6.80446 53.0438 6.18778C53.0438 6.18778 53.458 4.0769 55.7738 4.0769C58.2937 4.0769 58.2676 6.16623 58.2676 6.16623V7.91533C53.2375 8.07779 50.9061 9.42682 50.9061 9.42682C47.8002 11.128 47.9956 14.5068 47.9956 14.5068C47.9956 20.0118 53.4251 19.7754 53.4251 19.7754C56.8979 19.7754 58.9522 17.3183 58.9522 17.3183C59.5639 18.3583 60.6885 19.3501 60.6885 19.3501C61.2514 19.9398 61.8384 19.4448 61.8384 19.4448L64.3817 17.3421C64.9443 16.9401 64.5287 16.4439 64.5287 16.4439ZM55.1199 16.3758C53.4864 16.3758 52.8792 14.8076 53.1504 13.2664C53.4219 11.7251 54.8317 10.5139 58.2676 10.5493V11.4864C58.3896 15.58 56.4799 16.3758 55.1199 16.3758Z" fill="white"/>
<path d="M73.1836 30.2636C73.1836 30.2636 72.896 30.747 73.2494 30.855C73.2494 30.855 73.6485 31.0056 74.1462 30.5593C74.1462 30.5593 77.7763 27.4958 77.8638 21.9182C77.8638 21.9182 77.8905 21.2216 77.6011 21.031C77.6011 21.031 76.4639 20.0591 72.3745 20.3548C72.3745 20.3548 68.8098 20.5873 66.8638 22.2565C66.8638 22.2565 66.6888 22.4042 66.6888 22.5941C66.6888 22.5941 66.6469 23.0044 67.7166 22.8266C67.7166 22.8266 71.281 22.3404 73.4023 22.5941C73.4023 22.5941 74.4961 22.7209 74.8022 23.0804C74.8022 23.0804 75.3052 23.4819 75.0425 24.8125C75.0425 24.813 74.3206 28.1933 73.1836 30.2636Z" fill="#F3971B"/>
<path d="M72.4652 24.9124C72.4652 24.9124 72.9976 25.5787 72.1386 26.1534C72.1386 26.1534 62.9622 33.2445 47.5544 33.2445C47.5544 33.2445 31.694 34.0004 18.4506 22.3757C18.4506 22.3757 17.9863 21.9818 18.2745 21.6158C18.2745 21.6158 18.5322 21.279 19.1992 21.6453C19.1992 21.6453 31.6573 29.1449 48.019 29.1449C48.019 29.1449 59.3914 29.5702 71.0574 24.7502C71.0574 24.7502 71.9868 24.2849 72.4652 24.9124Z" fill="#F3971B"/>
</svg>
