<svg width="104" height="22" viewBox="0 0 104 22" fill="none" xmlns="http://www.w3.org/2000/svg">
<path d="M37.2358 0.699219H41.0759L47.6163 11.6172L54.1567 0.699219H57.9224V18.6589H54.7761V4.89669L49.0532 14.4156H46.1051L40.3822 4.89669V18.6589H37.2358V0.699219Z" fill="white"/>
<path fill-rule="evenodd" clip-rule="evenodd" d="M68.0323 18.9809C66.5788 18.9809 65.3071 18.6827 64.217 18.0864C63.1269 17.49 62.2351 16.6413 61.6405 15.6092C61.0129 14.5541 60.6991 13.346 60.6991 11.9851C60.6991 10.6089 61.0046 9.39323 61.6157 8.33813C62.2103 7.28303 63.0444 6.44965 64.1179 5.838C65.1915 5.24163 66.4219 4.94345 67.8093 4.94345C69.1801 4.94345 70.3611 5.24928 71.352 5.86093C72.3595 6.4573 73.1275 7.29832 73.656 8.38401C74.2011 9.46969 74.4736 10.7465 74.4736 12.2145V13.0173H63.8206C64.0188 14.103 64.4978 14.9593 65.2575 15.5862C66.0173 16.2132 66.9835 16.5266 68.1561 16.5266C69.081 16.5266 69.8821 16.4043 70.5592 16.1597C71.2364 15.8997 71.8723 15.5098 72.4669 14.9899L74.1268 16.8707C72.4751 18.2775 70.4436 18.9809 68.0323 18.9809ZM70.3363 8.31519C69.6756 7.70354 68.8085 7.39771 67.735 7.39771C66.711 7.39771 65.8439 7.71119 65.1337 8.33813C64.44 8.96508 64.0023 9.81375 63.8206 10.8841H71.4511C71.352 9.79845 70.9804 8.94214 70.3363 8.31519Z" fill="white"/>
<path d="M78.2619 7.64948H75.3881V5.26403H78.2619V1.3418H81.2844V5.26403H85.6695V7.64948H81.2844V13.659C81.2844 14.6682 81.4743 15.3792 81.8542 15.7921C82.2176 16.2203 82.8452 16.4344 83.7371 16.4344C84.0839 16.4496 84.4225 16.442 84.7528 16.4114C85.0336 16.3808 85.3391 16.335 85.6695 16.2738V18.6363C85.2896 18.7281 84.9015 18.8045 84.5051 18.8657C84.0591 18.9268 83.6132 18.9574 83.1673 18.9574C79.897 18.9574 78.2619 17.306 78.2619 14.003V7.64948Z" fill="white"/>
<path fill-rule="evenodd" clip-rule="evenodd" d="M101.45 18.6598H98.4767V16.779C97.9565 17.4671 97.2628 18.0176 96.47 18.4075C95.6442 18.7898 94.711 18.9809 93.6705 18.9809C92.3988 18.9809 91.2674 18.6751 90.2764 18.0634C89.302 17.4671 88.5339 16.6413 87.9724 15.5862C87.3943 14.5311 87.1053 13.3231 87.1053 11.9622C87.1053 10.586 87.3943 9.3703 87.9724 8.31519C88.5505 7.27538 89.3432 6.44965 90.3507 5.838C91.3747 5.24163 92.5391 4.94345 93.8439 4.94345C94.8349 4.94345 95.7268 5.12695 96.5196 5.49394C97.2876 5.838 97.9565 6.34261 98.4767 6.98485V5.26457H101.45V18.6598ZM98.4024 9.96666C98.0886 9.20209 97.5849 8.59808 96.8912 8.15464C96.181 7.72648 95.3717 7.5124 94.4633 7.5124C93.1585 7.5124 92.1262 7.90997 91.3665 8.70512C90.5902 9.51557 90.2021 10.6013 90.2021 11.9622C90.2021 13.3384 90.5737 14.4317 91.3169 15.2422C92.0602 16.0526 93.0677 16.4578 94.3394 16.4578C95.2643 16.4578 96.0984 16.2285 96.8416 15.7697C97.5601 15.3569 98.1051 14.7146 98.4024 13.9806V9.96666Z" fill="white"/>
<path d="M15.8056 4.07289C16.2846 4.63867 16.7801 5.2809 17.2921 5.9996C17.7545 6.61125 18.2253 7.28407 18.7042 8.01806L18.729 8.04099L16.648 10.9311V10.9081L16.4002 10.5411C12.7088 4.78394 10.9994 3.17834 8.79448 3.17834H8.7697L8.81925 0.0818443H8.84403C11.2967 0.0818443 13.353 1.18282 15.8056 4.07289Z" fill="url(#paint0_linear_9005_13101)"/>
<path d="M8.84452 0.0818443L8.79497 3.17834H8.77019C7.53147 3.17834 6.39185 4.00408 5.4752 5.28855L2.5766 3.84352V3.82058C4.16216 1.57275 6.3423 0.104781 8.81974 0.0818443H8.84452Z" fill="url(#paint1_linear_9005_13101)"/>
<path d="M5.47494 5.29014C4.60783 6.5058 3.93892 8.1114 3.59208 9.83167V9.87755L0.346638 9.1665V9.14356C0.767802 7.17098 1.53581 5.33602 2.57633 3.84511V3.82217L5.47494 5.29014Z" fill="url(#paint2_linear_9005_13101)"/>
<path d="M3.59228 9.87656C3.41061 10.7482 3.31977 11.6351 3.31977 12.5373V12.7437L0 12.4684V12.4455C0 11.3445 0.123872 10.2436 0.346841 9.16551V9.14258L3.59228 9.83069V9.87656Z" fill="url(#paint3_linear_9005_13101)"/>
<path d="M3.44364 13.7298L0.198195 14.4179C0.181679 14.4179 0.173421 14.4103 0.173421 14.395C0.0578069 13.768 0 13.1258 0 12.4682V12.4453L3.31977 12.7206V12.7435C3.33628 13.0646 3.37757 13.3857 3.44364 13.7068V13.7298Z" fill="url(#paint4_linear_9005_13101)"/>
<path d="M4.21044 15.3106L1.6339 17.3749C1.61739 17.3749 1.60913 17.3673 1.60913 17.352C0.915446 16.618 0.419958 15.6088 0.196989 14.416C0.180473 14.416 0.172215 14.4084 0.172215 14.3931L3.44243 13.705V13.7279C3.5663 14.416 3.83882 14.9436 4.18566 15.3106H4.21044Z" fill="url(#paint5_linear_9005_13101)"/>
<path d="M15.3863 8.98075C14.4697 10.4946 13.1318 12.6736 13.1318 12.6736C9.91117 17.8803 8.10264 18.9813 5.57566 18.9813C3.91577 18.9813 2.57796 18.4079 1.63653 17.3757C1.62001 17.3757 1.61176 17.3681 1.61176 17.3528L4.18829 15.3114H4.21307C4.60946 15.7013 5.10494 15.9077 5.69953 15.9077C7.16122 15.9077 8.07787 15.0591 10.6792 11.2745C10.6792 11.2745 11.8683 9.53124 13.8255 6.75586C14.2962 7.3981 14.8165 8.13208 15.3863 8.98075Z" fill="#0082FB"/>
<path d="M19.0763 3.84297L19.0515 3.86591C18.5065 4.39346 17.9119 5.1045 17.3173 5.99905C16.7888 5.28036 16.2851 4.63812 15.8061 4.07234C16.2685 3.49127 16.764 2.93313 17.2926 2.39794L17.3173 2.375L19.0763 3.84297Z" fill="url(#paint6_linear_9005_13101)"/>
<path d="M26.8303 2.12324L24.7988 3.79764H24.774C23.9069 2.97191 22.9159 2.51317 21.8754 2.51317C20.8844 2.51317 19.9925 2.94897 19.0759 3.84352L19.0511 3.86645L17.2921 2.39848L17.3169 2.37555C18.7043 1.02226 20.2403 0.0818443 22.0736 0.0818443C23.8078 0.0818443 25.4429 0.838766 26.8055 2.1003L26.8303 2.12324Z" fill="#0082FB"/>
<path d="M30.77 12.079L27.8219 12.056V12.0331C27.7228 8.50081 26.5336 5.45018 24.7994 3.79872H24.7746L26.8061 2.10138L26.8309 2.12431C29.1349 4.28039 30.6709 7.95032 30.77 12.0331V12.079Z" fill="url(#paint7_linear_9005_13101)"/>
<path d="M30.7701 12.3524C30.7701 14.2791 30.3489 15.8388 29.5561 16.9856C29.5396 16.9856 29.5314 16.9933 29.5314 17.0086L27.3512 14.8984V14.8754C27.6733 14.302 27.8219 13.5222 27.8219 12.5588V12.0542V12.0312H30.7701V12.3524Z" fill="url(#paint8_linear_9005_13101)"/>
<path d="M29.5575 16.9872C29.541 16.9872 29.5327 16.9948 29.5327 17.0101C29.5162 17.0254 29.4997 17.0483 29.4832 17.0789C29.4501 17.1095 29.4254 17.1477 29.4088 17.1936C28.9629 17.7441 28.3931 18.2028 27.7242 18.5239C27.7077 18.5239 27.6911 18.5316 27.6746 18.5469C27.6251 18.5622 27.5838 18.5775 27.5508 18.5928C27.4351 18.6386 27.3113 18.6845 27.1791 18.7304L26.1634 15.8174C26.6837 15.6797 27.08 15.3586 27.3526 14.8999V14.877L29.5575 16.9872Z" fill="url(#paint9_linear_9005_13101)"/>
<path d="M26.1858 15.8149L27.2015 18.7279C26.6317 18.8885 26.0371 18.9802 25.4673 18.9802C24.7736 18.9802 24.1543 18.8885 23.5845 18.705L24.6002 15.7461C24.8975 15.8608 25.2196 15.9067 25.5416 15.9067C25.7564 15.9067 25.9711 15.8761 26.1858 15.8149Z" fill="url(#paint10_linear_9005_13101)"/>
<path d="M24.6502 15.75L23.6096 18.7318C22.7425 18.4566 21.9498 17.952 21.1322 17.1492C21.1322 17.1339 21.1239 17.1262 21.1074 17.1262L23.461 14.8555L23.4858 14.8784C23.9069 15.3371 24.2538 15.6124 24.6502 15.75Z" fill="url(#paint11_linear_9005_13101)"/>
<path d="M23.4852 14.8757L21.1316 17.1465C21.1316 17.1312 21.1234 17.1236 21.1068 17.1236C20.1406 16.1602 19.1497 14.784 17.911 12.9032L16.6475 10.9306V10.9076L18.7037 8.01758L18.7285 8.04052L20.5123 10.793C21.8996 12.8344 22.7667 14.0959 23.4604 14.8528L23.4852 14.8757Z" fill="url(#paint12_linear_9005_13101)"/>
<defs>
<linearGradient id="paint0_linear_9005_13101" x1="17.3416" y1="9.76127" x2="11.1353" y2="0.928199" gradientUnits="userSpaceOnUse">
<stop stop-color="#0867DF"/>
<stop offset="0.5" stop-color="#0668E1"/>
<stop offset="0.9" stop-color="#0064E0"/>
</linearGradient>
<linearGradient id="paint1_linear_9005_13101" x1="3.93919" y1="4.34813" x2="8.37433" y2="0.69229" gradientUnits="userSpaceOnUse">
<stop offset="0.1" stop-color="#0064DF"/>
<stop offset="1" stop-color="#0064E0"/>
</linearGradient>
<linearGradient id="paint2_linear_9005_13101" x1="1.9322" y1="9.21237" x2="3.57797" y2="4.72158" gradientUnits="userSpaceOnUse">
<stop stop-color="#0072EC"/>
<stop offset="0.7" stop-color="#0064DF"/>
</linearGradient>
<linearGradient id="paint3_linear_9005_13101" x1="1.65988" y1="12.3996" x2="1.85116" y2="9.69083" gradientUnits="userSpaceOnUse">
<stop offset="0.1" stop-color="#007CF6"/>
<stop offset="1" stop-color="#0072EC"/>
</linearGradient>
<linearGradient id="paint4_linear_9005_13101" x1="1.78376" y1="13.8674" x2="1.65605" y2="12.7869" gradientUnits="userSpaceOnUse">
<stop offset="0.1" stop-color="#007FF9"/>
<stop offset="1" stop-color="#007CF6"/>
</linearGradient>
<linearGradient id="paint5_linear_9005_13101" x1="1.70823" y1="14.1408" x2="2.55795" y2="16.1176" gradientUnits="userSpaceOnUse">
<stop offset="0.1" stop-color="#007FF9"/>
<stop offset="1" stop-color="#0082FB"/>
</linearGradient>
<linearGradient id="paint6_linear_9005_13101" x1="16.7227" y1="4.87513" x2="17.8839" y2="3.13865" gradientUnits="userSpaceOnUse">
<stop offset="0.3" stop-color="#007FF8"/>
<stop offset="0.9" stop-color="#0082FB"/>
</linearGradient>
<linearGradient id="paint7_linear_9005_13101" x1="26.5584" y1="2.72068" x2="28.8742" y2="12.0081" gradientUnits="userSpaceOnUse">
<stop stop-color="#0082FB"/>
<stop offset="1" stop-color="#0081FA"/>
</linearGradient>
<linearGradient id="paint8_linear_9005_13101" x1="29.903" y1="12.2606" x2="28.3956" y2="15.564" gradientUnits="userSpaceOnUse">
<stop offset="0.1" stop-color="#0081FA"/>
<stop offset="1" stop-color="#0080F9"/>
</linearGradient>
<linearGradient id="paint9_linear_9005_13101" x1="26.8323" y1="17.1707" x2="28.3625" y2="16.0518" gradientUnits="userSpaceOnUse">
<stop stop-color="#027AF3"/>
<stop offset="1" stop-color="#0080F9"/>
</linearGradient>
<linearGradient id="paint10_linear_9005_13101" x1="24.3277" y1="17.3517" x2="26.5574" y2="17.3517" gradientUnits="userSpaceOnUse">
<stop stop-color="#0377EF"/>
<stop offset="1" stop-color="#0279F1"/>
</linearGradient>
<linearGradient id="paint11_linear_9005_13101" x1="22.3957" y1="16.2317" x2="23.9153" y2="17.2062" gradientUnits="userSpaceOnUse">
<stop stop-color="#0471E9"/>
<stop offset="1" stop-color="#0377EF"/>
</linearGradient>
<linearGradient id="paint12_linear_9005_13101" x1="17.5146" y1="9.8296" x2="22.1455" y2="16.1183" gradientUnits="userSpaceOnUse">
<stop offset="0.3" stop-color="#0867DF"/>
<stop offset="1" stop-color="#0471E9"/>
</linearGradient>
</defs>
</svg>
