<svg width="28" height="23" viewBox="0 0 28 23" fill="none" xmlns="http://www.w3.org/2000/svg">
<path d="M22.1635 0.236328C23.5355 0.236365 24.8515 0.78177 25.8217 1.75195C26.7919 2.72216 27.3373 4.0381 27.3373 5.41016C27.3373 6.78221 26.7919 8.09815 25.8217 9.06836C24.8515 10.0385 23.5355 10.5839 22.1635 10.584C20.7914 10.584 19.4755 10.0385 18.5053 9.06836C18.4531 9.01616 18.4027 8.96236 18.3529 8.9082L14.015 11.6191L18.351 14.3291C18.4011 14.2745 18.4527 14.2206 18.5053 14.168C19.4755 13.1979 20.7915 12.6533 22.1635 12.6533C23.5355 12.6534 24.8515 13.1979 25.8217 14.168C26.7918 15.1381 27.3372 16.4542 27.3373 17.8262C27.3373 19.1981 26.7917 20.5142 25.8217 21.4844C24.8515 22.4546 23.5355 23 22.1635 23C20.7914 23 19.4755 22.4546 18.5053 21.4844C17.5351 20.5142 16.9897 19.1982 16.9897 17.8262C16.9897 17.6039 17.0045 17.3831 17.0326 17.165L11.0873 13.4492L2.80704 18.625C2.63417 18.7394 2.43948 18.8183 2.23575 18.8564C2.03212 18.8946 1.82295 18.8917 1.62051 18.8477C1.41797 18.8036 1.22652 18.7189 1.05704 18.5996C0.887604 18.4803 0.742952 18.3291 0.633207 18.1533C0.523449 17.9775 0.450146 17.7808 0.417387 17.5762C0.384661 17.3716 0.393397 17.1622 0.442778 16.9609C0.492183 16.7597 0.58174 16.5705 0.705473 16.4043C0.829232 16.2381 0.984842 16.0982 1.16348 15.9932L8.15957 11.6191L1.16348 7.24707C0.984942 7.14209 0.829201 7.00203 0.705473 6.83594C0.581697 6.66967 0.492172 6.47963 0.442778 6.27832C0.393436 6.07709 0.384641 5.86768 0.417387 5.66309C0.450158 5.45859 0.523565 5.26262 0.633207 5.08691C0.742965 4.91108 0.887549 4.75898 1.05704 4.63965C1.22646 4.52041 1.41806 4.4366 1.62051 4.39258C1.82295 4.34856 2.03211 4.3447 2.23575 4.38281C2.43948 4.42098 2.63417 4.49988 2.80704 4.61426L11.0883 9.79004L17.0336 6.07324C17.0053 5.85448 16.9897 5.63312 16.9897 5.41016C16.9897 4.03807 17.5351 2.72217 18.5053 1.75195C19.4755 0.781786 20.7914 0.236328 22.1635 0.236328ZM22.1635 15.7568C21.6146 15.7568 21.0877 15.9752 20.6996 16.3633C20.3118 16.7513 20.0942 17.2776 20.0941 17.8262C20.0941 18.375 20.3116 18.902 20.6996 19.29C21.0877 19.6781 21.6146 19.8955 22.1635 19.8955C22.7122 19.8955 23.2383 19.6779 23.6264 19.29C24.0145 18.902 24.2328 18.375 24.2328 17.8262C24.2327 17.2775 24.0144 16.7513 23.6264 16.3633C23.2383 15.9753 22.7122 15.7569 22.1635 15.7568ZM22.1635 3.34082C21.6146 3.34082 21.0877 3.55918 20.6996 3.94727C20.3118 4.33531 20.0941 4.86152 20.0941 5.41016C20.0941 5.95879 20.3118 6.485 20.6996 6.87305C21.0877 7.26113 21.6146 7.47949 22.1635 7.47949C22.7123 7.47946 23.2383 7.2611 23.6264 6.87305C24.0144 6.48497 24.2328 5.95896 24.2328 5.41016C24.2328 4.86135 24.0144 4.33534 23.6264 3.94727C23.2383 3.55921 22.7123 3.34086 22.1635 3.34082Z" fill="#FCB635"/>
</svg>
