<svg width="52" height="48" viewBox="0 0 52 48" fill="none" xmlns="http://www.w3.org/2000/svg">
<path d="M51.3488 28.4651C51.3488 25.7687 49.7436 23.4452 47.4419 22.3842V21.7674C47.4419 9.76465 37.6772 0 25.6744 0C13.6716 0 3.90698 9.76465 3.90698 21.7674V22.3842C1.60521 23.4452 0 25.7693 0 28.4651C0 32.1583 3.00447 35.1628 6.69767 35.1628H8.93023C9.22629 35.1628 9.51022 35.0452 9.71956 34.8358C9.9289 34.6265 10.0465 34.3426 10.0465 34.0465V22.8837C10.0465 22.5877 9.9289 22.3037 9.71956 22.0944C9.51022 21.885 9.22629 21.7674 8.93023 21.7674H6.69767C6.50902 21.7674 6.32372 21.7803 6.13953 21.7953V21.7674C6.13953 10.9959 14.9029 2.23256 25.6744 2.23256C36.446 2.23256 45.2093 10.9959 45.2093 21.7674V21.7953C45.0251 21.7803 44.8398 21.7674 44.6512 21.7674H42.4186C42.1225 21.7674 41.8386 21.885 41.6293 22.0944C41.4199 22.3037 41.3023 22.5877 41.3023 22.8837V34.0465C41.3023 34.3426 41.4199 34.6265 41.6293 34.8358C41.8386 35.0452 42.1225 35.1628 42.4186 35.1628H44.6512C44.8398 35.1628 45.0251 35.1499 45.2093 35.1349V36.8372C45.2093 40.5304 42.2048 43.5349 38.5116 43.5349H30.1395C30.1395 42.3036 29.1382 41.3023 27.907 41.3023H22.3256C21.0943 41.3023 20.093 42.3036 20.093 43.5349V45.7674C20.093 46.9987 21.0943 48 22.3256 48H27.907C29.1382 48 30.1395 46.9987 30.1395 45.7674H38.5116C43.4355 45.7674 47.4419 41.7611 47.4419 36.8372V34.546C49.7436 33.485 51.3488 31.1615 51.3488 28.4651ZM7.81395 24V32.9302H6.69767C4.23572 32.9302 2.23256 30.9271 2.23256 28.4651C2.23256 26.0032 4.23572 24 6.69767 24H7.81395ZM22.3256 45.7674V43.5349H27.907L27.9075 44.6433L27.907 44.6512L27.9075 44.6595L27.9086 45.7674H22.3256ZM44.6512 32.9302H43.5349V24H44.6512C47.1131 24 49.1163 26.0032 49.1163 28.4651C49.1163 30.9271 47.1131 32.9302 44.6512 32.9302Z" fill="white"/>
</svg>
