<svg width="20" height="20" viewBox="0 0 20 20" fill="none" xmlns="http://www.w3.org/2000/svg">
<path d="M20 10C20 4.477 15.523 0 10 0C4.477 0 0 4.477 0 10C0 15.523 4.477 20 10 20C12.1347 20 14.1133 19.331 15.7373 18.1913C16.0627 17.963 16.085 17.499 15.804 17.218C15.5627 16.9767 15.1803 16.957 14.899 17.1503C13.4575 18.1407 11.749 18.6695 10 18.6667C5.21333 18.6667 1.33333 14.7867 1.33333 10C1.33333 5.21333 5.21333 1.33333 10 1.33333C14.7867 1.33333 18.6667 5.21333 18.6667 10C18.6694 11.749 18.1405 13.4575 17.15 14.899C16.957 15.1803 16.9767 15.5623 17.218 15.8037C17.499 16.085 17.963 16.0627 18.1913 15.7373C19.3715 14.0572 20.0033 12.0532 20 10Z" fill="white"/>
<path fill-rule="evenodd" clip-rule="evenodd" d="M14.7866 15.1568C14.657 15.277 14.485 15.3409 14.3084 15.3343C14.1317 15.3278 13.9649 15.2513 13.8446 15.1218L10.7946 11.8371C10.5487 11.9413 10.2843 11.9951 10.0172 11.9955C9.75013 11.9958 9.48567 11.9427 9.23945 11.8391C8.99323 11.7356 8.77024 11.5838 8.58364 11.3927C8.39704 11.2016 8.25061 10.975 8.153 10.7264C8.05538 10.4778 8.00855 10.2121 8.01528 9.94511C8.02201 9.6781 8.08216 9.41513 8.19217 9.17174C8.30218 8.92835 8.45983 8.70945 8.65582 8.52798C8.85181 8.34651 9.08216 8.20613 9.33328 8.11514V4.8348C9.33328 4.65795 9.40354 4.48834 9.52859 4.36328C9.65365 4.23822 9.82326 4.16797 10.0001 4.16797C10.177 4.16797 10.3466 4.23822 10.4716 4.36328C10.5967 4.48834 10.6669 4.65795 10.6669 4.8348V8.11514C10.9373 8.21077 11.1839 8.3634 11.3901 8.56268C11.5963 8.76196 11.7573 9.00323 11.8621 9.27015C11.967 9.53707 12.0132 9.8234 11.9977 10.1097C11.9822 10.3961 11.9053 10.6758 11.7723 10.9298L14.8223 14.2145C14.8819 14.2786 14.9282 14.3539 14.9587 14.436C14.9892 14.5181 15.0032 14.6054 15 14.6929C14.9967 14.7804 14.9763 14.8664 14.9398 14.946C14.9033 15.0256 14.8508 15.0972 14.7866 15.1568ZM10.6666 10.0015C10.6666 9.82466 10.5964 9.65509 10.4714 9.53006C10.3463 9.40504 10.1768 9.3348 9.99995 9.3348C9.82314 9.3348 9.65357 9.40504 9.52855 9.53006C9.40352 9.65509 9.33328 9.82466 9.33328 10.0015C9.33328 10.1783 9.40352 10.3478 9.52855 10.4729C9.65357 10.5979 9.82314 10.6681 9.99995 10.6681C10.1768 10.6681 10.3463 10.5979 10.4714 10.4729C10.5964 10.3478 10.6666 10.1783 10.6666 10.0015Z" fill="white"/>
</svg>
