<svg width="20" height="32" viewBox="0 0 20 32" fill="none" xmlns="http://www.w3.org/2000/svg">
<path d="M18.2784 8.54152C14.3993 7.72833 11.3674 4.69639 10.5543 0.81727C10.5059 0.586205 10.3794 0.378855 10.1961 0.230036C10.0128 0.0812176 9.78388 -7.3296e-06 9.54778 4.96082e-10C9.31169 7.3306e-06 9.08278 0.0812465 8.89951 0.230077C8.71623 0.378907 8.58974 0.586265 8.54128 0.817332C7.72815 4.69639 4.69621 7.72827 0.817152 8.54133C0.586119 8.58983 0.378803 8.71633 0.230009 8.89961C0.0812142 9.08288 0 9.31176 0 9.54783C0 9.7839 0.0812142 10.0128 0.230009 10.1961C0.378803 10.3793 0.586119 10.5058 0.817152 10.5543C4.69615 11.3675 7.72796 14.3994 8.54109 18.2785C8.58953 18.5095 8.71601 18.7169 8.89929 18.8658C9.08257 19.0146 9.31148 19.0959 9.54759 19.0959C9.7837 19.0959 10.0126 19.0146 10.1959 18.8658C10.3792 18.7169 10.5056 18.5095 10.5541 18.2785C11.3673 14.3994 14.3993 11.3675 18.2783 10.5545C18.5094 10.5061 18.7168 10.3796 18.8657 10.1963C19.0145 10.0131 19.0958 9.78415 19.0958 9.54804C19.0958 9.31194 19.0145 9.08302 18.8657 8.89974C18.7169 8.71645 18.5095 8.58996 18.2784 8.54152ZM16.5784 25.5302C14.7508 25.1471 13.3223 23.7186 12.9391 21.8909C12.8907 21.6598 12.7642 21.4524 12.5809 21.3036C12.3976 21.1547 12.1687 21.0735 11.9326 21.0735C11.6965 21.0735 11.4676 21.1547 11.2843 21.3035C11.101 21.4524 10.9745 21.6597 10.9261 21.8908C10.5429 23.7185 9.11434 25.147 7.28671 25.5301C7.05568 25.5786 6.84836 25.7051 6.69957 25.8884C6.55078 26.0717 6.46956 26.3006 6.46956 26.5366C6.46956 26.7727 6.55078 27.0016 6.69957 27.1849C6.84836 27.3681 7.05568 27.4946 7.28671 27.5431C9.11428 27.9263 10.5428 29.3548 10.926 31.1825C10.9744 31.4136 11.1009 31.621 11.2842 31.7698C11.4674 31.9187 11.6964 31.9999 11.9325 31.9999C12.1686 31.9999 12.3975 31.9187 12.5808 31.7698C12.764 31.621 12.8905 31.4136 12.939 31.1825C13.3222 29.3548 14.7507 27.9263 16.5784 27.5432C16.8094 27.4947 17.0167 27.3682 17.1655 27.1849C17.3143 27.0017 17.3956 26.7728 17.3956 26.5367C17.3956 26.3006 17.3143 26.0718 17.1655 25.8885C17.0167 25.7052 16.8094 25.5787 16.5784 25.5302Z" fill="url(#paint0_linear_9005_12702)"/>
<defs>
<linearGradient id="paint0_linear_9005_12702" x1="0" y1="16" x2="19.0958" y2="16" gradientUnits="userSpaceOnUse">
<stop stop-color="#F7F0AC"/>
<stop offset="0.5" stop-color="#ACF7F0"/>
<stop offset="1" stop-color="#F0ACF7"/>
</linearGradient>
</defs>
</svg>
