<svg width="4" height="5" viewBox="0 0 4 5" fill="none" xmlns="http://www.w3.org/2000/svg">
<path d="M3.55748 2.98716C3.54097 2.98716 3.53271 2.99481 3.53271 3.0101C3.51619 3.02539 3.49967 3.04832 3.48316 3.07891C3.45013 3.10949 3.42535 3.14772 3.40883 3.19359C2.9629 3.74408 2.39309 4.20282 1.72418 4.52394C1.70766 4.52394 1.69114 4.53159 1.67463 4.54688C1.62508 4.56217 1.58379 4.57746 1.55076 4.59275C1.43514 4.63862 1.31127 4.6845 1.17914 4.73037L0.163391 1.81737C0.683653 1.67975 1.08004 1.35863 1.35256 0.89989V0.876953L3.55748 2.98716Z" fill="url(#paint0_linear_9005_12529)"/>
<defs>
<linearGradient id="paint0_linear_9005_12529" x1="0.8323" y1="3.17066" x2="2.36251" y2="2.05184" gradientUnits="userSpaceOnUse">
<stop stop-color="#027AF3"/>
<stop offset="1" stop-color="#0080F9"/>
</linearGradient>
</defs>
</svg>
