<svg width="14" height="17" viewBox="0 0 14 17" fill="none" xmlns="http://www.w3.org/2000/svg">
<path d="M6.72681 16.6C5.57809 16.6 0.2 11.3786 0.2 7.12681C0.2 5.39579 0.887644 3.73567 2.11166 2.51166C3.33567 1.28764 4.99579 0.6 6.72681 0.6C8.45782 0.6 10.1179 1.28764 11.342 2.51166C12.566 3.73567 13.2536 5.39579 13.2536 7.12681C13.2536 11.3935 7.87553 16.6 6.72681 16.6ZM6.72681 1.71142C5.29185 1.7134 3.91634 2.28482 2.90237 3.30019C1.8884 4.31555 1.31888 5.69185 1.31888 7.12681C1.31888 10.6625 5.72727 14.9888 6.72681 15.4587C7.72634 14.9888 12.1347 10.6625 12.1347 7.12681C12.1347 5.69185 11.5652 4.31555 10.5512 3.30019C9.53727 2.28482 8.16176 1.7134 6.72681 1.71142Z" fill="white"/>
<path d="M6.72681 10.2599C6.09981 10.2599 5.48689 10.0739 4.96556 9.72559C4.44423 9.37725 4.0379 8.88214 3.79796 8.30286C3.55801 7.72359 3.49523 7.08618 3.61756 6.47123C3.73988 5.85628 4.04181 5.29141 4.48516 4.84805C4.92852 4.4047 5.49339 4.10277 6.10834 3.98045C6.72329 3.85813 7.3607 3.92091 7.93997 4.16085C8.51925 4.40079 9.01436 4.80712 9.3627 5.32845C9.71104 5.84978 9.89697 6.4627 9.89697 7.0897C9.895 7.92987 9.56037 8.73507 8.96627 9.32916C8.37218 9.92326 7.56698 10.2579 6.72681 10.2599ZM6.72681 5.03841C6.3211 5.03841 5.92451 5.15872 5.58717 5.38412C5.24984 5.60951 4.98692 5.92988 4.83167 6.3047C4.67641 6.67953 4.63579 7.09197 4.71494 7.48988C4.79409 7.88779 4.98945 8.25329 5.27633 8.54017C5.56321 8.82705 5.92871 9.02241 6.32662 9.10156C6.72453 9.18071 7.13697 9.14009 7.5118 8.98483C7.88662 8.82958 8.20699 8.56666 8.43238 8.22933C8.65778 7.892 8.77809 7.4954 8.77809 7.0897C8.77809 6.54566 8.56197 6.02391 8.17728 5.63922C7.79259 5.25453 7.27084 5.03841 6.72681 5.03841Z" fill="white"/>
</svg>
