<svg width="50" height="43" viewBox="0 0 50 43" fill="none" xmlns="http://www.w3.org/2000/svg">
<path d="M49.2187 10.0097L32.2441 0.209375C32.0066 0.0721971 31.7372 -1.55004e-05 31.4629 2.49565e-09H21.8498C21.6446 -1.82841e-09 21.4414 0.0404151 21.2519 0.118938C21.0623 0.197461 20.89 0.312554 20.745 0.457646C20.5999 0.602737 20.4848 0.774986 20.4062 0.964557C20.3277 1.15413 20.2873 1.35731 20.2873 1.5625C20.2873 1.76769 20.3277 1.97087 20.4062 2.16044C20.4848 2.35001 20.5999 2.52226 20.745 2.66735C20.89 2.81245 21.0623 2.92754 21.2519 3.00606C21.4414 3.08458 21.6446 3.125 21.8498 3.125H25.6315L14.0695 9.80029H1.5625C1.1481 9.80029 0.750671 9.96491 0.457646 10.2579C0.16462 10.551 0 10.9484 0 11.3628C0 11.7772 0.16462 12.1746 0.457646 12.4676C0.750671 12.7607 1.1481 12.9253 1.5625 12.9253H14.0695L29.9003 22.0652V38.0576L15.2694 29.6103C15.0319 29.4732 14.7625 29.401 14.4882 29.401H1.5625C1.1481 29.401 0.750671 29.5656 0.457646 29.8586C0.16462 30.1516 0 30.5491 0 30.9635C0 31.3779 0.16462 31.7753 0.457646 32.0683C0.750671 32.3614 1.1481 32.526 1.5625 32.526H14.0695L30.6816 42.1168C30.9192 42.2539 31.1886 42.3261 31.4629 42.3261C31.7372 42.3261 32.0066 42.2539 32.2441 42.1168L49.2187 32.3166C49.4563 32.1795 49.6535 31.9822 49.7907 31.7447C49.9278 31.5071 50 31.2377 50 30.9634V11.3628C50 11.0885 49.9278 10.8191 49.7907 10.5816C49.6535 10.344 49.4563 10.1468 49.2187 10.0097ZM45.3125 11.3628L31.4629 19.3589L17.6133 11.3628L31.4629 3.3667L45.3125 11.3628ZM33.0253 38.0576V22.0652L46.875 14.069V30.0613L33.0253 38.0576Z" fill="white"/>
</svg>
