<svg width="11" height="23" viewBox="0 0 11 23" fill="none" xmlns="http://www.w3.org/2000/svg">
<path fill-rule="evenodd" clip-rule="evenodd" d="M5.76549 12.4167C7.13758 12.4167 8.45347 12.9618 9.42369 13.932C10.3939 14.9022 10.939 16.2181 10.939 17.5902C10.939 18.9623 10.3939 20.2782 9.42369 21.2484C8.45347 22.2186 7.13758 22.7637 5.76549 22.7637C4.39339 22.7637 3.0775 22.2186 2.10728 21.2484C1.13707 20.2782 0.592007 18.9623 0.592007 17.5902C0.592007 16.2181 1.13707 14.9022 2.10728 13.932C3.0775 12.9618 4.39339 12.4167 5.76549 12.4167ZM5.76549 15.5208C5.21665 15.5208 4.69029 15.7388 4.3022 16.1269C3.91412 16.515 3.69609 17.0414 3.69609 17.5902C3.69609 18.139 3.91412 18.6654 4.3022 19.0535C4.69029 19.4416 5.21665 19.6596 5.76549 19.6596C6.31432 19.6596 6.84068 19.4416 7.22877 19.0535C7.61686 18.6654 7.83488 18.139 7.83488 17.5902C7.83488 17.0414 7.61686 16.515 7.22877 16.1269C6.84068 15.7388 6.31432 15.5208 5.76549 15.5208ZM5.76549 10.3473C4.39339 10.3473 3.0775 9.80226 2.10728 8.83204C1.13707 7.86183 0.592007 6.54593 0.592007 5.17384C0.592007 3.80175 1.13707 2.48586 2.10728 1.51564C3.0775 0.545425 4.39339 0.000363827 5.76549 0.000363827C7.13758 0.000363827 8.45347 0.545425 9.42369 1.51564C10.3939 2.48586 10.939 3.80175 10.939 5.17384C10.939 6.54593 10.3939 7.86183 9.42369 8.83204C8.45347 9.80226 7.13758 10.3473 5.76549 10.3473ZM5.76549 7.24323C6.31432 7.24323 6.84068 7.02521 7.22877 6.63712C7.61686 6.24904 7.83488 5.72268 7.83488 5.17384C7.83488 4.62501 7.61686 4.09865 7.22877 3.71056C6.84068 3.32248 6.31432 3.10445 5.76549 3.10445C5.21665 3.10445 4.69029 3.32248 4.3022 3.71056C3.91412 4.09865 3.69609 4.62501 3.69609 5.17384C3.69609 5.72268 3.91412 6.24904 4.3022 6.63712C4.69029 7.02521 5.21665 7.24323 5.76549 7.24323Z" fill="white"/>
</svg>
