<svg width="27" height="19" viewBox="0 0 27 19" fill="none" xmlns="http://www.w3.org/2000/svg">
<path d="M16.9712 5.38955e-05C16.4731 5.38955e-05 15.9955 0.197902 15.6433 0.550072C15.2911 0.902243 15.0933 1.37989 15.0933 1.87793C15.0933 2.37598 15.2911 2.85362 15.6433 3.20579C15.9955 3.55796 16.4731 3.75581 16.9712 3.75581H19.9687L13.2154 10.5091L10.7919 8.07139C10.4399 7.72088 9.96344 7.52408 9.46673 7.52408C8.97001 7.52408 8.49353 7.72088 8.14158 8.07139L0.630065 15.5829C-1.2549 17.3545 1.52294 20.1182 3.28744 18.2332L9.47381 12.0468L11.8973 14.4774C12.6343 15.2073 13.8107 15.2073 14.5476 14.4774L22.619 6.42027V9.40362C22.619 9.90166 22.8168 10.3793 23.169 10.7315C23.5212 11.0837 23.9988 11.2815 24.4968 11.2815C24.9949 11.2815 25.4725 11.0837 25.8247 10.7315C26.1769 10.3793 26.3747 9.90166 26.3747 9.40362V1.8921C26.3766 1.64311 26.329 1.39623 26.2345 1.16582C26.1401 0.935416 26.0008 0.726088 25.8248 0.550018C25.6487 0.373948 25.4394 0.234651 25.209 0.140234C24.9785 0.0458181 24.7317 -0.0018325 24.4827 5.38955e-05H16.9712Z" fill="#FCB635"/>
</svg>
