<svg width="23" height="26" viewBox="0 0 23 26" fill="none" xmlns="http://www.w3.org/2000/svg">
<path fill-rule="evenodd" clip-rule="evenodd" d="M21.2926 9.78537L5.11757 0.452865C4.55477 0.130126 3.91173 -0.0257468 3.26361 0.0034674C2.6155 0.0326816 1.98908 0.245776 1.4576 0.617841C0.926116 0.989906 0.51152 1.50557 0.262272 2.10456C0.0130242 2.70354 -0.0605776 3.3611 0.0500727 4.00037L3.28757 22.3929C3.4022 23.0456 3.70439 23.6508 4.15723 24.1346C4.61008 24.6184 5.194 24.9599 5.83769 25.1173C6.48139 25.2748 7.15701 25.2415 7.78206 25.0214C8.40712 24.8013 8.95457 24.4039 9.35757 23.8779L13.7426 18.1629L20.6126 15.9979C21.2441 15.7982 21.8039 15.4192 22.2239 14.9071C22.6438 14.3949 22.9058 13.7717 22.9779 13.1133C23.0499 12.4549 22.929 11.7898 22.6298 11.1989C22.3305 10.608 21.8659 10.1169 21.2926 9.78537ZM18.7551 12.6504L12.0501 14.7654C11.6832 14.8796 11.3608 15.105 11.1276 15.4104L6.84757 20.9904L3.86757 4.06037L18.7551 12.6504Z" fill="#FCB635"/>
</svg>
