<svg width="16" height="22" viewBox="0 0 16 22" fill="none" xmlns="http://www.w3.org/2000/svg">
<path d="M8.15875 9.87C8.05875 9.86 7.93875 9.86 7.82875 9.87C5.44875 9.79 3.55875 7.84 3.55875 5.44C3.55875 2.99 5.53875 1 7.99875 1C10.4488 1 12.4388 2.99 12.4388 5.44C12.4288 7.84 10.5388 9.79 8.15875 9.87Z" stroke="white" stroke-width="1.5" stroke-linecap="round" stroke-linejoin="round"/>
<path d="M3.15875 13.56C0.73875 15.18 0.73875 17.82 3.15875 19.43C5.90875 21.27 10.4188 21.27 13.1688 19.43C15.5888 17.81 15.5888 15.17 13.1688 13.56C10.4288 11.73 5.91875 11.73 3.15875 13.56Z" stroke="white" stroke-width="1.5" stroke-linecap="round" stroke-linejoin="round"/>
</svg>
