<svg width="9" height="17" viewBox="0 0 9 17" fill="none" xmlns="http://www.w3.org/2000/svg">
<path d="M5.24295 8.90827C5.2428 9.27286 5.29086 9.63546 5.38556 9.98423C5.39091 10.0089 5.39758 10.0332 5.40553 10.057C5.63372 10.882 6.09127 11.6035 6.71123 12.1158C7.33119 12.6281 8.08101 12.9043 8.85099 12.9041V17C7.07478 17 5.80199 17.0696 3.86605 15.7848C1.6556 14.3193 0.41346 11.6394 0.41346 8.85627C0.41346 5.98758 1.80248 3.11169 4.15769 1.72694C5.86473 0.722178 7.16391 0.714978 8.85099 0.714978V4.80842C7.89413 4.80864 6.97653 5.23517 6.29993 5.99425C5.62333 6.75332 5.24314 7.78278 5.24295 8.85627V8.90827Z" fill="#69C9D0"/>
</svg>
