<svg width="17" height="29" viewBox="0 0 17 29" fill="none" xmlns="http://www.w3.org/2000/svg">
<path d="M11.6717 3.75411C10.1778 4.34654 8.7907 5.19148 7.5675 6.25404C6.18045 7.48708 5.01213 8.95857 4.11465 10.6029C3.77539 11.2029 2.49223 13.6078 2.33573 17.5237C2.24727 19.7427 2.89468 22.0326 3.2038 22.9876C3.20323 22.9899 3.20323 22.9923 3.2038 22.9946C3.39822 23.5386 4.15742 25.4615 5.40072 27.0945C5.76212 27.5673 6.14931 28.0187 6.56042 28.4464C5.24246 27.5088 4.06704 26.3751 3.07257 25.0825C1.83996 23.4696 1.07979 21.5656 0.881485 21.0036L0.876624 20.9916V20.9836C0.5675 20.0317 -0.0818536 17.7397 0.00855059 15.5178C0.165057 11.6019 1.44821 9.19996 1.78747 8.59698C2.68469 6.95244 3.85304 5.4809 5.24033 4.2481C6.46327 3.18517 7.85047 2.34019 9.34448 1.74817C10.2759 1.34999 11.2466 1.05662 12.2394 0.873192C13.7353 0.604033 15.2633 0.580744 16.7664 0.804193V2.65414C16.029 2.66806 15.2939 2.74094 14.5675 2.87214C13.5741 3.05775 12.6032 3.35347 11.6717 3.75411Z" fill="#69C9D0"/>
</svg>
