<svg width="38" height="13" viewBox="0 0 38 13" fill="none" xmlns="http://www.w3.org/2000/svg">
<path d="M9.97173 8.71635C9.97173 9.21023 10.0265 9.61068 10.1223 9.90434C10.2318 10.198 10.3687 10.5184 10.5603 10.8654C10.6288 10.9722 10.6562 11.079 10.6562 11.1724C10.6562 11.3059 10.574 11.4394 10.3961 11.5729L9.5337 12.1335C9.4105 12.2136 9.2873 12.2536 9.1778 12.2536C9.04091 12.2536 8.90402 12.1869 8.76714 12.0667C8.5755 11.8665 8.41124 11.6529 8.27435 11.4394C8.13747 11.2125 8.00058 10.9588 7.85001 10.6518C6.7823 11.8799 5.44082 12.4939 3.82557 12.4939C2.67573 12.4939 1.7586 12.1735 1.08786 11.5328C0.417122 10.8921 0.074908 10.0378 0.074908 8.96997C0.074908 7.83537 0.485565 6.91435 1.32057 6.22025C2.15557 5.52614 3.26434 5.17909 4.67426 5.17909C5.13967 5.17909 5.61877 5.21913 6.12525 5.28587C6.63172 5.35261 7.15189 5.4594 7.69943 5.57953V4.60512C7.69943 3.59066 7.48041 2.8832 7.05607 2.46941C6.61804 2.05562 5.87885 1.85539 4.82484 1.85539C4.34574 1.85539 3.85295 1.90879 3.34647 2.02892C2.84 2.14905 2.34721 2.29588 1.86811 2.48276C1.64909 2.5762 1.48483 2.62959 1.38901 2.65628C1.29319 2.68298 1.22475 2.69633 1.16999 2.69633C0.978352 2.69633 0.882533 2.56285 0.882533 2.28254V1.62848C0.882533 1.41491 0.90991 1.25473 0.978353 1.16129C1.0468 1.06785 1.16999 0.974416 1.36163 0.880979C1.84073 0.640712 2.41565 0.440489 3.08639 0.280311C3.75713 0.106785 4.46893 0.0266963 5.2218 0.0266963C6.85074 0.0266963 8.04165 0.387097 8.8082 1.1079C9.56108 1.8287 9.94435 2.92325 9.94435 4.39155V8.71635H9.97173ZM4.41418 10.7453C4.8659 10.7453 5.33131 10.6652 5.8241 10.505C6.31689 10.3448 6.75492 10.0512 7.12451 9.65072C7.34353 9.39711 7.50779 9.1168 7.58992 8.79644C7.67205 8.47609 7.72681 8.08899 7.72681 7.63515V7.07453C7.32984 6.98109 6.9055 6.901 6.46746 6.84761C6.02943 6.79422 5.60508 6.76752 5.18074 6.76752C4.26361 6.76752 3.59287 6.94105 3.14114 7.30145C2.68942 7.66185 2.4704 8.16908 2.4704 8.83649C2.4704 9.46385 2.63467 9.93104 2.97688 10.2514C3.30541 10.5851 3.78451 10.7453 4.41418 10.7453ZM15.4061 12.1869C15.1597 12.1869 14.9954 12.1468 14.8859 12.0534C14.7764 11.9733 14.6806 11.7864 14.5985 11.5328L11.3817 1.21468C11.2995 0.94772 11.2585 0.774194 11.2585 0.680756C11.2585 0.467186 11.368 0.347052 11.587 0.347052H12.9285C13.1885 0.347052 13.3665 0.387097 13.4623 0.480534C13.5718 0.560623 13.654 0.747497 13.7361 1.00111L16.0358 9.8376L18.1712 1.00111C18.2396 0.734149 18.3217 0.560623 18.4313 0.480534C18.5408 0.400445 18.7324 0.347052 18.9788 0.347052H20.0739C20.334 0.347052 20.5119 0.387097 20.6214 0.480534C20.7309 0.560623 20.8268 0.747497 20.8815 1.00111L23.0443 9.94438L25.4124 1.00111C25.4945 0.734149 25.5904 0.560623 25.6862 0.480534C25.7957 0.400445 25.9736 0.347052 26.22 0.347052H27.4931C27.7121 0.347052 27.8353 0.453838 27.8353 0.680756C27.8353 0.747497 27.8216 0.814238 27.8079 0.894327C27.7942 0.974416 27.7668 1.0812 27.7121 1.22803L24.4132 11.5462C24.331 11.8131 24.2352 11.9867 24.1257 12.0667C24.0162 12.1468 23.8382 12.2002 23.6055 12.2002H22.4283C22.1682 12.2002 21.9903 12.1602 21.8808 12.0667C21.7713 11.9733 21.6754 11.7998 21.6207 11.5328L19.499 2.92325L17.3909 11.5195C17.3225 11.7864 17.2404 11.96 17.1308 12.0534C17.0213 12.1468 16.8297 12.1869 16.5833 12.1869H15.4061ZM32.9959 12.5473C32.2841 12.5473 31.5723 12.4672 30.8878 12.307C30.2034 12.1468 29.6696 11.9733 29.3137 11.7731C29.0946 11.6529 28.9441 11.5195 28.8893 11.3993C28.8346 11.2792 28.8072 11.1457 28.8072 11.0256V10.3448C28.8072 10.0645 28.9167 9.93104 29.122 9.93104C29.2041 9.93104 29.2863 9.94438 29.3684 9.97108C29.4505 9.99778 29.5737 10.0512 29.7106 10.1046C30.176 10.3048 30.6825 10.465 31.2164 10.5717C31.7639 10.6785 32.2978 10.7319 32.8453 10.7319C33.7077 10.7319 34.3784 10.5851 34.8438 10.2914C35.3092 9.99778 35.5556 9.57063 35.5556 9.02336C35.5556 8.64961 35.4324 8.3426 35.186 8.08899C34.9397 7.83537 34.4742 7.60845 33.8035 7.39488L31.8187 6.79422C30.8194 6.48721 30.0802 6.03337 29.6285 5.4327C29.1768 4.84538 28.9441 4.19132 28.9441 3.49722C28.9441 2.9366 29.0673 2.44271 29.3137 2.01557C29.56 1.58843 29.8886 1.21468 30.2992 0.921023C30.7099 0.614016 31.1753 0.387097 31.7228 0.226919C32.2704 0.0667408 32.8453 0 33.4476 0C33.7487 0 34.0636 0.0133482 34.3647 0.0533927C34.6796 0.0934372 34.967 0.14683 35.2545 0.200222C35.5283 0.266963 35.7883 0.333704 36.0347 0.413793C36.2811 0.493882 36.4728 0.573971 36.6097 0.65406C36.8013 0.760845 36.9382 0.867631 37.0203 0.987764C37.1024 1.09455 37.1435 1.24138 37.1435 1.42825V2.05562C37.1435 2.33593 37.034 2.48276 36.8287 2.48276C36.7192 2.48276 36.5412 2.42937 36.3085 2.32258C35.5283 1.97553 34.6522 1.802 33.6803 1.802C32.9001 1.802 32.2841 1.92214 31.8597 2.17575C31.4354 2.42937 31.2164 2.81646 31.2164 3.36374C31.2164 3.73749 31.3533 4.05784 31.627 4.31146C31.9008 4.56507 32.4073 4.81869 33.1328 5.04561L35.0765 5.64627C36.0621 5.95328 36.7739 6.38042 37.1983 6.9277C37.6226 7.47497 37.8279 8.10234 37.8279 8.79644C37.8279 9.37041 37.7047 9.89099 37.472 10.3448C37.2256 10.7987 36.8971 11.1991 36.4728 11.5195C36.0484 11.8532 35.5419 12.0934 34.9533 12.267C34.3374 12.4538 33.694 12.5473 32.9959 12.5473Z" fill="white"/>
</svg>
