<svg width="29" height="35" viewBox="0 0 29 35" fill="none" xmlns="http://www.w3.org/2000/svg">
<path fill-rule="evenodd" clip-rule="evenodd" d="M14.1667 0C21.9858 0 28.3333 6.3475 28.3333 14.1667C28.3333 18.2383 26.3017 22.4292 23.7508 25.9483C20.1892 30.8633 15.735 34.4467 15.735 34.4467V34.4475C15.2905 34.805 14.7371 34.9999 14.1667 34.9999C13.5962 34.9999 13.0429 34.805 12.5983 34.4475V34.4467C12.5983 34.4467 8.14417 30.8633 4.5825 25.9483C2.03167 22.4292 0 18.2383 0 14.1667C0 6.3475 6.3475 0 14.1667 0ZM14.1667 8.33333C17.3858 8.33333 20 10.9475 20 14.1667C20 17.3858 17.3858 20 14.1667 20C10.9475 20 8.33333 17.3858 8.33333 14.1667C8.33333 10.9475 10.9475 8.33333 14.1667 8.33333Z" fill="#FCB635"/>
</svg>
