<svg width="20" height="14" viewBox="0 0 20 14" fill="none" xmlns="http://www.w3.org/2000/svg">
<path fill-rule="evenodd" clip-rule="evenodd" d="M18.9639 10.725C19.1425 10.8301 19.2984 10.9698 19.4222 11.1361C19.5459 11.3024 19.6351 11.4917 19.6845 11.693C19.7339 11.8944 19.7425 12.1035 19.7097 12.3082C19.677 12.5129 19.6036 12.7089 19.4938 12.8847C19.384 13.0606 19.2402 13.2126 19.0707 13.332C18.9012 13.4513 18.7095 13.5355 18.507 13.5795C18.3044 13.6235 18.0951 13.6266 17.8914 13.5884C17.6877 13.5502 17.4936 13.4716 17.3208 13.3573L0.765639 3.0103C0.586958 2.90524 0.431133 2.76545 0.307357 2.59919C0.183581 2.43292 0.0943617 2.24355 0.044967 2.04224C-0.00442768 1.84093 -0.012998 1.63177 0.0197611 1.4271C0.0525202 1.22242 0.125946 1.02638 0.235704 0.85055C0.345462 0.674715 0.48933 0.522648 0.658816 0.403321C0.828303 0.283994 1.01997 0.199826 1.22252 0.155783C1.42507 0.11174 1.63438 0.108715 1.83811 0.146886C2.04185 0.185057 2.23587 0.263652 2.40874 0.378031L18.9639 10.725Z" fill="white"/>
</svg>
