<svg width="10" height="12" viewBox="0 0 10 12" fill="none" xmlns="http://www.w3.org/2000/svg">
<path fill-rule="evenodd" clip-rule="evenodd" d="M8.76806 8.49876L3.51556 0.99876C3.37817 0.788221 3.19984 0.607461 2.99119 0.467229C2.78253 0.326998 2.54781 0.230165 2.30097 0.182478C2.05414 0.134791 1.80023 0.13723 1.55436 0.18965C1.30849 0.242069 1.07566 0.343396 0.869737 0.487609C0.663813 0.631823 0.488993 0.815976 0.355674 1.02912C0.222356 1.24225 0.13326 1.48003 0.0936873 1.72829C0.0541146 1.97656 0.0648722 2.23025 0.125321 2.47427C0.185769 2.7183 0.294677 2.94767 0.445561 3.14876L5.69556 10.6488C5.83673 10.8505 6.01625 11.0225 6.22388 11.1548C6.43151 11.2872 6.66318 11.3774 6.90566 11.4202C7.14813 11.463 7.39668 11.4577 7.63709 11.4045C7.8775 11.3512 8.10506 11.2512 8.30681 11.11C8.50855 10.9688 8.68051 10.7893 8.81288 10.5817C8.94524 10.3741 9.03541 10.1424 9.07824 9.89991C9.12107 9.65744 9.11573 9.4089 9.0625 9.16849C9.00928 8.92808 8.90923 8.70051 8.76806 8.49876Z" fill="#FCB635"/>
</svg>
