<svg width="15" height="15" viewBox="0 0 15 15" fill="none" xmlns="http://www.w3.org/2000/svg">
<path fill-rule="evenodd" clip-rule="evenodd" d="M14.4497 14.6598H11.4767V12.779C10.9565 13.4671 10.2628 14.0176 9.47001 14.4075C8.64419 14.7898 7.71103 14.9809 6.6705 14.9809C5.39875 14.9809 4.26739 14.6751 3.27641 14.0634C2.30195 13.4671 1.53395 12.6413 0.972397 11.5862C0.394328 10.5311 0.105293 9.32311 0.105293 7.96218C0.105293 6.58596 0.394328 5.3703 0.972397 4.31519C1.55047 3.27538 2.34325 2.44965 3.35074 1.838C4.37475 1.24163 5.53914 0.943452 6.84392 0.943452C7.8349 0.943452 8.72678 1.12695 9.51956 1.49394C10.2876 1.838 10.9565 2.34261 11.4767 2.98485V1.26457H14.4497V14.6598ZM11.4024 5.96666C11.0886 5.20209 10.5849 4.59808 9.89117 4.15463C9.18098 3.72648 8.37167 3.5124 7.46328 3.5124C6.1585 3.5124 5.12623 3.90997 4.36648 4.70512C3.59022 5.51556 3.20209 6.60125 3.20209 7.96218C3.20209 9.3384 3.57371 10.4317 4.31694 11.2422C5.06017 12.0526 6.06766 12.4578 7.33941 12.4578C8.26432 12.4578 9.09839 12.2285 9.84162 11.7697C10.5601 11.3569 11.1051 10.7146 11.4024 9.98064V5.96666Z" fill="white"/>
</svg>
