<svg width="150" height="80" viewBox="0 0 150 80" fill="none" xmlns="http://www.w3.org/2000/svg">
<path d="M148.42 62.5273L126.311 24.3242L120.895 14.981C120.067 13.5525 118.713 12.5366 117.158 12.1258C117.248 9.96535 116.733 7.7914 115.593 5.82199C113.487 2.17733 109.707 0 105.487 0H78.2613C74.1192 0 70.2583 2.2179 68.1746 5.78818C66.0637 2.16381 62.296 0 58.0912 0H30.8651C26.7095 0 22.8351 2.23312 20.7581 5.82199L4.498 33.9261L1.55871 39.0043C-0.518269 42.5966 -0.518269 47.056 1.55871 50.6483L15.1743 74.178C17.2818 77.8227 21.063 80 25.278 80H25.2814C29.5014 80 33.2776 77.8193 35.3884 74.1746L36.6556 71.977L48.9786 50.6821L62.5704 74.178C64.6813 77.8227 68.4592 80 72.6775 80C74.785 80 76.7857 79.4557 78.5222 78.4549C80.2587 77.4558 81.7291 75.997 82.7846 74.1746L84.0552 71.977L91.8836 58.4465L94.1555 62.3785L100.966 74.1493C103.038 77.7534 106.91 79.9949 111.08 79.9949H138.316C142.532 79.9949 146.309 77.821 148.416 74.1797C150.529 70.5367 150.529 66.1821 148.42 62.5273ZM31.3344 68.9105L30.0638 71.1081C27.9394 74.7832 22.6233 74.7866 20.4989 71.1115L6.8833 47.5818C5.89733 45.8761 5.89394 43.7765 6.8833 42.0708L9.82259 36.991L26.0827 8.88682C27.0686 7.18452 28.8915 6.13473 30.8618 6.13473H58.0912C62.34 6.13473 64.9981 10.7261 62.8737 14.3978L31.3344 68.9105ZM78.7306 68.9105L77.46 71.1081C75.3356 74.7832 70.0194 74.7866 67.895 71.1115L54.2795 47.5818C53.2935 45.8761 53.2935 43.7765 54.2795 42.0708L57.2187 36.991L73.4788 8.88682C74.4648 7.18452 76.2877 6.13473 78.2613 6.13473H105.487C109.74 6.13473 112.398 10.7261 110.27 14.3978L78.7306 68.9105ZM138.316 73.8636H111.081C109.111 73.8636 107.285 72.8138 106.302 71.1047L99.4784 59.3137L95.5904 52.5856L115.574 18.0509L120.99 27.3941L143.095 65.5938C145.219 69.2689 142.568 73.8636 138.316 73.8636Z" fill="url(#paint0_linear_9005_12876)"/>
<defs>
<linearGradient id="paint0_linear_9005_12876" x1="19.2567" y1="6.32686" x2="135.383" y2="91.4648" gradientUnits="userSpaceOnUse">
<stop stop-color="#339EFF"/>
<stop offset="1" stop-color="#7A5AF8"/>
</linearGradient>
</defs>
</svg>
